G04 Layer_Physical_Order=2*
G04 Layer_Color=11436288*
%FSAX25Y25*%
%MOIN*%
G70*
G01*
G75*
%ADD25C,0.01181*%
%ADD31C,0.15748*%
G04:AMPARAMS|DCode=32|XSize=196.85mil|YSize=314.96mil|CornerRadius=49.21mil|HoleSize=0mil|Usage=FLASHONLY|Rotation=0.000|XOffset=0mil|YOffset=0mil|HoleType=Round|Shape=RoundedRectangle|*
%AMROUNDEDRECTD32*
21,1,0.19685,0.21654,0,0,0.0*
21,1,0.09843,0.31496,0,0,0.0*
1,1,0.09843,0.04921,-0.10827*
1,1,0.09843,-0.04921,-0.10827*
1,1,0.09843,-0.04921,0.10827*
1,1,0.09843,0.04921,0.10827*
%
%ADD32ROUNDEDRECTD32*%
G04:AMPARAMS|DCode=33|XSize=68.9mil|YSize=68.9mil|CornerRadius=17.22mil|HoleSize=0mil|Usage=FLASHONLY|Rotation=270.000|XOffset=0mil|YOffset=0mil|HoleType=Round|Shape=RoundedRectangle|*
%AMROUNDEDRECTD33*
21,1,0.06890,0.03445,0,0,270.0*
21,1,0.03445,0.06890,0,0,270.0*
1,1,0.03445,-0.01722,-0.01722*
1,1,0.03445,-0.01722,0.01722*
1,1,0.03445,0.01722,0.01722*
1,1,0.03445,0.01722,-0.01722*
%
%ADD33ROUNDEDRECTD33*%
%ADD34C,0.06890*%
%ADD35C,0.06299*%
%ADD36C,0.01969*%
%ADD37R,0.07480X0.13400*%
%ADD38R,0.04000X0.21654*%
G36*
X0294886Y0255892D02*
X0295711Y0255341D01*
X0296262Y0254516D01*
X0296442Y0253609D01*
X0296429Y0253543D01*
Y0103937D01*
X0296442Y0103871D01*
X0296262Y0102964D01*
X0295711Y0102139D01*
X0294886Y0101588D01*
X0293979Y0101408D01*
X0293913Y0101421D01*
X0104937D01*
X0104871Y0101408D01*
X0103964Y0101588D01*
X0103139Y0102139D01*
X0102588Y0102964D01*
X0102408Y0103871D01*
X0102421Y0103937D01*
Y0253543D01*
X0102408Y0253609D01*
X0102588Y0254516D01*
X0103139Y0255341D01*
X0103964Y0255892D01*
X0104871Y0256072D01*
X0104937Y0256059D01*
X0293913D01*
X0293979Y0256072D01*
X0294886Y0255892D01*
D02*
G37*
%LPC*%
G36*
X0195850Y0158523D02*
X0195075Y0158369D01*
X0194419Y0157931D01*
X0193981Y0157274D01*
X0193826Y0156500D01*
X0193981Y0155726D01*
X0194419Y0155069D01*
X0194523Y0155000D01*
Y0154500D01*
X0194419Y0154430D01*
X0193981Y0153774D01*
X0193826Y0153000D01*
X0193981Y0152226D01*
X0194419Y0151569D01*
X0194523Y0151500D01*
Y0151000D01*
X0194419Y0150931D01*
X0193981Y0150274D01*
X0193826Y0149500D01*
X0193981Y0148726D01*
X0194419Y0148069D01*
X0194834Y0147792D01*
Y0147208D01*
X0194419Y0146931D01*
X0193981Y0146274D01*
X0193826Y0145500D01*
X0193981Y0144726D01*
X0194419Y0144069D01*
X0195075Y0143631D01*
X0195850Y0143477D01*
X0196624Y0143631D01*
X0197280Y0144069D01*
X0197719Y0144726D01*
X0197873Y0145500D01*
X0197719Y0146274D01*
X0197280Y0146931D01*
X0196865Y0147208D01*
Y0147792D01*
X0197280Y0148069D01*
X0197719Y0148726D01*
X0197873Y0149500D01*
X0197719Y0150274D01*
X0197280Y0150931D01*
X0197176Y0151000D01*
Y0151500D01*
X0197280Y0151569D01*
X0197719Y0152226D01*
X0197873Y0153000D01*
X0197719Y0153774D01*
X0197280Y0154430D01*
X0197176Y0154500D01*
Y0155000D01*
X0197280Y0155069D01*
X0197719Y0155726D01*
X0197873Y0156500D01*
X0197719Y0157274D01*
X0197280Y0157931D01*
X0196624Y0158369D01*
X0195850Y0158523D01*
D02*
G37*
G36*
X0239350D02*
X0238575Y0158369D01*
X0237919Y0157931D01*
X0237480Y0157274D01*
X0237327Y0156500D01*
X0237480Y0155726D01*
X0237919Y0155069D01*
X0238023Y0155000D01*
Y0154500D01*
X0237919Y0154430D01*
X0237480Y0153774D01*
X0237327Y0153000D01*
X0237480Y0152226D01*
X0237919Y0151569D01*
X0238023Y0151500D01*
Y0151000D01*
X0237919Y0150931D01*
X0237480Y0150274D01*
X0237327Y0149500D01*
X0237480Y0148726D01*
X0237919Y0148069D01*
X0238334Y0147792D01*
Y0147208D01*
X0237919Y0146931D01*
X0237480Y0146274D01*
X0237327Y0145500D01*
X0237480Y0144726D01*
X0237919Y0144069D01*
X0238575Y0143631D01*
X0239350Y0143477D01*
X0240124Y0143631D01*
X0240780Y0144069D01*
X0241219Y0144726D01*
X0241373Y0145500D01*
X0241219Y0146274D01*
X0240780Y0146931D01*
X0240365Y0147208D01*
Y0147792D01*
X0240780Y0148069D01*
X0241219Y0148726D01*
X0241373Y0149500D01*
X0241219Y0150274D01*
X0240780Y0150931D01*
X0240676Y0151000D01*
Y0151500D01*
X0240780Y0151569D01*
X0241219Y0152226D01*
X0241373Y0153000D01*
X0241219Y0153774D01*
X0240780Y0154430D01*
X0240676Y0154500D01*
Y0155000D01*
X0240780Y0155069D01*
X0241219Y0155726D01*
X0241373Y0156500D01*
X0241219Y0157274D01*
X0240780Y0157931D01*
X0240124Y0158369D01*
X0239350Y0158523D01*
D02*
G37*
G36*
X0151850D02*
X0151075Y0158369D01*
X0150419Y0157931D01*
X0149980Y0157274D01*
X0149827Y0156500D01*
X0149980Y0155726D01*
X0150419Y0155069D01*
X0150523Y0155000D01*
Y0154500D01*
X0150419Y0154430D01*
X0149980Y0153774D01*
X0149827Y0153000D01*
X0149980Y0152226D01*
X0150419Y0151569D01*
X0150523Y0151500D01*
Y0151000D01*
X0150419Y0150931D01*
X0149980Y0150274D01*
X0149827Y0149500D01*
X0149980Y0148726D01*
X0150419Y0148069D01*
X0150834Y0147792D01*
Y0147208D01*
X0150419Y0146931D01*
X0149980Y0146274D01*
X0149827Y0145500D01*
X0149980Y0144726D01*
X0150419Y0144069D01*
X0151075Y0143631D01*
X0151850Y0143477D01*
X0152624Y0143631D01*
X0153280Y0144069D01*
X0153719Y0144726D01*
X0153873Y0145500D01*
X0153719Y0146274D01*
X0153280Y0146931D01*
X0152865Y0147208D01*
Y0147792D01*
X0153280Y0148069D01*
X0153719Y0148726D01*
X0153873Y0149500D01*
X0153719Y0150274D01*
X0153280Y0150931D01*
X0153176Y0151000D01*
Y0151500D01*
X0153280Y0151569D01*
X0153719Y0152226D01*
X0153873Y0153000D01*
X0153719Y0153774D01*
X0153280Y0154430D01*
X0153176Y0154500D01*
Y0155000D01*
X0153280Y0155069D01*
X0153719Y0155726D01*
X0153873Y0156500D01*
X0153719Y0157274D01*
X0153280Y0157931D01*
X0152624Y0158369D01*
X0151850Y0158523D01*
D02*
G37*
G36*
X0261980Y0136196D02*
X0261206Y0136042D01*
X0260550Y0135604D01*
X0260111Y0134947D01*
X0259976Y0134268D01*
X0259480D01*
Y0117150D01*
X0259458Y0117133D01*
X0258793Y0116266D01*
X0258730Y0116115D01*
X0258230D01*
X0258168Y0116266D01*
X0257543Y0117080D01*
Y0134268D01*
X0256985D01*
X0256849Y0134947D01*
X0256411Y0135604D01*
X0255754Y0136042D01*
X0254980Y0136196D01*
X0254206Y0136042D01*
X0253550Y0135604D01*
X0253111Y0134947D01*
X0252976Y0134268D01*
X0251543D01*
Y0117080D01*
X0250919Y0116266D01*
X0250500Y0115256D01*
X0250358Y0114173D01*
X0250500Y0113090D01*
X0250919Y0112081D01*
X0251543Y0111266D01*
Y0110614D01*
X0252365D01*
X0252451Y0110548D01*
X0253460Y0110130D01*
X0254543Y0109988D01*
X0255627Y0110130D01*
X0256636Y0110548D01*
X0256721Y0110614D01*
X0257543D01*
Y0111266D01*
X0258168Y0112081D01*
X0258230Y0112231D01*
X0258730D01*
X0258793Y0112081D01*
X0259458Y0111214D01*
X0259480Y0111196D01*
Y0110614D01*
X0260239D01*
X0260325Y0110548D01*
X0261334Y0110130D01*
X0262417Y0109988D01*
X0263500Y0110130D01*
X0264510Y0110548D01*
X0264596Y0110614D01*
X0265480D01*
Y0111348D01*
X0266042Y0112081D01*
X0266460Y0113090D01*
X0266603Y0114173D01*
X0266460Y0115256D01*
X0266042Y0116266D01*
X0265480Y0116998D01*
Y0134268D01*
X0263985D01*
X0263849Y0134947D01*
X0263411Y0135604D01*
X0262755Y0136042D01*
X0261980Y0136196D01*
D02*
G37*
G36*
X0136850Y0147523D02*
X0136075Y0147369D01*
X0135419Y0146931D01*
X0134980Y0146274D01*
X0134827Y0145500D01*
X0134980Y0144726D01*
X0135419Y0144069D01*
X0136075Y0143631D01*
X0136850Y0143477D01*
X0137624Y0143631D01*
X0138280Y0144069D01*
X0138719Y0144726D01*
X0138873Y0145500D01*
X0138719Y0146274D01*
X0138280Y0146931D01*
X0137624Y0147369D01*
X0136850Y0147523D01*
D02*
G37*
G36*
X0227850Y0154523D02*
X0227075Y0154369D01*
X0226419Y0153930D01*
X0226350Y0153827D01*
X0225850D01*
X0225780Y0153930D01*
X0225124Y0154369D01*
X0224350Y0154523D01*
X0223575Y0154369D01*
X0222919Y0153930D01*
X0222481Y0153274D01*
X0222326Y0152500D01*
X0222481Y0151726D01*
X0222919Y0151069D01*
X0223023Y0151000D01*
Y0150500D01*
X0222919Y0150431D01*
X0222481Y0149774D01*
X0222326Y0149000D01*
X0222481Y0148226D01*
X0222919Y0147569D01*
X0223023Y0147500D01*
Y0147000D01*
X0222919Y0146931D01*
X0222481Y0146274D01*
X0222326Y0145500D01*
X0222481Y0144726D01*
X0222919Y0144069D01*
X0223575Y0143631D01*
X0224350Y0143477D01*
X0225124Y0143631D01*
X0225780Y0144069D01*
X0226219Y0144726D01*
X0226373Y0145500D01*
X0226219Y0146274D01*
X0225780Y0146931D01*
X0225676Y0147000D01*
Y0147500D01*
X0225780Y0147569D01*
X0226219Y0148226D01*
X0226373Y0149000D01*
X0226219Y0149774D01*
X0225780Y0150431D01*
X0225865Y0150934D01*
X0225916Y0150985D01*
X0226419Y0151069D01*
X0227075Y0150631D01*
X0227850Y0150477D01*
X0228624Y0150631D01*
X0229280Y0151069D01*
X0229719Y0151726D01*
X0229873Y0152500D01*
X0229719Y0153274D01*
X0229280Y0153930D01*
X0228624Y0154369D01*
X0227850Y0154523D01*
D02*
G37*
G36*
X0273350D02*
X0272575Y0154369D01*
X0271919Y0153930D01*
X0271850Y0153827D01*
X0271350D01*
X0271280Y0153930D01*
X0270624Y0154369D01*
X0269850Y0154523D01*
X0269075Y0154369D01*
X0268419Y0153930D01*
X0267981Y0153274D01*
X0267827Y0152500D01*
X0267981Y0151726D01*
X0268419Y0151069D01*
X0268523Y0151000D01*
Y0150500D01*
X0268419Y0150431D01*
X0267981Y0149774D01*
X0267827Y0149000D01*
X0267981Y0148226D01*
X0268419Y0147569D01*
X0268523Y0147500D01*
Y0147000D01*
X0268419Y0146931D01*
X0267981Y0146274D01*
X0267827Y0145500D01*
X0267981Y0144726D01*
X0268419Y0144069D01*
X0269075Y0143631D01*
X0269850Y0143477D01*
X0270624Y0143631D01*
X0271280Y0144069D01*
X0271719Y0144726D01*
X0271873Y0145500D01*
X0271719Y0146274D01*
X0271280Y0146931D01*
X0271176Y0147000D01*
Y0147500D01*
X0271280Y0147569D01*
X0271719Y0148226D01*
X0271873Y0149000D01*
X0271719Y0149774D01*
X0271280Y0150431D01*
X0271365Y0150934D01*
X0271416Y0150985D01*
X0271919Y0151069D01*
X0272575Y0150631D01*
X0273350Y0150477D01*
X0274124Y0150631D01*
X0274780Y0151069D01*
X0275219Y0151726D01*
X0275373Y0152500D01*
X0275219Y0153274D01*
X0274780Y0153930D01*
X0274124Y0154369D01*
X0273350Y0154523D01*
D02*
G37*
G36*
X0184350D02*
X0183575Y0154369D01*
X0182919Y0153930D01*
X0182850Y0153827D01*
X0182350D01*
X0182280Y0153930D01*
X0181624Y0154369D01*
X0180850Y0154523D01*
X0180075Y0154369D01*
X0179419Y0153930D01*
X0178981Y0153274D01*
X0178826Y0152500D01*
X0178981Y0151726D01*
X0179419Y0151069D01*
X0179523Y0151000D01*
Y0150500D01*
X0179419Y0150431D01*
X0178981Y0149774D01*
X0178826Y0149000D01*
X0178981Y0148226D01*
X0179419Y0147569D01*
X0179523Y0147500D01*
Y0147000D01*
X0179419Y0146931D01*
X0178981Y0146274D01*
X0178826Y0145500D01*
X0178981Y0144726D01*
X0179419Y0144069D01*
X0180075Y0143631D01*
X0180850Y0143477D01*
X0181624Y0143631D01*
X0182280Y0144069D01*
X0182719Y0144726D01*
X0182873Y0145500D01*
X0182719Y0146274D01*
X0182280Y0146931D01*
X0182176Y0147000D01*
Y0147500D01*
X0182280Y0147569D01*
X0182719Y0148226D01*
X0182873Y0149000D01*
X0182719Y0149774D01*
X0182280Y0150431D01*
X0182365Y0150934D01*
X0182416Y0150985D01*
X0182919Y0151069D01*
X0183575Y0150631D01*
X0184350Y0150477D01*
X0185124Y0150631D01*
X0185780Y0151069D01*
X0186219Y0151726D01*
X0186373Y0152500D01*
X0186219Y0153274D01*
X0185780Y0153930D01*
X0185124Y0154369D01*
X0184350Y0154523D01*
D02*
G37*
G36*
X0284850Y0158523D02*
X0284075Y0158369D01*
X0283419Y0157931D01*
X0282980Y0157274D01*
X0282826Y0156500D01*
X0282980Y0155726D01*
X0283419Y0155069D01*
X0283523Y0155000D01*
Y0154500D01*
X0283419Y0154430D01*
X0282980Y0153774D01*
X0282826Y0153000D01*
X0282980Y0152226D01*
X0283419Y0151569D01*
X0283523Y0151500D01*
Y0151000D01*
X0283419Y0150931D01*
X0282980Y0150274D01*
X0282826Y0149500D01*
X0282980Y0148726D01*
X0283419Y0148069D01*
X0283834Y0147792D01*
Y0147208D01*
X0283419Y0146931D01*
X0282980Y0146274D01*
X0282826Y0145500D01*
X0282980Y0144726D01*
X0283419Y0144069D01*
X0284075Y0143631D01*
X0284850Y0143477D01*
X0285624Y0143631D01*
X0286280Y0144069D01*
X0286719Y0144726D01*
X0286873Y0145500D01*
X0286719Y0146274D01*
X0286280Y0146931D01*
X0285865Y0147208D01*
Y0147792D01*
X0286280Y0148069D01*
X0286719Y0148726D01*
X0286873Y0149500D01*
X0286719Y0150274D01*
X0286280Y0150931D01*
X0286176Y0151000D01*
Y0151500D01*
X0286280Y0151569D01*
X0286719Y0152226D01*
X0286873Y0153000D01*
X0286719Y0153774D01*
X0286280Y0154430D01*
X0286176Y0154500D01*
Y0155000D01*
X0286280Y0155069D01*
X0286719Y0155726D01*
X0286873Y0156500D01*
X0286719Y0157274D01*
X0286280Y0157931D01*
X0285624Y0158369D01*
X0284850Y0158523D01*
D02*
G37*
G36*
X0140350Y0154523D02*
X0139575Y0154369D01*
X0138919Y0153930D01*
X0138850Y0153827D01*
X0138350D01*
X0138280Y0153930D01*
X0137624Y0154369D01*
X0136850Y0154523D01*
X0136075Y0154369D01*
X0135419Y0153930D01*
X0134980Y0153274D01*
X0134827Y0152500D01*
X0134980Y0151726D01*
X0135419Y0151069D01*
X0136075Y0150631D01*
X0136850Y0150477D01*
X0137624Y0150631D01*
X0138280Y0151069D01*
X0138350Y0151173D01*
X0138850D01*
X0138919Y0151069D01*
X0139575Y0150631D01*
X0140350Y0150477D01*
X0141124Y0150631D01*
X0141780Y0151069D01*
X0142219Y0151726D01*
X0142373Y0152500D01*
X0142219Y0153274D01*
X0141780Y0153930D01*
X0141124Y0154369D01*
X0140350Y0154523D01*
D02*
G37*
G36*
X0222610Y0136196D02*
X0221836Y0136042D01*
X0221180Y0135604D01*
X0220741Y0134947D01*
X0220606Y0134268D01*
X0220110D01*
Y0117150D01*
X0220088Y0117133D01*
X0219423Y0116266D01*
X0219360Y0116115D01*
X0218860D01*
X0218798Y0116266D01*
X0218173Y0117080D01*
Y0134268D01*
X0217615D01*
X0217479Y0134947D01*
X0217041Y0135604D01*
X0216384Y0136042D01*
X0215610Y0136196D01*
X0214836Y0136042D01*
X0214180Y0135604D01*
X0213741Y0134947D01*
X0213606Y0134268D01*
X0212173D01*
Y0117080D01*
X0211548Y0116266D01*
X0211130Y0115256D01*
X0210988Y0114173D01*
X0211130Y0113090D01*
X0211548Y0112081D01*
X0212173Y0111266D01*
Y0110614D01*
X0212995D01*
X0213081Y0110548D01*
X0214090Y0110130D01*
X0215173Y0109988D01*
X0216256Y0110130D01*
X0217266Y0110548D01*
X0217351Y0110614D01*
X0218173D01*
Y0111266D01*
X0218798Y0112081D01*
X0218860Y0112231D01*
X0219360D01*
X0219423Y0112081D01*
X0220088Y0111214D01*
X0220110Y0111196D01*
Y0110614D01*
X0220869D01*
X0220954Y0110548D01*
X0221964Y0110130D01*
X0223047Y0109988D01*
X0224131Y0110130D01*
X0225140Y0110548D01*
X0225225Y0110614D01*
X0226110D01*
Y0111348D01*
X0226672Y0112081D01*
X0227090Y0113090D01*
X0227233Y0114173D01*
X0227090Y0115256D01*
X0226672Y0116266D01*
X0226110Y0116998D01*
Y0134268D01*
X0224615D01*
X0224479Y0134947D01*
X0224041Y0135604D01*
X0223384Y0136042D01*
X0222610Y0136196D01*
D02*
G37*
G36*
X0192240D02*
X0191466Y0136042D01*
X0190810Y0135604D01*
X0190371Y0134947D01*
X0190217Y0134173D01*
X0190371Y0133399D01*
X0190596Y0133062D01*
X0190777Y0132673D01*
X0190596Y0132284D01*
X0190371Y0131947D01*
X0190217Y0131173D01*
X0190371Y0130399D01*
X0190596Y0130062D01*
X0190777Y0129673D01*
X0190596Y0129284D01*
X0190371Y0128947D01*
X0190217Y0128173D01*
X0190371Y0127399D01*
X0190596Y0127062D01*
X0190777Y0126673D01*
X0190596Y0126284D01*
X0190371Y0125947D01*
X0190217Y0125173D01*
X0190371Y0124399D01*
X0190596Y0124062D01*
X0190777Y0123673D01*
X0190596Y0123284D01*
X0190371Y0122947D01*
X0190217Y0122173D01*
X0190336Y0121574D01*
X0190033Y0121074D01*
X0188500D01*
Y0105674D01*
X0197980D01*
Y0121074D01*
X0194448D01*
X0194144Y0121574D01*
X0194263Y0122173D01*
X0194109Y0122947D01*
X0193884Y0123284D01*
X0193703Y0123673D01*
X0193884Y0124062D01*
X0194109Y0124399D01*
X0194263Y0125173D01*
X0194109Y0125947D01*
X0193884Y0126284D01*
X0193703Y0126673D01*
X0193884Y0127062D01*
X0194109Y0127399D01*
X0194263Y0128173D01*
X0194109Y0128947D01*
X0193884Y0129284D01*
X0193703Y0129673D01*
X0193884Y0130062D01*
X0194109Y0130399D01*
X0194263Y0131173D01*
X0194109Y0131947D01*
X0193884Y0132284D01*
X0193703Y0132673D01*
X0193884Y0133062D01*
X0194109Y0133399D01*
X0194263Y0134173D01*
X0194109Y0134947D01*
X0193671Y0135604D01*
X0193014Y0136042D01*
X0192240Y0136196D01*
D02*
G37*
G36*
X0206610D02*
X0205836Y0136042D01*
X0205180Y0135604D01*
X0204741Y0134947D01*
X0204587Y0134173D01*
X0204741Y0133399D01*
X0204966Y0133062D01*
X0205147Y0132673D01*
X0204966Y0132284D01*
X0204741Y0131947D01*
X0204587Y0131173D01*
X0204741Y0130399D01*
X0204966Y0130062D01*
X0205147Y0129673D01*
X0204966Y0129284D01*
X0204741Y0128947D01*
X0204587Y0128173D01*
X0204741Y0127399D01*
X0204966Y0127062D01*
X0205147Y0126673D01*
X0204966Y0126284D01*
X0204741Y0125947D01*
X0204587Y0125173D01*
X0204741Y0124399D01*
X0204966Y0124062D01*
X0205147Y0123673D01*
X0204966Y0123284D01*
X0204741Y0122947D01*
X0204587Y0122173D01*
X0204706Y0121574D01*
X0204403Y0121074D01*
X0200870D01*
Y0105674D01*
X0210350D01*
Y0121074D01*
X0208818D01*
X0208514Y0121574D01*
X0208633Y0122173D01*
X0208479Y0122947D01*
X0208254Y0123284D01*
X0208073Y0123673D01*
X0208254Y0124062D01*
X0208479Y0124399D01*
X0208633Y0125173D01*
X0208479Y0125947D01*
X0208254Y0126284D01*
X0208073Y0126673D01*
X0208254Y0127062D01*
X0208479Y0127399D01*
X0208633Y0128173D01*
X0208479Y0128947D01*
X0208254Y0129284D01*
X0208073Y0129673D01*
X0208254Y0130062D01*
X0208479Y0130399D01*
X0208633Y0131173D01*
X0208479Y0131947D01*
X0208254Y0132284D01*
X0208073Y0132673D01*
X0208254Y0133062D01*
X0208479Y0133399D01*
X0208633Y0134173D01*
X0208479Y0134947D01*
X0208041Y0135604D01*
X0207384Y0136042D01*
X0206610Y0136196D01*
D02*
G37*
G36*
X0167240D02*
X0166466Y0136042D01*
X0165810Y0135604D01*
X0165371Y0134947D01*
X0165217Y0134173D01*
X0165371Y0133399D01*
X0165596Y0133062D01*
X0165777Y0132673D01*
X0165596Y0132284D01*
X0165371Y0131947D01*
X0165217Y0131173D01*
X0165371Y0130399D01*
X0165596Y0130062D01*
X0165777Y0129673D01*
X0165596Y0129284D01*
X0165371Y0128947D01*
X0165217Y0128173D01*
X0165371Y0127399D01*
X0165596Y0127062D01*
X0165777Y0126673D01*
X0165596Y0126284D01*
X0165371Y0125947D01*
X0165217Y0125173D01*
X0165371Y0124399D01*
X0165596Y0124062D01*
X0165777Y0123673D01*
X0165596Y0123284D01*
X0165371Y0122947D01*
X0165217Y0122173D01*
X0165336Y0121574D01*
X0165033Y0121074D01*
X0161500D01*
Y0105674D01*
X0170980D01*
Y0121074D01*
X0169448D01*
X0169144Y0121574D01*
X0169263Y0122173D01*
X0169109Y0122947D01*
X0168884Y0123284D01*
X0168703Y0123673D01*
X0168884Y0124062D01*
X0169109Y0124399D01*
X0169263Y0125173D01*
X0169109Y0125947D01*
X0168884Y0126284D01*
X0168703Y0126673D01*
X0168884Y0127062D01*
X0169109Y0127399D01*
X0169263Y0128173D01*
X0169109Y0128947D01*
X0168884Y0129284D01*
X0168703Y0129673D01*
X0168884Y0130062D01*
X0169109Y0130399D01*
X0169263Y0131173D01*
X0169109Y0131947D01*
X0168884Y0132284D01*
X0168703Y0132673D01*
X0168884Y0133062D01*
X0169109Y0133399D01*
X0169263Y0134173D01*
X0169109Y0134947D01*
X0168671Y0135604D01*
X0168014Y0136042D01*
X0167240Y0136196D01*
D02*
G37*
G36*
X0270980D02*
X0270206Y0136042D01*
X0269550Y0135604D01*
X0269111Y0134947D01*
X0268957Y0134173D01*
X0269111Y0133399D01*
X0269336Y0133062D01*
X0269517Y0132673D01*
X0269336Y0132284D01*
X0269111Y0131947D01*
X0268957Y0131173D01*
X0269111Y0130399D01*
X0269336Y0130062D01*
X0269517Y0129673D01*
X0269336Y0129284D01*
X0269111Y0128947D01*
X0268957Y0128173D01*
X0269111Y0127399D01*
X0269336Y0127062D01*
X0269517Y0126673D01*
X0269336Y0126284D01*
X0269111Y0125947D01*
X0268957Y0125173D01*
X0269111Y0124399D01*
X0269336Y0124062D01*
X0269517Y0123673D01*
X0269336Y0123284D01*
X0269111Y0122947D01*
X0268957Y0122173D01*
X0269076Y0121574D01*
X0268773Y0121074D01*
X0267240D01*
Y0105674D01*
X0276720D01*
Y0110791D01*
X0277220Y0110816D01*
X0277294Y0110071D01*
X0277801Y0108399D01*
X0278625Y0106857D01*
X0279734Y0105506D01*
X0281085Y0104397D01*
X0282627Y0103573D01*
X0284300Y0103065D01*
X0286039Y0102894D01*
X0287779Y0103065D01*
X0289452Y0103573D01*
X0290993Y0104397D01*
X0292345Y0105506D01*
X0293454Y0106857D01*
X0294278Y0108399D01*
X0294785Y0110071D01*
X0294956Y0111811D01*
X0294785Y0113551D01*
X0294278Y0115223D01*
X0293454Y0116765D01*
X0292345Y0118116D01*
X0290993Y0119225D01*
X0289452Y0120049D01*
X0287779Y0120557D01*
X0286039Y0120728D01*
X0284300Y0120557D01*
X0282627Y0120049D01*
X0281085Y0119225D01*
X0279734Y0118116D01*
X0278625Y0116765D01*
X0277801Y0115223D01*
X0277294Y0113551D01*
X0277220Y0112806D01*
X0276720Y0112831D01*
Y0121074D01*
X0273188D01*
X0272884Y0121574D01*
X0273003Y0122173D01*
X0272849Y0122947D01*
X0272624Y0123284D01*
X0272443Y0123673D01*
X0272624Y0124062D01*
X0272849Y0124399D01*
X0273003Y0125173D01*
X0272849Y0125947D01*
X0272624Y0126284D01*
X0272443Y0126673D01*
X0272624Y0127062D01*
X0272849Y0127399D01*
X0273003Y0128173D01*
X0272849Y0128947D01*
X0272624Y0129284D01*
X0272443Y0129673D01*
X0272624Y0130062D01*
X0272849Y0130399D01*
X0273003Y0131173D01*
X0272849Y0131947D01*
X0272624Y0132284D01*
X0272443Y0132673D01*
X0272624Y0133062D01*
X0272849Y0133399D01*
X0273003Y0134173D01*
X0272849Y0134947D01*
X0272411Y0135604D01*
X0271755Y0136042D01*
X0270980Y0136196D01*
D02*
G37*
G36*
X0152870D02*
X0152096Y0136042D01*
X0151439Y0135604D01*
X0151001Y0134947D01*
X0150847Y0134173D01*
X0151001Y0133399D01*
X0151226Y0133062D01*
X0151407Y0132673D01*
X0151226Y0132284D01*
X0151001Y0131947D01*
X0150847Y0131173D01*
X0151001Y0130399D01*
X0151226Y0130062D01*
X0151407Y0129673D01*
X0151226Y0129284D01*
X0151001Y0128947D01*
X0150847Y0128173D01*
X0151001Y0127399D01*
X0151226Y0127062D01*
X0151407Y0126673D01*
X0151226Y0126284D01*
X0151001Y0125947D01*
X0150847Y0125173D01*
X0151001Y0124399D01*
X0151226Y0124062D01*
X0151407Y0123673D01*
X0151226Y0123284D01*
X0151001Y0122947D01*
X0150847Y0122173D01*
X0150966Y0121574D01*
X0150663Y0121074D01*
X0149130D01*
Y0105674D01*
X0158610D01*
Y0121074D01*
X0155078D01*
X0154774Y0121574D01*
X0154893Y0122173D01*
X0154739Y0122947D01*
X0154514Y0123284D01*
X0154333Y0123673D01*
X0154514Y0124062D01*
X0154739Y0124399D01*
X0154893Y0125173D01*
X0154739Y0125947D01*
X0154514Y0126284D01*
X0154333Y0126673D01*
X0154514Y0127062D01*
X0154739Y0127399D01*
X0154893Y0128173D01*
X0154739Y0128947D01*
X0154514Y0129284D01*
X0154333Y0129673D01*
X0154514Y0130062D01*
X0154739Y0130399D01*
X0154893Y0131173D01*
X0154739Y0131947D01*
X0154514Y0132284D01*
X0154333Y0132673D01*
X0154514Y0133062D01*
X0154739Y0133399D01*
X0154893Y0134173D01*
X0154739Y0134947D01*
X0154301Y0135604D01*
X0153644Y0136042D01*
X0152870Y0136196D01*
D02*
G37*
G36*
X0143870D02*
X0143096Y0136042D01*
X0142439Y0135604D01*
X0142001Y0134947D01*
X0141866Y0134268D01*
X0141370D01*
Y0117150D01*
X0141348Y0117133D01*
X0140682Y0116266D01*
X0140620Y0116115D01*
X0140120D01*
X0140058Y0116266D01*
X0139433Y0117080D01*
Y0134268D01*
X0138874D01*
X0138739Y0134947D01*
X0138301Y0135604D01*
X0137644Y0136042D01*
X0136870Y0136196D01*
X0136096Y0136042D01*
X0135440Y0135604D01*
X0135001Y0134947D01*
X0134866Y0134268D01*
X0133433D01*
Y0117080D01*
X0132808Y0116266D01*
X0132390Y0115256D01*
X0132248Y0114173D01*
X0132390Y0113090D01*
X0132808Y0112081D01*
X0133433Y0111266D01*
Y0110614D01*
X0134255D01*
X0134340Y0110548D01*
X0135350Y0110130D01*
X0136433Y0109988D01*
X0137516Y0110130D01*
X0138526Y0110548D01*
X0138611Y0110614D01*
X0139433D01*
Y0111266D01*
X0140058Y0112081D01*
X0140120Y0112231D01*
X0140620D01*
X0140682Y0112081D01*
X0141348Y0111214D01*
X0141370Y0111196D01*
Y0110614D01*
X0142129D01*
X0142214Y0110548D01*
X0143224Y0110130D01*
X0144307Y0109988D01*
X0145390Y0110130D01*
X0146400Y0110548D01*
X0146485Y0110614D01*
X0147370D01*
Y0111348D01*
X0147932Y0112081D01*
X0148350Y0113090D01*
X0148493Y0114173D01*
X0148350Y0115256D01*
X0147932Y0116266D01*
X0147370Y0116998D01*
Y0134268D01*
X0145874D01*
X0145739Y0134947D01*
X0145301Y0135604D01*
X0144644Y0136042D01*
X0143870Y0136196D01*
D02*
G37*
G36*
X0183240D02*
X0182466Y0136042D01*
X0181810Y0135604D01*
X0181371Y0134947D01*
X0181236Y0134268D01*
X0180740D01*
Y0117150D01*
X0180718Y0117133D01*
X0180052Y0116266D01*
X0179990Y0116115D01*
X0179490D01*
X0179428Y0116266D01*
X0178803Y0117080D01*
Y0134268D01*
X0178244D01*
X0178109Y0134947D01*
X0177671Y0135604D01*
X0177014Y0136042D01*
X0176240Y0136196D01*
X0175466Y0136042D01*
X0174810Y0135604D01*
X0174371Y0134947D01*
X0174236Y0134268D01*
X0172803D01*
Y0117080D01*
X0172178Y0116266D01*
X0171760Y0115256D01*
X0171618Y0114173D01*
X0171760Y0113090D01*
X0172178Y0112081D01*
X0172803Y0111266D01*
Y0110614D01*
X0173625D01*
X0173710Y0110548D01*
X0174720Y0110130D01*
X0175803Y0109988D01*
X0176886Y0110130D01*
X0177896Y0110548D01*
X0177981Y0110614D01*
X0178803D01*
Y0111266D01*
X0179428Y0112081D01*
X0179490Y0112231D01*
X0179990D01*
X0180052Y0112081D01*
X0180718Y0111214D01*
X0180740Y0111196D01*
Y0110614D01*
X0181499D01*
X0181584Y0110548D01*
X0182594Y0110130D01*
X0183677Y0109988D01*
X0184760Y0110130D01*
X0185770Y0110548D01*
X0185855Y0110614D01*
X0186740D01*
Y0111348D01*
X0187302Y0112081D01*
X0187720Y0113090D01*
X0187863Y0114173D01*
X0187720Y0115256D01*
X0187302Y0116266D01*
X0186740Y0116998D01*
Y0134268D01*
X0185244D01*
X0185109Y0134947D01*
X0184671Y0135604D01*
X0184014Y0136042D01*
X0183240Y0136196D01*
D02*
G37*
G36*
X0127870D02*
X0127096Y0136042D01*
X0126439Y0135604D01*
X0126001Y0134947D01*
X0125847Y0134173D01*
X0126001Y0133399D01*
X0126226Y0133062D01*
X0126407Y0132673D01*
X0126226Y0132284D01*
X0126001Y0131947D01*
X0125847Y0131173D01*
X0126001Y0130399D01*
X0126226Y0130062D01*
X0126407Y0129673D01*
X0126226Y0129284D01*
X0126001Y0128947D01*
X0125847Y0128173D01*
X0126001Y0127399D01*
X0126226Y0127062D01*
X0126407Y0126673D01*
X0126226Y0126284D01*
X0126001Y0125947D01*
X0125847Y0125173D01*
X0126001Y0124399D01*
X0126226Y0124062D01*
X0126407Y0123673D01*
X0126226Y0123284D01*
X0126001Y0122947D01*
X0125847Y0122173D01*
X0125966Y0121574D01*
X0125663Y0121074D01*
X0122130D01*
Y0112831D01*
X0121630Y0112806D01*
X0121557Y0113551D01*
X0121049Y0115223D01*
X0120225Y0116765D01*
X0119116Y0118116D01*
X0117765Y0119225D01*
X0116223Y0120049D01*
X0114551Y0120557D01*
X0112811Y0120728D01*
X0111071Y0120557D01*
X0109399Y0120049D01*
X0107857Y0119225D01*
X0106506Y0118116D01*
X0105397Y0116765D01*
X0104573Y0115223D01*
X0104065Y0113551D01*
X0103894Y0111811D01*
X0104065Y0110071D01*
X0104573Y0108399D01*
X0105397Y0106857D01*
X0106506Y0105506D01*
X0107857Y0104397D01*
X0109399Y0103573D01*
X0111071Y0103065D01*
X0112811Y0102894D01*
X0114551Y0103065D01*
X0116223Y0103573D01*
X0117765Y0104397D01*
X0119116Y0105506D01*
X0120225Y0106857D01*
X0121049Y0108399D01*
X0121557Y0110071D01*
X0121630Y0110816D01*
X0122130Y0110791D01*
Y0105674D01*
X0131610D01*
Y0121074D01*
X0130078D01*
X0129774Y0121574D01*
X0129893Y0122173D01*
X0129739Y0122947D01*
X0129514Y0123284D01*
X0129333Y0123673D01*
X0129514Y0124062D01*
X0129739Y0124399D01*
X0129893Y0125173D01*
X0129739Y0125947D01*
X0129514Y0126284D01*
X0129333Y0126673D01*
X0129514Y0127062D01*
X0129739Y0127399D01*
X0129893Y0128173D01*
X0129739Y0128947D01*
X0129514Y0129284D01*
X0129333Y0129673D01*
X0129514Y0130062D01*
X0129739Y0130399D01*
X0129893Y0131173D01*
X0129739Y0131947D01*
X0129514Y0132284D01*
X0129333Y0132673D01*
X0129514Y0133062D01*
X0129739Y0133399D01*
X0129893Y0134173D01*
X0129739Y0134947D01*
X0129301Y0135604D01*
X0128644Y0136042D01*
X0127870Y0136196D01*
D02*
G37*
G36*
X0231610D02*
X0230836Y0136042D01*
X0230180Y0135604D01*
X0229741Y0134947D01*
X0229587Y0134173D01*
X0229741Y0133399D01*
X0229966Y0133062D01*
X0230147Y0132673D01*
X0229966Y0132284D01*
X0229741Y0131947D01*
X0229587Y0131173D01*
X0229741Y0130399D01*
X0229966Y0130062D01*
X0230147Y0129673D01*
X0229966Y0129284D01*
X0229741Y0128947D01*
X0229587Y0128173D01*
X0229741Y0127399D01*
X0229966Y0127062D01*
X0230147Y0126673D01*
X0229966Y0126284D01*
X0229741Y0125947D01*
X0229587Y0125173D01*
X0229741Y0124399D01*
X0229966Y0124062D01*
X0230147Y0123673D01*
X0229966Y0123284D01*
X0229741Y0122947D01*
X0229587Y0122173D01*
X0229706Y0121574D01*
X0229403Y0121074D01*
X0227870D01*
Y0105674D01*
X0237350D01*
Y0121074D01*
X0233818D01*
X0233514Y0121574D01*
X0233633Y0122173D01*
X0233479Y0122947D01*
X0233254Y0123284D01*
X0233073Y0123673D01*
X0233254Y0124062D01*
X0233479Y0124399D01*
X0233633Y0125173D01*
X0233479Y0125947D01*
X0233254Y0126284D01*
X0233073Y0126673D01*
X0233254Y0127062D01*
X0233479Y0127399D01*
X0233633Y0128173D01*
X0233479Y0128947D01*
X0233254Y0129284D01*
X0233073Y0129673D01*
X0233254Y0130062D01*
X0233479Y0130399D01*
X0233633Y0131173D01*
X0233479Y0131947D01*
X0233254Y0132284D01*
X0233073Y0132673D01*
X0233254Y0133062D01*
X0233479Y0133399D01*
X0233633Y0134173D01*
X0233479Y0134947D01*
X0233041Y0135604D01*
X0232384Y0136042D01*
X0231610Y0136196D01*
D02*
G37*
G36*
X0245980D02*
X0245206Y0136042D01*
X0244550Y0135604D01*
X0244111Y0134947D01*
X0243957Y0134173D01*
X0244111Y0133399D01*
X0244336Y0133062D01*
X0244517Y0132673D01*
X0244336Y0132284D01*
X0244111Y0131947D01*
X0243957Y0131173D01*
X0244111Y0130399D01*
X0244336Y0130062D01*
X0244517Y0129673D01*
X0244336Y0129284D01*
X0244111Y0128947D01*
X0243957Y0128173D01*
X0244111Y0127399D01*
X0244336Y0127062D01*
X0244517Y0126673D01*
X0244336Y0126284D01*
X0244111Y0125947D01*
X0243957Y0125173D01*
X0244111Y0124399D01*
X0244336Y0124062D01*
X0244517Y0123673D01*
X0244336Y0123284D01*
X0244111Y0122947D01*
X0243957Y0122173D01*
X0244076Y0121574D01*
X0243773Y0121074D01*
X0240240D01*
Y0105674D01*
X0249720D01*
Y0121074D01*
X0248188D01*
X0247884Y0121574D01*
X0248003Y0122173D01*
X0247849Y0122947D01*
X0247624Y0123284D01*
X0247443Y0123673D01*
X0247624Y0124062D01*
X0247849Y0124399D01*
X0248003Y0125173D01*
X0247849Y0125947D01*
X0247624Y0126284D01*
X0247443Y0126673D01*
X0247624Y0127062D01*
X0247849Y0127399D01*
X0248003Y0128173D01*
X0247849Y0128947D01*
X0247624Y0129284D01*
X0247443Y0129673D01*
X0247624Y0130062D01*
X0247849Y0130399D01*
X0248003Y0131173D01*
X0247849Y0131947D01*
X0247624Y0132284D01*
X0247443Y0132673D01*
X0247624Y0133062D01*
X0247849Y0133399D01*
X0248003Y0134173D01*
X0247849Y0134947D01*
X0247411Y0135604D01*
X0246755Y0136042D01*
X0245980Y0136196D01*
D02*
G37*
G36*
X0167572Y0171468D02*
X0164127D01*
X0163417Y0171375D01*
X0162754Y0171100D01*
X0162186Y0170664D01*
X0161749Y0170095D01*
X0161475Y0169433D01*
X0161381Y0168722D01*
Y0165278D01*
X0161475Y0164567D01*
X0161749Y0163905D01*
X0162186Y0163336D01*
X0162754Y0162899D01*
X0163417Y0162625D01*
X0164127Y0162532D01*
X0167572D01*
X0168283Y0162625D01*
X0168945Y0162899D01*
X0169514Y0163336D01*
X0169950Y0163905D01*
X0170224Y0164567D01*
X0170318Y0165278D01*
Y0168722D01*
X0170224Y0169433D01*
X0169950Y0170095D01*
X0169514Y0170664D01*
X0168945Y0171100D01*
X0168283Y0171375D01*
X0167572Y0171468D01*
D02*
G37*
G36*
X0241268Y0191688D02*
X0240493Y0191534D01*
X0240157Y0191309D01*
X0239768Y0191128D01*
X0239378Y0191309D01*
X0239042Y0191534D01*
X0238268Y0191688D01*
X0237493Y0191534D01*
X0237157Y0191309D01*
X0236768Y0191128D01*
X0236379Y0191309D01*
X0236042Y0191534D01*
X0235268Y0191688D01*
X0234493Y0191534D01*
X0233837Y0191096D01*
X0233399Y0190439D01*
X0233245Y0189665D01*
X0233399Y0188891D01*
X0233624Y0188555D01*
X0233805Y0188165D01*
X0233624Y0187776D01*
X0233399Y0187440D01*
X0233245Y0186665D01*
X0233399Y0185891D01*
X0233837Y0185235D01*
X0234493Y0184796D01*
X0235268Y0184642D01*
X0236042Y0184796D01*
X0236379Y0185021D01*
X0236768Y0185202D01*
X0237157Y0185021D01*
X0237493Y0184796D01*
X0238268Y0184642D01*
X0239042Y0184796D01*
X0239378Y0185021D01*
X0239768Y0185202D01*
X0240157Y0185021D01*
X0240493Y0184796D01*
X0241268Y0184642D01*
X0242042Y0184796D01*
X0242698Y0185235D01*
X0243137Y0185891D01*
X0243291Y0186665D01*
X0243137Y0187440D01*
X0242912Y0187776D01*
X0242731Y0188165D01*
X0242912Y0188555D01*
X0243137Y0188891D01*
X0243291Y0189665D01*
X0243137Y0190439D01*
X0242698Y0191096D01*
X0242042Y0191534D01*
X0241268Y0191688D01*
D02*
G37*
G36*
X0239768Y0212688D02*
X0238994Y0212534D01*
X0238657Y0212310D01*
X0238268Y0212128D01*
X0237878Y0212310D01*
X0237542Y0212534D01*
X0236768Y0212688D01*
X0235994Y0212534D01*
X0235337Y0212096D01*
X0234899Y0211439D01*
X0234745Y0210665D01*
X0234899Y0209891D01*
X0235123Y0209555D01*
X0235305Y0209165D01*
X0235123Y0208776D01*
X0234899Y0208439D01*
X0234745Y0207665D01*
X0234899Y0206891D01*
X0235123Y0206555D01*
X0235305Y0206165D01*
X0235123Y0205776D01*
X0234899Y0205439D01*
X0234745Y0204665D01*
X0234899Y0203891D01*
X0235123Y0203555D01*
X0235305Y0203165D01*
X0235123Y0202776D01*
X0234899Y0202439D01*
X0234745Y0201665D01*
X0234899Y0200891D01*
X0235123Y0200554D01*
X0235305Y0200165D01*
X0235123Y0199776D01*
X0234899Y0199440D01*
X0234745Y0198665D01*
X0234899Y0197891D01*
X0235337Y0197235D01*
X0235994Y0196796D01*
X0236768Y0196642D01*
X0237542Y0196796D01*
X0237878Y0197021D01*
X0238268Y0197202D01*
X0238657Y0197021D01*
X0238994Y0196796D01*
X0239768Y0196642D01*
X0240542Y0196796D01*
X0241198Y0197235D01*
X0241637Y0197891D01*
X0241791Y0198665D01*
X0241637Y0199440D01*
X0241412Y0199776D01*
X0241231Y0200165D01*
X0241412Y0200554D01*
X0241637Y0200891D01*
X0241791Y0201665D01*
X0241637Y0202439D01*
X0241412Y0202776D01*
X0241231Y0203165D01*
X0241412Y0203555D01*
X0241637Y0203891D01*
X0241791Y0204665D01*
X0241637Y0205439D01*
X0241412Y0205776D01*
X0241231Y0206165D01*
X0241412Y0206555D01*
X0241637Y0206891D01*
X0241791Y0207665D01*
X0241637Y0208439D01*
X0241412Y0208776D01*
X0241231Y0209165D01*
X0241412Y0209555D01*
X0241637Y0209891D01*
X0241791Y0210665D01*
X0241637Y0211439D01*
X0241198Y0212096D01*
X0240542Y0212534D01*
X0239768Y0212688D01*
D02*
G37*
G36*
X0225350Y0178023D02*
X0224575Y0177869D01*
X0223919Y0177430D01*
X0223481Y0176774D01*
X0223326Y0176000D01*
X0223481Y0175226D01*
X0223919Y0174569D01*
X0224575Y0174131D01*
X0225350Y0173977D01*
X0226124Y0174131D01*
X0226780Y0174569D01*
X0227219Y0175226D01*
X0227373Y0176000D01*
X0227219Y0176774D01*
X0226780Y0177430D01*
X0226124Y0177869D01*
X0225350Y0178023D01*
D02*
G37*
G36*
X0137850D02*
X0137075Y0177869D01*
X0136419Y0177430D01*
X0135980Y0176774D01*
X0135827Y0176000D01*
X0135980Y0175226D01*
X0136419Y0174569D01*
X0137075Y0174131D01*
X0137850Y0173977D01*
X0138624Y0174131D01*
X0139280Y0174569D01*
X0139719Y0175226D01*
X0139873Y0176000D01*
X0139719Y0176774D01*
X0139280Y0177430D01*
X0138624Y0177869D01*
X0137850Y0178023D01*
D02*
G37*
G36*
X0181850D02*
X0181075Y0177869D01*
X0180419Y0177430D01*
X0179981Y0176774D01*
X0179826Y0176000D01*
X0179981Y0175226D01*
X0180419Y0174569D01*
X0181075Y0174131D01*
X0181850Y0173977D01*
X0182624Y0174131D01*
X0183280Y0174569D01*
X0183719Y0175226D01*
X0183873Y0176000D01*
X0183719Y0176774D01*
X0183280Y0177430D01*
X0182624Y0177869D01*
X0181850Y0178023D01*
D02*
G37*
G36*
X0112811Y0254586D02*
X0111071Y0254415D01*
X0109399Y0253907D01*
X0107857Y0253083D01*
X0106506Y0251975D01*
X0105397Y0250623D01*
X0104573Y0249082D01*
X0104065Y0247409D01*
X0103894Y0245669D01*
X0104065Y0243930D01*
X0104573Y0242257D01*
X0105397Y0240715D01*
X0106506Y0239364D01*
X0107857Y0238255D01*
X0109399Y0237431D01*
X0111071Y0236924D01*
X0112811Y0236752D01*
X0114551Y0236924D01*
X0116223Y0237431D01*
X0117765Y0238255D01*
X0119116Y0239364D01*
X0120225Y0240715D01*
X0121049Y0242257D01*
X0121557Y0243930D01*
X0121728Y0245669D01*
X0121557Y0247409D01*
X0121049Y0249082D01*
X0120225Y0250623D01*
X0119116Y0251975D01*
X0117765Y0253083D01*
X0116223Y0253907D01*
X0114551Y0254415D01*
X0112811Y0254586D01*
D02*
G37*
G36*
X0286039D02*
X0284300Y0254415D01*
X0282627Y0253907D01*
X0281085Y0253083D01*
X0279734Y0251975D01*
X0278625Y0250623D01*
X0277801Y0249082D01*
X0277294Y0247409D01*
X0277122Y0245669D01*
X0277294Y0243930D01*
X0277801Y0242257D01*
X0278625Y0240715D01*
X0279734Y0239364D01*
X0281085Y0238255D01*
X0282627Y0237431D01*
X0284300Y0236924D01*
X0286039Y0236752D01*
X0287779Y0236924D01*
X0289452Y0237431D01*
X0290993Y0238255D01*
X0292345Y0239364D01*
X0293454Y0240715D01*
X0294278Y0242257D01*
X0294785Y0243930D01*
X0294956Y0245669D01*
X0294785Y0247409D01*
X0294278Y0249082D01*
X0293454Y0250623D01*
X0292345Y0251975D01*
X0290993Y0253083D01*
X0289452Y0253907D01*
X0287779Y0254415D01*
X0286039Y0254586D01*
D02*
G37*
G36*
X0184661Y0250635D02*
X0174819D01*
X0173658Y0250521D01*
X0172542Y0250182D01*
X0171513Y0249632D01*
X0170612Y0248892D01*
X0169872Y0247991D01*
X0169322Y0246962D01*
X0168983Y0245846D01*
X0168869Y0244685D01*
Y0223031D01*
X0168983Y0221871D01*
X0169322Y0220755D01*
X0169872Y0219726D01*
X0170612Y0218824D01*
X0171513Y0218084D01*
X0172542Y0217534D01*
X0173658Y0217196D01*
X0174819Y0217081D01*
X0184661D01*
X0185822Y0217196D01*
X0186938Y0217534D01*
X0187967Y0218084D01*
X0188869Y0218824D01*
X0189609Y0219726D01*
X0190158Y0220755D01*
X0190497Y0221871D01*
X0190611Y0223031D01*
Y0244685D01*
X0190497Y0245846D01*
X0190158Y0246962D01*
X0189609Y0247991D01*
X0188869Y0248892D01*
X0187967Y0249632D01*
X0186938Y0250182D01*
X0185822Y0250521D01*
X0184661Y0250635D01*
D02*
G37*
G36*
X0223768Y0217688D02*
X0222993Y0217534D01*
X0222337Y0217096D01*
X0221899Y0216440D01*
X0221745Y0215665D01*
X0221899Y0214891D01*
X0222337Y0214235D01*
X0222993Y0213796D01*
X0223768Y0213642D01*
X0224542Y0213796D01*
X0224912Y0214044D01*
X0263368D01*
X0263399Y0213891D01*
X0263837Y0213235D01*
X0264493Y0212796D01*
X0265268Y0212642D01*
X0266042Y0212796D01*
X0266698Y0213235D01*
X0267137Y0213891D01*
X0267291Y0214665D01*
X0267137Y0215440D01*
X0266698Y0216096D01*
X0266042Y0216534D01*
X0265605Y0216621D01*
X0265414Y0216812D01*
X0264888Y0217164D01*
X0264268Y0217287D01*
X0224912D01*
X0224542Y0217534D01*
X0223768Y0217688D01*
D02*
G37*
G36*
X0153165Y0250635D02*
X0143323D01*
X0142162Y0250521D01*
X0141046Y0250182D01*
X0140017Y0249632D01*
X0139116Y0248892D01*
X0138376Y0247991D01*
X0137826Y0246962D01*
X0137487Y0245846D01*
X0137373Y0244685D01*
Y0223031D01*
X0137487Y0221871D01*
X0137826Y0220755D01*
X0138376Y0219726D01*
X0139116Y0218824D01*
X0140017Y0218084D01*
X0141046Y0217534D01*
X0142162Y0217196D01*
X0143323Y0217081D01*
X0153165D01*
X0154326Y0217196D01*
X0155442Y0217534D01*
X0156471Y0218084D01*
X0157372Y0218824D01*
X0158113Y0219726D01*
X0158662Y0220755D01*
X0159001Y0221871D01*
X0159115Y0223031D01*
Y0244685D01*
X0159001Y0245846D01*
X0158662Y0246962D01*
X0158113Y0247991D01*
X0157372Y0248892D01*
X0156471Y0249632D01*
X0155442Y0250182D01*
X0154326Y0250521D01*
X0153165Y0250635D01*
D02*
G37*
G36*
X0122350Y0181483D02*
X0121189Y0181331D01*
X0120108Y0180883D01*
X0119179Y0180170D01*
X0118467Y0179242D01*
X0118019Y0178160D01*
X0117866Y0177000D01*
X0118019Y0175840D01*
X0118467Y0174758D01*
X0119179Y0173830D01*
X0120108Y0173117D01*
X0121189Y0172669D01*
X0122350Y0172517D01*
X0123510Y0172669D01*
X0124591Y0173117D01*
X0125520Y0173830D01*
X0126232Y0174758D01*
X0126680Y0175840D01*
X0126833Y0177000D01*
X0126680Y0178160D01*
X0126232Y0179242D01*
X0125520Y0180170D01*
X0124591Y0180883D01*
X0123510Y0181331D01*
X0122350Y0181483D01*
D02*
G37*
G36*
X0137850Y0173023D02*
X0137075Y0172869D01*
X0136419Y0172431D01*
X0135980Y0171774D01*
X0135827Y0171000D01*
X0135980Y0170226D01*
X0136419Y0169569D01*
X0137075Y0169131D01*
X0137850Y0168977D01*
X0138624Y0169131D01*
X0139280Y0169569D01*
X0139719Y0170226D01*
X0139873Y0171000D01*
X0139719Y0171774D01*
X0139280Y0172431D01*
X0138624Y0172869D01*
X0137850Y0173023D01*
D02*
G37*
G36*
X0181850D02*
X0181075Y0172869D01*
X0180419Y0172431D01*
X0179981Y0171774D01*
X0179826Y0171000D01*
X0179981Y0170226D01*
X0180419Y0169569D01*
X0181075Y0169131D01*
X0181850Y0168977D01*
X0182624Y0169131D01*
X0183280Y0169569D01*
X0183719Y0170226D01*
X0183873Y0171000D01*
X0183719Y0171774D01*
X0183280Y0172431D01*
X0182624Y0172869D01*
X0181850Y0173023D01*
D02*
G37*
G36*
X0124072Y0171468D02*
X0120627D01*
X0119916Y0171375D01*
X0119254Y0171100D01*
X0118686Y0170664D01*
X0118249Y0170095D01*
X0117975Y0169433D01*
X0117881Y0168722D01*
Y0165278D01*
X0117975Y0164567D01*
X0118249Y0163905D01*
X0118686Y0163336D01*
X0119254Y0162899D01*
X0119916Y0162625D01*
X0120627Y0162532D01*
X0124072D01*
X0124783Y0162625D01*
X0125445Y0162899D01*
X0126014Y0163336D01*
X0126450Y0163905D01*
X0126725Y0164567D01*
X0126818Y0165278D01*
Y0168722D01*
X0126725Y0169433D01*
X0126450Y0170095D01*
X0126014Y0170664D01*
X0125445Y0171100D01*
X0124783Y0171375D01*
X0124072Y0171468D01*
D02*
G37*
G36*
X0211572Y0171468D02*
X0208127D01*
X0207417Y0171375D01*
X0206754Y0171100D01*
X0206186Y0170664D01*
X0205749Y0170095D01*
X0205475Y0169433D01*
X0205381Y0168722D01*
Y0165278D01*
X0205475Y0164567D01*
X0205749Y0163905D01*
X0206186Y0163336D01*
X0206754Y0162899D01*
X0207417Y0162625D01*
X0208127Y0162532D01*
X0211572D01*
X0212283Y0162625D01*
X0212945Y0162899D01*
X0213514Y0163336D01*
X0213950Y0163905D01*
X0214224Y0164567D01*
X0214318Y0165278D01*
Y0168722D01*
X0214224Y0169433D01*
X0213950Y0170095D01*
X0213514Y0170664D01*
X0212945Y0171100D01*
X0212283Y0171375D01*
X0211572Y0171468D01*
D02*
G37*
G36*
X0255572D02*
X0252127D01*
X0251416Y0171375D01*
X0250754Y0171100D01*
X0250186Y0170664D01*
X0249749Y0170095D01*
X0249475Y0169433D01*
X0249381Y0168722D01*
Y0165278D01*
X0249475Y0164567D01*
X0249749Y0163905D01*
X0250186Y0163336D01*
X0250754Y0162899D01*
X0251416Y0162625D01*
X0252127Y0162532D01*
X0255572D01*
X0256283Y0162625D01*
X0256945Y0162899D01*
X0257514Y0163336D01*
X0257950Y0163905D01*
X0258225Y0164567D01*
X0258318Y0165278D01*
Y0168722D01*
X0258225Y0169433D01*
X0257950Y0170095D01*
X0257514Y0170664D01*
X0256945Y0171100D01*
X0256283Y0171375D01*
X0255572Y0171468D01*
D02*
G37*
G36*
X0209850Y0181483D02*
X0208689Y0181330D01*
X0207608Y0180883D01*
X0206680Y0180170D01*
X0205967Y0179242D01*
X0205519Y0178160D01*
X0205366Y0177000D01*
X0205519Y0175840D01*
X0205967Y0174758D01*
X0206680Y0173830D01*
X0207608Y0173117D01*
X0208689Y0172669D01*
X0209850Y0172517D01*
X0211010Y0172669D01*
X0212091Y0173117D01*
X0213020Y0173830D01*
X0213732Y0174758D01*
X0214180Y0175840D01*
X0214333Y0177000D01*
X0214180Y0178160D01*
X0213732Y0179242D01*
X0213020Y0180170D01*
X0212091Y0180883D01*
X0211010Y0181330D01*
X0209850Y0181483D01*
D02*
G37*
G36*
X0253850D02*
X0252689Y0181330D01*
X0251608Y0180883D01*
X0250680Y0180170D01*
X0249967Y0179242D01*
X0249519Y0178160D01*
X0249366Y0177000D01*
X0249519Y0175840D01*
X0249967Y0174758D01*
X0250680Y0173830D01*
X0251608Y0173117D01*
X0252689Y0172669D01*
X0253850Y0172517D01*
X0255010Y0172669D01*
X0256091Y0173117D01*
X0257020Y0173830D01*
X0257732Y0174758D01*
X0258180Y0175840D01*
X0258333Y0177000D01*
X0258180Y0178160D01*
X0257732Y0179242D01*
X0257020Y0180170D01*
X0256091Y0180883D01*
X0255010Y0181330D01*
X0253850Y0181483D01*
D02*
G37*
G36*
X0165850D02*
X0164689Y0181330D01*
X0163608Y0180883D01*
X0162680Y0180170D01*
X0161967Y0179242D01*
X0161519Y0178160D01*
X0161366Y0177000D01*
X0161519Y0175840D01*
X0161967Y0174758D01*
X0162680Y0173830D01*
X0163608Y0173117D01*
X0164689Y0172669D01*
X0165850Y0172517D01*
X0167010Y0172669D01*
X0168091Y0173117D01*
X0169020Y0173830D01*
X0169732Y0174758D01*
X0170180Y0175840D01*
X0170333Y0177000D01*
X0170180Y0178160D01*
X0169732Y0179242D01*
X0169020Y0180170D01*
X0168091Y0180883D01*
X0167010Y0181330D01*
X0165850Y0181483D01*
D02*
G37*
G36*
X0225350Y0173023D02*
X0224575Y0172869D01*
X0223919Y0172431D01*
X0223481Y0171774D01*
X0223326Y0171000D01*
X0223481Y0170226D01*
X0223919Y0169569D01*
X0224575Y0169131D01*
X0225350Y0168977D01*
X0226124Y0169131D01*
X0226780Y0169569D01*
X0227219Y0170226D01*
X0227373Y0171000D01*
X0227219Y0171774D01*
X0226780Y0172431D01*
X0226124Y0172869D01*
X0225350Y0173023D01*
D02*
G37*
G36*
X0270850Y0177523D02*
X0270075Y0177369D01*
X0269419Y0176930D01*
X0268981Y0176274D01*
X0268827Y0175500D01*
X0268981Y0174726D01*
X0269419Y0174069D01*
X0270075Y0173631D01*
X0270507Y0173545D01*
D01*
X0270709Y0173505D01*
Y0173500D01*
Y0173478D01*
Y0173439D01*
Y0173061D01*
Y0173022D01*
Y0173000D01*
Y0172995D01*
X0270507Y0172955D01*
X0270507D01*
X0270075Y0172869D01*
X0269419Y0172431D01*
X0268981Y0171774D01*
X0268827Y0171000D01*
X0268981Y0170226D01*
X0269419Y0169569D01*
X0270075Y0169131D01*
X0270850Y0168977D01*
X0271624Y0169131D01*
X0272280Y0169569D01*
X0272719Y0170226D01*
X0272873Y0171000D01*
X0272719Y0171774D01*
X0272280Y0172431D01*
X0271624Y0172869D01*
X0271192Y0172955D01*
D01*
X0270990Y0172995D01*
Y0173000D01*
Y0173022D01*
Y0173061D01*
Y0173439D01*
Y0173478D01*
Y0173500D01*
Y0173505D01*
X0271192Y0173545D01*
X0271192D01*
X0271624Y0173631D01*
X0272280Y0174069D01*
X0272719Y0174726D01*
X0272873Y0175500D01*
X0272719Y0176274D01*
X0272280Y0176930D01*
X0271624Y0177369D01*
X0270850Y0177523D01*
D02*
G37*
%LPD*%
D25*
X0223768Y0215665D02*
X0264268D01*
X0265268Y0214665D01*
D31*
X0112811Y0111811D02*
D03*
Y0245669D02*
D03*
X0286039D02*
D03*
Y0111811D02*
D03*
D32*
X0148244Y0233858D02*
D03*
X0179740D02*
D03*
D33*
X0209850Y0167000D02*
D03*
X0165850D02*
D03*
X0122350Y0167000D02*
D03*
X0253850Y0167000D02*
D03*
D34*
X0209850Y0177000D02*
D03*
X0165850D02*
D03*
X0122350Y0177000D02*
D03*
X0253850Y0177000D02*
D03*
D35*
X0215173Y0114173D02*
D03*
X0223047D02*
D03*
X0262417D02*
D03*
X0254543D02*
D03*
X0136433D02*
D03*
X0144307D02*
D03*
X0183677D02*
D03*
X0175803D02*
D03*
D36*
X0223768Y0215665D02*
D03*
X0265268Y0214665D02*
D03*
X0235268Y0189665D02*
D03*
X0238268D02*
D03*
X0241268D02*
D03*
Y0186665D02*
D03*
X0238268D02*
D03*
X0235268D02*
D03*
X0236768Y0198665D02*
D03*
X0239768D02*
D03*
Y0201665D02*
D03*
X0236768D02*
D03*
Y0204665D02*
D03*
X0239768D02*
D03*
Y0207665D02*
D03*
X0236768D02*
D03*
Y0210665D02*
D03*
X0239768D02*
D03*
X0140350Y0152500D02*
D03*
X0136850D02*
D03*
Y0145500D02*
D03*
X0137850Y0171000D02*
D03*
Y0176000D02*
D03*
X0151350Y0166500D02*
D03*
Y0174500D02*
D03*
X0151850Y0156500D02*
D03*
Y0153000D02*
D03*
Y0149500D02*
D03*
Y0145500D02*
D03*
X0275768Y0239165D02*
D03*
X0270768D02*
D03*
Y0235665D02*
D03*
X0273268Y0239165D02*
D03*
X0275768Y0235665D02*
D03*
X0273268D02*
D03*
X0195850Y0145500D02*
D03*
Y0149500D02*
D03*
Y0153000D02*
D03*
Y0156500D02*
D03*
X0195350Y0174500D02*
D03*
Y0170500D02*
D03*
Y0166500D02*
D03*
X0181850Y0176000D02*
D03*
Y0171000D02*
D03*
X0180850Y0145500D02*
D03*
Y0152500D02*
D03*
Y0149000D02*
D03*
X0184350Y0152500D02*
D03*
X0227850D02*
D03*
X0224350Y0149000D02*
D03*
Y0152500D02*
D03*
Y0145500D02*
D03*
X0225350Y0171000D02*
D03*
Y0176000D02*
D03*
X0238850Y0166500D02*
D03*
Y0170500D02*
D03*
Y0174500D02*
D03*
X0239350Y0156500D02*
D03*
Y0153000D02*
D03*
Y0149500D02*
D03*
Y0145500D02*
D03*
X0284850D02*
D03*
Y0149500D02*
D03*
Y0153000D02*
D03*
Y0156500D02*
D03*
X0284350Y0174500D02*
D03*
Y0170500D02*
D03*
Y0166500D02*
D03*
X0270850Y0175500D02*
D03*
X0269850Y0145500D02*
D03*
Y0152500D02*
D03*
Y0149000D02*
D03*
X0273350Y0152500D02*
D03*
X0270850Y0171000D02*
D03*
X0151350Y0170500D02*
D03*
X0116354Y0153150D02*
D03*
X0159661D02*
D03*
X0203362D02*
D03*
X0248244D02*
D03*
X0249646Y0235272D02*
D03*
X0252146D02*
D03*
X0249646Y0238772D02*
D03*
X0247146Y0235272D02*
D03*
Y0238772D02*
D03*
X0252146D02*
D03*
X0139583Y0242913D02*
D03*
Y0240157D02*
D03*
Y0237402D02*
D03*
Y0234646D02*
D03*
Y0231890D02*
D03*
Y0229134D02*
D03*
Y0226378D02*
D03*
Y0223622D02*
D03*
X0156905Y0242913D02*
D03*
Y0240157D02*
D03*
Y0237402D02*
D03*
Y0234646D02*
D03*
Y0231890D02*
D03*
Y0229134D02*
D03*
Y0226378D02*
D03*
Y0223622D02*
D03*
X0215610Y0134173D02*
D03*
Y0131173D02*
D03*
Y0128173D02*
D03*
Y0125173D02*
D03*
Y0122173D02*
D03*
X0222610Y0134173D02*
D03*
Y0131173D02*
D03*
Y0128173D02*
D03*
Y0125173D02*
D03*
Y0122173D02*
D03*
X0231610Y0134173D02*
D03*
Y0131173D02*
D03*
Y0128173D02*
D03*
Y0125173D02*
D03*
Y0122173D02*
D03*
X0206610Y0134173D02*
D03*
Y0131173D02*
D03*
Y0128173D02*
D03*
Y0125173D02*
D03*
Y0122173D02*
D03*
X0245980D02*
D03*
Y0125173D02*
D03*
Y0128173D02*
D03*
Y0131173D02*
D03*
Y0134173D02*
D03*
X0270980Y0122173D02*
D03*
Y0125173D02*
D03*
Y0128173D02*
D03*
Y0131173D02*
D03*
Y0134173D02*
D03*
X0261980Y0122173D02*
D03*
Y0125173D02*
D03*
Y0128173D02*
D03*
Y0131173D02*
D03*
Y0134173D02*
D03*
X0254980Y0122173D02*
D03*
Y0125173D02*
D03*
Y0128173D02*
D03*
Y0131173D02*
D03*
Y0134173D02*
D03*
X0136870D02*
D03*
Y0131173D02*
D03*
Y0128173D02*
D03*
Y0125173D02*
D03*
Y0122173D02*
D03*
X0143870Y0134173D02*
D03*
Y0131173D02*
D03*
Y0128173D02*
D03*
Y0125173D02*
D03*
Y0122173D02*
D03*
X0152870Y0134173D02*
D03*
Y0131173D02*
D03*
Y0128173D02*
D03*
Y0125173D02*
D03*
Y0122173D02*
D03*
X0127870Y0134173D02*
D03*
Y0131173D02*
D03*
Y0128173D02*
D03*
Y0125173D02*
D03*
Y0122173D02*
D03*
X0167240D02*
D03*
Y0125173D02*
D03*
Y0128173D02*
D03*
Y0131173D02*
D03*
Y0134173D02*
D03*
X0192240Y0122173D02*
D03*
Y0125173D02*
D03*
Y0128173D02*
D03*
Y0131173D02*
D03*
Y0134173D02*
D03*
X0183240Y0122173D02*
D03*
Y0125173D02*
D03*
Y0128173D02*
D03*
Y0131173D02*
D03*
Y0134173D02*
D03*
X0176240Y0122173D02*
D03*
Y0125173D02*
D03*
Y0128173D02*
D03*
Y0131173D02*
D03*
Y0134173D02*
D03*
D37*
X0232610Y0113374D02*
D03*
X0205610D02*
D03*
X0193240D02*
D03*
X0166240D02*
D03*
X0153870D02*
D03*
X0126870D02*
D03*
X0271980D02*
D03*
X0244980D02*
D03*
D38*
X0223110Y0122441D02*
D03*
X0215173D02*
D03*
X0183740D02*
D03*
X0175803D02*
D03*
X0144370D02*
D03*
X0136433D02*
D03*
X0262480D02*
D03*
X0254543D02*
D03*
M02*
