M48
;Layer_Color=6321
;FILE_FORMAT=2:5
INCH
;TYPE=PLATED
T1F00S00C0.01378
T2F00S00C0.03346
T3F00S00C0.03937
T4F00S00C0.08661
T5F00S00C0.11811
%
T01
X0127870Y0122173
Y0125173
Y0128173
Y0131173
Y0134173
X0136870
Y0131173
Y0128173
Y0125173
Y0122173
X0143870
Y0125173
Y0128173
Y0131173
Y0134173
X0152870
Y0131173
Y0128173
Y0125173
Y0122173
X0151850Y0145500
Y0149500
Y0153000
X0140350Y0152500
X0136850
Y0145500
X0116354Y0153150
X0159661
X0180850Y0152500
Y0149000
Y0145500
X0184350Y0152500
X0195850Y0153000
Y0149500
Y0145500
X0192240Y0134173
Y0131173
Y0128173
Y0125173
Y0122173
X0183240
Y0125173
Y0128173
Y0131173
Y0134173
X0176240
Y0131173
Y0128173
Y0125173
Y0122173
X0167240
Y0125173
Y0128173
Y0131173
Y0134173
X0206610
Y0131173
Y0128173
Y0125173
Y0122173
X0215610
Y0125173
Y0128173
Y0131173
Y0134173
X0222610
Y0131173
Y0128173
Y0125173
Y0122173
X0231610
Y0125173
Y0128173
Y0131173
Y0134173
X0245980
Y0131173
Y0128173
Y0125173
Y0122173
X0254980
Y0125173
Y0128173
Y0131173
Y0134173
X0261980
Y0131173
Y0128173
Y0125173
Y0122173
X0270980
Y0125173
Y0128173
Y0131173
Y0134173
X0269850Y0145500
Y0149000
Y0152500
X0273350
X0284850Y0153000
Y0149500
Y0145500
X0248244Y0153150
X0239350Y0153000
Y0149500
Y0145500
X0224350
Y0149000
Y0152500
X0227850
X0203362Y0153150
X0195850Y0156500
X0195350Y0166500
Y0170500
Y0174500
X0181850Y0176000
Y0171000
X0225350
Y0176000
X0238850Y0174500
Y0170500
Y0166500
X0239350Y0156500
X0238268Y0186665
Y0189665
X0235268
Y0186665
X0241268
Y0189665
X0239768Y0198665
X0236768
Y0201665
X0239768
Y0204665
X0236768
Y0207665
X0239768
Y0210665
X0236768
X0223768Y0215665
X0265268Y0214665
X0270768Y0235665
X0273268
X0275768
Y0239165
X0273268
X0270768
X0252146Y0238772
X0249646
X0247146
Y0235272
X0249646
X0252146
X0270850Y0175500
Y0171000
X0284350Y0170500
Y0174500
Y0166500
X0284850Y0156500
X0156905Y0223622
Y0226378
Y0229134
Y0231890
Y0234646
Y0237402
Y0240157
Y0242913
X0139583
Y0240157
Y0237402
Y0234646
Y0231890
Y0229134
Y0226378
Y0223622
X0137850Y0176000
Y0171000
X0151350Y0170500
Y0166500
Y0174500
X0151850Y0156500
T02
X0136433Y0114173
X0144307
X0175803
X0183677
X0215173
X0223047
X0254543
X0262417
T03
X0165850Y0167000
Y0177000
X0209850
Y0167000
X0253850
Y0177000
X0122350Y0177000
Y0167000
T04
X0112811Y0111811
X0286039
Y0245669
X0112811
T05
X0179740Y0233858
X0148244
M30
