G04 Layer_Color=15132400*
%FSAX25Y25*%
%MOIN*%
G70*
G01*
G75*
%ADD26C,0.01000*%
%ADD39C,0.00984*%
%ADD40C,0.00787*%
%ADD41C,0.00394*%
%ADD42C,0.00300*%
%ADD43C,0.00800*%
%ADD44C,0.01575*%
%ADD45C,0.00591*%
D26*
X0218791Y0178000D02*
X0221791D01*
X0174850D02*
X0177850D01*
X0130850Y0178000D02*
X0133850D01*
X0273268Y0194665D02*
Y0197665D01*
X0262850Y0178000D02*
X0265850D01*
X0120905Y0189969D02*
X0120155Y0190719D01*
X0118655D01*
X0117905Y0189969D01*
Y0186970D01*
X0118655Y0186220D01*
X0120155D01*
X0120905Y0186970D01*
Y0188470D01*
X0119405D01*
X0122404Y0189219D02*
Y0186220D01*
Y0187720D01*
X0123154Y0188470D01*
X0123904Y0189219D01*
X0124653D01*
X0129152Y0186220D02*
X0127652D01*
X0126903Y0186970D01*
Y0188470D01*
X0127652Y0189219D01*
X0129152D01*
X0129902Y0188470D01*
Y0187720D01*
X0126903D01*
X0133650Y0186220D02*
X0132151D01*
X0131401Y0186970D01*
Y0188470D01*
X0132151Y0189219D01*
X0133650D01*
X0134400Y0188470D01*
Y0187720D01*
X0131401D01*
X0135900Y0186220D02*
Y0189219D01*
X0138149D01*
X0138899Y0188470D01*
Y0186220D01*
X0144897Y0189219D02*
Y0186970D01*
X0145647Y0186220D01*
X0146396Y0186970D01*
X0147146Y0186220D01*
X0147896Y0186970D01*
Y0189219D01*
X0149395Y0190719D02*
Y0186220D01*
Y0188470D01*
X0150145Y0189219D01*
X0151645D01*
X0152394Y0188470D01*
Y0186220D01*
X0156143D02*
X0154644D01*
X0153894Y0186970D01*
Y0188470D01*
X0154644Y0189219D01*
X0156143D01*
X0156893Y0188470D01*
Y0187720D01*
X0153894D01*
X0158392Y0186220D02*
Y0189219D01*
X0160642D01*
X0161391Y0188470D01*
Y0186220D01*
X0168139D02*
Y0189969D01*
Y0188470D01*
X0167390D01*
X0168889D01*
X0168139D01*
Y0189969D01*
X0168889Y0190719D01*
X0171138Y0189219D02*
Y0186970D01*
X0171888Y0186220D01*
X0174137D01*
Y0189219D01*
X0175637Y0186220D02*
X0177136D01*
X0176387D01*
Y0190719D01*
X0175637D01*
X0179386Y0186220D02*
X0180885D01*
X0180135D01*
Y0190719D01*
X0179386D01*
X0117905Y0199050D02*
Y0194551D01*
X0120155D01*
X0120905Y0195301D01*
Y0196051D01*
X0120155Y0196800D01*
X0117905D01*
X0120155D01*
X0120905Y0197550D01*
Y0198300D01*
X0120155Y0199050D01*
X0117905D01*
X0122404Y0194551D02*
X0123904D01*
X0123154D01*
Y0199050D01*
X0122404D01*
X0126153Y0197550D02*
Y0195301D01*
X0126903Y0194551D01*
X0129152D01*
Y0197550D01*
X0132901Y0194551D02*
X0131401D01*
X0130651Y0195301D01*
Y0196800D01*
X0131401Y0197550D01*
X0132901D01*
X0133650Y0196800D01*
Y0196051D01*
X0130651D01*
X0139648Y0197550D02*
Y0195301D01*
X0140398Y0194551D01*
X0141148Y0195301D01*
X0141898Y0194551D01*
X0142648Y0195301D01*
Y0197550D01*
X0144147Y0199050D02*
Y0194551D01*
Y0196800D01*
X0144897Y0197550D01*
X0146396D01*
X0147146Y0196800D01*
Y0194551D01*
X0150895D02*
X0149395D01*
X0148646Y0195301D01*
Y0196800D01*
X0149395Y0197550D01*
X0150895D01*
X0151645Y0196800D01*
Y0196051D01*
X0148646D01*
X0153144Y0194551D02*
Y0197550D01*
X0155393D01*
X0156143Y0196800D01*
Y0194551D01*
X0165140Y0197550D02*
X0162891D01*
X0162141Y0196800D01*
Y0195301D01*
X0162891Y0194551D01*
X0165140D01*
X0166640Y0199050D02*
Y0194551D01*
Y0196800D01*
X0167390Y0197550D01*
X0168889D01*
X0169639Y0196800D01*
Y0194551D01*
X0171888Y0197550D02*
X0173388D01*
X0174137Y0196800D01*
Y0194551D01*
X0171888D01*
X0171138Y0195301D01*
X0171888Y0196051D01*
X0174137D01*
X0175637Y0197550D02*
Y0194551D01*
Y0196051D01*
X0176387Y0196800D01*
X0177136Y0197550D01*
X0177886D01*
X0181635Y0193052D02*
X0182385D01*
X0183134Y0193801D01*
Y0197550D01*
X0180885D01*
X0180135Y0196800D01*
Y0195301D01*
X0180885Y0194551D01*
X0183134D01*
X0184634D02*
X0186134D01*
X0185384D01*
Y0197550D01*
X0184634D01*
X0188383Y0194551D02*
Y0197550D01*
X0190632D01*
X0191382Y0196800D01*
Y0194551D01*
X0194381Y0193052D02*
X0195131D01*
X0195880Y0193801D01*
Y0197550D01*
X0193631D01*
X0192881Y0196800D01*
Y0195301D01*
X0193631Y0194551D01*
X0195880D01*
X0282102Y0210630D02*
X0277379D01*
Y0212991D01*
X0278167Y0213778D01*
X0279741D01*
X0280528Y0212991D01*
Y0210630D01*
X0277379Y0215353D02*
X0282102D01*
X0280528Y0216927D01*
X0282102Y0218501D01*
X0277379D01*
X0282102Y0220076D02*
X0277379D01*
Y0222437D01*
X0278167Y0223224D01*
X0279741D01*
X0280528Y0222437D01*
Y0220076D01*
Y0221650D02*
X0282102Y0223224D01*
X0228110Y0114172D02*
X0232109D01*
X0230110Y0116172D02*
Y0112173D01*
X0206110Y0114172D02*
X0210109D01*
X0245480D02*
X0249479D01*
X0267480D02*
X0271479D01*
X0269480Y0116172D02*
Y0112173D01*
X0149370Y0114172D02*
X0153369D01*
X0151369Y0116172D02*
Y0112173D01*
X0127370Y0114172D02*
X0131369D01*
X0166740D02*
X0170739D01*
X0188740D02*
X0192739D01*
X0190740Y0116172D02*
Y0112173D01*
D39*
X0224657Y0156775D02*
G03*
X0224657Y0156775I-0000492J0000000D01*
G01*
X0180657D02*
G03*
X0180657Y0156775I-0000492J0000000D01*
G01*
X0136766Y0156650D02*
G03*
X0136766Y0156650I-0000492J0000000D01*
G01*
X0229114Y0215768D02*
G03*
X0229114Y0215768I-0000492J0000000D01*
G01*
X0190862Y0203937D02*
G03*
X0190862Y0203937I-0000492J0000000D01*
G01*
X0269657Y0156775D02*
G03*
X0269657Y0156775I-0000492J0000000D01*
G01*
D40*
X0225247Y0162878D02*
X0237452D01*
X0225247Y0160122D02*
X0237452D01*
Y0162878D01*
X0225247Y0160122D02*
Y0162878D01*
X0181247D02*
X0193452D01*
X0181247Y0160122D02*
X0193452D01*
Y0162878D01*
X0181247Y0160122D02*
Y0162878D01*
X0137357Y0162752D02*
X0149562D01*
X0137357Y0159996D02*
X0149562D01*
Y0162752D01*
X0137357Y0159996D02*
Y0162752D01*
X0235118Y0194882D02*
Y0214567D01*
X0241417Y0194882D02*
Y0214567D01*
X0235118D02*
X0241417D01*
X0235118Y0194882D02*
X0241417D01*
X0201000Y0210433D02*
X0203598D01*
Y0207224D02*
Y0210433D01*
X0192102D02*
X0194701D01*
X0192102Y0207224D02*
Y0210433D01*
X0270247Y0162878D02*
X0282452D01*
X0270247Y0160122D02*
X0282452D01*
Y0162878D01*
X0270247Y0160122D02*
Y0162878D01*
D41*
X0214850Y0162000D02*
Y0182000D01*
X0204850Y0162000D02*
X0214850D01*
X0204850D02*
Y0182000D01*
X0214850D01*
X0170850Y0162000D02*
Y0182000D01*
X0160850Y0162000D02*
X0170850D01*
X0160850D02*
Y0182000D01*
X0170850D01*
X0127350Y0162000D02*
Y0182000D01*
X0117350Y0162000D02*
X0127350D01*
X0117350D02*
Y0182000D01*
X0127350D01*
X0258850Y0162000D02*
Y0182000D01*
X0248850Y0162000D02*
X0258850D01*
X0248850D02*
Y0182000D01*
X0258850D01*
D42*
X0242323Y0228220D02*
Y0229913D01*
Y0218417D02*
Y0220110D01*
X0224213Y0218417D02*
Y0220110D01*
Y0228220D02*
Y0229913D01*
Y0218417D02*
X0242323D01*
X0224213Y0229913D02*
X0242323D01*
X0235268Y0218417D02*
Y0229913D01*
D43*
X0234420Y0227165D02*
X0230921D01*
Y0225416D01*
X0231504Y0224833D01*
X0233837D01*
X0234420Y0225416D01*
Y0227165D01*
X0233837Y0223666D02*
X0234420Y0223083D01*
Y0221917D01*
X0233837Y0221334D01*
X0231504D01*
X0230921Y0221917D01*
Y0223083D01*
X0231504Y0223666D01*
X0233837D01*
X0256118Y0232239D02*
Y0228740D01*
X0258451D01*
X0259617D02*
X0260783D01*
X0260200D01*
Y0232239D01*
X0259617Y0231656D01*
X0240267Y0206724D02*
X0237351D01*
X0236768Y0206141D01*
Y0204975D01*
X0237351Y0204392D01*
X0240267D01*
X0239683Y0203225D02*
X0240267Y0202642D01*
Y0201476D01*
X0239683Y0200893D01*
X0237351D01*
X0236768Y0201476D01*
Y0202642D01*
X0237351Y0203225D01*
X0239683D01*
D44*
X0177378Y0211810D02*
X0182626D01*
X0180002Y0214434D02*
Y0209186D01*
X0145882Y0211810D02*
X0151129D01*
D45*
X-0024591Y0270472D02*
X-0023410Y0271653D01*
X-0024591Y0272834D01*
X0255724Y0155905D02*
X0256905Y0157086D01*
X0255724Y0158267D01*
X0256906Y0153150D02*
X0255725Y0151969D01*
X0256906Y0150788D01*
X0212024Y0153150D02*
X0210843Y0151969D01*
X0212024Y0150788D01*
X0210842Y0155905D02*
X0212023Y0157086D01*
X0210842Y0158267D01*
X0168323Y0153150D02*
X0167142Y0151969D01*
X0168323Y0150788D01*
X0167142Y0155905D02*
X0168322Y0157086D01*
X0167142Y0158267D01*
X0125016Y0152756D02*
X0123835Y0151575D01*
X0125016Y0150394D01*
X0123835Y0155512D02*
X0125015Y0156693D01*
X0123835Y0157873D01*
M02*
