G04 Layer_Color=8150272*
%FSAX25Y25*%
%MOIN*%
G70*
G01*
G75*
%ADD60C,0.16548*%
G04:AMPARAMS|DCode=61|XSize=204.85mil|YSize=322.96mil|CornerRadius=53.21mil|HoleSize=0mil|Usage=FLASHONLY|Rotation=0.000|XOffset=0mil|YOffset=0mil|HoleType=Round|Shape=RoundedRectangle|*
%AMROUNDEDRECTD61*
21,1,0.20485,0.21654,0,0,0.0*
21,1,0.09843,0.32296,0,0,0.0*
1,1,0.10642,0.04921,-0.10827*
1,1,0.10642,-0.04921,-0.10827*
1,1,0.10642,-0.04921,0.10827*
1,1,0.10642,0.04921,0.10827*
%
%ADD61ROUNDEDRECTD61*%
G04:AMPARAMS|DCode=62|XSize=76.9mil|YSize=76.9mil|CornerRadius=21.22mil|HoleSize=0mil|Usage=FLASHONLY|Rotation=270.000|XOffset=0mil|YOffset=0mil|HoleType=Round|Shape=RoundedRectangle|*
%AMROUNDEDRECTD62*
21,1,0.07690,0.03445,0,0,270.0*
21,1,0.03445,0.07690,0,0,270.0*
1,1,0.04245,-0.01722,-0.01722*
1,1,0.04245,-0.01722,0.01722*
1,1,0.04245,0.01722,0.01722*
1,1,0.04245,0.01722,-0.01722*
%
%ADD62ROUNDEDRECTD62*%
%ADD63C,0.07690*%
%ADD64C,0.07099*%
%ADD65C,0.02769*%
%ADD66R,0.08280X0.14200*%
%ADD67R,0.04800X0.22453*%
D60*
X0112811Y0111811D02*
D03*
Y0245669D02*
D03*
X0286039D02*
D03*
Y0111811D02*
D03*
D61*
X0148244Y0233858D02*
D03*
X0179740D02*
D03*
D62*
X0209850Y0167000D02*
D03*
X0165850D02*
D03*
X0122350Y0167000D02*
D03*
X0253850Y0167000D02*
D03*
D63*
X0209850Y0177000D02*
D03*
X0165850D02*
D03*
X0122350Y0177000D02*
D03*
X0253850Y0177000D02*
D03*
D64*
X0215173Y0114173D02*
D03*
X0223047D02*
D03*
X0262417D02*
D03*
X0254543D02*
D03*
X0136433D02*
D03*
X0144307D02*
D03*
X0183677D02*
D03*
X0175803D02*
D03*
D65*
X0139583Y0242913D02*
D03*
Y0240157D02*
D03*
Y0237402D02*
D03*
Y0234646D02*
D03*
Y0231890D02*
D03*
Y0229134D02*
D03*
Y0226378D02*
D03*
Y0223622D02*
D03*
X0156905Y0242913D02*
D03*
Y0240157D02*
D03*
Y0237402D02*
D03*
Y0234646D02*
D03*
Y0231890D02*
D03*
Y0229134D02*
D03*
Y0226378D02*
D03*
Y0223622D02*
D03*
D66*
X0232610Y0113374D02*
D03*
X0205610D02*
D03*
X0193240D02*
D03*
X0166240D02*
D03*
X0153870D02*
D03*
X0126870D02*
D03*
X0271980D02*
D03*
X0244980D02*
D03*
D67*
X0223110Y0122441D02*
D03*
X0215173D02*
D03*
X0183740D02*
D03*
X0175803D02*
D03*
X0144370D02*
D03*
X0136433D02*
D03*
X0262480D02*
D03*
X0254543D02*
D03*
M02*
