G04 Layer_Physical_Order=1*
G04 Layer_Color=25308*
%FSAX25Y25*%
%MOIN*%
G70*
G01*
G75*
G04:AMPARAMS|DCode=10|XSize=118.11mil|YSize=196.85mil|CornerRadius=29.53mil|HoleSize=0mil|Usage=FLASHONLY|Rotation=0.000|XOffset=0mil|YOffset=0mil|HoleType=Round|Shape=RoundedRectangle|*
%AMROUNDEDRECTD10*
21,1,0.11811,0.13780,0,0,0.0*
21,1,0.05906,0.19685,0,0,0.0*
1,1,0.05906,0.02953,-0.06890*
1,1,0.05906,-0.02953,-0.06890*
1,1,0.05906,-0.02953,0.06890*
1,1,0.05906,0.02953,0.06890*
%
%ADD10ROUNDEDRECTD10*%
%ADD11C,0.03937*%
%ADD12R,0.02559X0.03543*%
%ADD13R,0.03740X0.03150*%
%ADD14R,0.03347X0.02756*%
%ADD15R,0.04134X0.03543*%
%ADD16R,0.03150X0.03150*%
%ADD17R,0.03150X0.03150*%
%ADD18R,0.03347X0.03543*%
%ADD19R,0.03543X0.03347*%
%ADD20O,0.09843X0.02756*%
%ADD21R,0.09843X0.06693*%
%ADD22R,0.03150X0.03543*%
%ADD23R,0.03543X0.04134*%
%ADD24R,0.16535X0.05512*%
%ADD25C,0.01181*%
%ADD26C,0.01000*%
%ADD27C,0.01378*%
%ADD28C,0.03150*%
%ADD29C,0.02362*%
%ADD30C,0.03937*%
%ADD31C,0.15748*%
G04:AMPARAMS|DCode=32|XSize=196.85mil|YSize=314.96mil|CornerRadius=49.21mil|HoleSize=0mil|Usage=FLASHONLY|Rotation=0.000|XOffset=0mil|YOffset=0mil|HoleType=Round|Shape=RoundedRectangle|*
%AMROUNDEDRECTD32*
21,1,0.19685,0.21654,0,0,0.0*
21,1,0.09843,0.31496,0,0,0.0*
1,1,0.09843,0.04921,-0.10827*
1,1,0.09843,-0.04921,-0.10827*
1,1,0.09843,-0.04921,0.10827*
1,1,0.09843,0.04921,0.10827*
%
%ADD32ROUNDEDRECTD32*%
G04:AMPARAMS|DCode=33|XSize=68.9mil|YSize=68.9mil|CornerRadius=17.22mil|HoleSize=0mil|Usage=FLASHONLY|Rotation=270.000|XOffset=0mil|YOffset=0mil|HoleType=Round|Shape=RoundedRectangle|*
%AMROUNDEDRECTD33*
21,1,0.06890,0.03445,0,0,270.0*
21,1,0.03445,0.06890,0,0,270.0*
1,1,0.03445,-0.01722,-0.01722*
1,1,0.03445,-0.01722,0.01722*
1,1,0.03445,0.01722,0.01722*
1,1,0.03445,0.01722,-0.01722*
%
%ADD33ROUNDEDRECTD33*%
%ADD34C,0.06890*%
%ADD35C,0.06299*%
%ADD36C,0.01969*%
G36*
X0153350Y0180500D02*
X0153350Y0164354D01*
X0152996Y0164000D01*
X0145850D01*
Y0180146D01*
X0146203Y0180500D01*
X0153350Y0180500D01*
D02*
G37*
G36*
X0286350Y0180500D02*
X0286350Y0164354D01*
X0285996Y0164000D01*
X0278397Y0164000D01*
Y0174409D01*
X0278397Y0174409D01*
X0278397Y0180146D01*
X0278751Y0180500D01*
X0286350Y0180500D01*
D02*
G37*
G36*
X0197350Y0180500D02*
X0197350Y0164354D01*
X0196996Y0164000D01*
X0189850D01*
Y0180146D01*
X0190203Y0180500D01*
X0197350Y0180500D01*
D02*
G37*
G36*
X0216830Y0177500D02*
Y0169000D01*
X0216908Y0168610D01*
X0216955Y0168539D01*
X0216638Y0167631D01*
X0216432Y0167358D01*
X0214318D01*
Y0168722D01*
X0214224Y0169433D01*
X0213950Y0170095D01*
X0213514Y0170664D01*
X0212945Y0171100D01*
X0212283Y0171375D01*
X0211572Y0171468D01*
X0210935D01*
X0210858Y0172649D01*
X0211010Y0172669D01*
X0212091Y0173117D01*
X0213020Y0173830D01*
X0213732Y0174758D01*
X0214180Y0175840D01*
X0214333Y0177000D01*
X0214299Y0177254D01*
X0215078Y0178142D01*
X0215764D01*
X0216830Y0177500D01*
D02*
G37*
G36*
X0241203Y0180709D02*
X0241203Y0164354D01*
X0240850Y0164000D01*
X0233830D01*
Y0168679D01*
X0233840Y0168694D01*
X0233840Y0168694D01*
X0233840Y0168695D01*
X0233879Y0168890D01*
X0233917Y0169084D01*
X0233917Y0169085D01*
X0233917Y0169085D01*
X0233909Y0174401D01*
Y0180355D01*
X0234263Y0180709D01*
X0241203Y0180709D01*
D02*
G37*
G36*
X0146555Y0158402D02*
X0148492D01*
X0148513Y0158343D01*
X0148537Y0158224D01*
X0148581Y0158158D01*
X0148609Y0158082D01*
X0148691Y0157994D01*
X0148758Y0157894D01*
X0148825Y0157849D01*
X0148879Y0157790D01*
X0149203Y0157554D01*
X0149344Y0157489D01*
X0149479Y0157412D01*
X0150336Y0157125D01*
X0150401Y0157116D01*
X0150461Y0157091D01*
X0150596D01*
X0150730Y0157074D01*
X0150794Y0157091D01*
X0150859D01*
X0150984Y0157143D01*
X0151114Y0157179D01*
X0151166Y0157219D01*
X0151226Y0157244D01*
X0151473Y0157409D01*
X0151850Y0157483D01*
X0152226Y0157409D01*
X0152545Y0157195D01*
X0152758Y0156876D01*
X0152833Y0156500D01*
X0152746Y0156061D01*
X0152737Y0156039D01*
X0152666Y0155908D01*
X0152403Y0155048D01*
X0152393Y0154946D01*
X0152363Y0154847D01*
X0152373Y0154750D01*
X0152363Y0154653D01*
X0152393Y0154554D01*
X0152403Y0154452D01*
X0152666Y0153592D01*
X0152737Y0153461D01*
X0152746Y0153438D01*
X0152833Y0153000D01*
X0152746Y0152561D01*
X0152737Y0152539D01*
X0152666Y0152408D01*
X0152403Y0151548D01*
X0152393Y0151446D01*
X0152363Y0151347D01*
X0152373Y0151250D01*
X0152363Y0151153D01*
X0152393Y0151054D01*
X0152403Y0150952D01*
X0152666Y0150092D01*
X0152737Y0149961D01*
X0152746Y0149938D01*
X0152833Y0149500D01*
X0152758Y0149124D01*
X0152432Y0148636D01*
X0152394Y0148543D01*
X0152338Y0148460D01*
X0152319Y0148361D01*
X0152280Y0148268D01*
Y0148168D01*
X0152261Y0148069D01*
Y0146931D01*
X0152280Y0146832D01*
Y0146732D01*
X0152319Y0146639D01*
X0152338Y0146540D01*
X0152394Y0146457D01*
X0152432Y0146364D01*
X0152758Y0145876D01*
X0152833Y0145500D01*
X0152758Y0145124D01*
X0152545Y0144805D01*
X0152226Y0144591D01*
X0151850Y0144516D01*
X0151473Y0144591D01*
X0151154Y0144805D01*
X0150941Y0145124D01*
X0150836Y0145652D01*
Y0145746D01*
X0150828Y0145766D01*
X0150827Y0145789D01*
X0150752Y0145950D01*
X0150684Y0146114D01*
X0150668Y0146129D01*
X0150659Y0146149D01*
X0149794Y0147330D01*
X0149736Y0147384D01*
X0149692Y0147449D01*
X0149591Y0147517D01*
X0149501Y0147599D01*
X0149427Y0147626D01*
X0149362Y0147670D01*
X0149242Y0147694D01*
X0149128Y0147736D01*
X0149049Y0147732D01*
X0148972Y0147748D01*
X0145874D01*
X0145851Y0158094D01*
X0145917Y0158176D01*
X0146350Y0158443D01*
X0146555Y0158402D01*
D02*
G37*
G36*
X0197481Y0138408D02*
X0192843Y0134157D01*
X0192852Y0133859D01*
X0192504Y0133500D01*
X0185526Y0133500D01*
X0184825Y0134353D01*
X0184825D01*
X0184757Y0134354D01*
X0182931Y0136202D01*
X0182860Y0138954D01*
X0189970Y0144875D01*
X0189853Y0158145D01*
X0190205Y0158500D01*
X0197350Y0158500D01*
X0197481Y0138408D01*
D02*
G37*
G36*
X0240848Y0158145D02*
X0240764Y0140945D01*
X0232102Y0130315D01*
X0232000Y0128000D01*
X0224622Y0128000D01*
Y0135677D01*
X0234057Y0147390D01*
X0234125Y0158500D01*
X0240495Y0158500D01*
X0240848Y0158145D01*
D02*
G37*
G36*
X0151962Y0137700D02*
X0152676Y0137405D01*
X0153289Y0136934D01*
X0153350Y0136855D01*
Y0134500D01*
X0147416Y0134500D01*
X0147063Y0134853D01*
Y0135433D01*
X0143541D01*
X0143030Y0135949D01*
X0143046Y0136735D01*
X0143199Y0136934D01*
X0143812Y0137405D01*
X0144526Y0137700D01*
X0145358Y0137810D01*
X0151130D01*
X0151962Y0137700D01*
D02*
G37*
G36*
X0273072Y0141600D02*
X0270384Y0138675D01*
X0270339Y0138693D01*
X0269307Y0138829D01*
X0263402D01*
X0262963Y0138772D01*
X0262411Y0139890D01*
X0265202Y0142681D01*
X0268703D01*
X0268703D01*
X0272597Y0142681D01*
X0273072Y0141600D01*
D02*
G37*
G36*
X0285993Y0158143D02*
X0285646Y0140945D01*
X0272641Y0126000D01*
X0269158D01*
X0267143D01*
X0266790Y0126354D01*
X0266796Y0128110D01*
X0266603Y0130070D01*
X0266032Y0131955D01*
X0265103Y0133692D01*
X0263853Y0135215D01*
X0263853D01*
X0263785Y0135215D01*
X0262485Y0136539D01*
X0262678Y0137000D01*
X0270230Y0137000D01*
X0278977Y0146518D01*
X0278922Y0158145D01*
X0279274Y0158500D01*
X0285643Y0158500D01*
X0285993Y0158143D01*
D02*
G37*
G36*
X0261330Y0177500D02*
Y0170181D01*
X0261330Y0169000D01*
Y0169000D01*
X0261220Y0167865D01*
X0261138Y0167631D01*
X0260932Y0167358D01*
X0258318D01*
Y0168722D01*
X0258225Y0169433D01*
X0257950Y0170095D01*
X0257514Y0170664D01*
X0256945Y0171100D01*
X0256283Y0171375D01*
X0255572Y0171468D01*
X0254935D01*
X0254858Y0172649D01*
X0255010Y0172669D01*
X0256091Y0173117D01*
X0257020Y0173830D01*
X0257732Y0174758D01*
X0258180Y0175840D01*
X0258333Y0177000D01*
X0258299Y0177254D01*
X0259078Y0178142D01*
X0260264D01*
X0261330Y0177500D01*
D02*
G37*
G36*
X0276633Y0240888D02*
X0277378Y0239895D01*
Y0233494D01*
X0242622Y0233410D01*
X0242522Y0240671D01*
X0242874Y0241026D01*
X0276633Y0240888D01*
D02*
G37*
G36*
X0265961Y0222047D02*
X0261768Y0217854D01*
X0261768Y0213165D01*
X0259268Y0210665D01*
X0244768D01*
Y0213312D01*
X0245121Y0213665D01*
X0254035Y0213665D01*
X0254543Y0214173D01*
X0254543Y0218437D01*
X0251942Y0221260D01*
X0245100Y0221260D01*
X0245095Y0225237D01*
X0245448Y0225590D01*
X0265961Y0225590D01*
X0265961Y0222047D01*
D02*
G37*
G36*
X0294886Y0255892D02*
X0295711Y0255341D01*
X0296262Y0254516D01*
X0296442Y0253609D01*
X0296429Y0253543D01*
Y0103937D01*
X0296442Y0103871D01*
X0296262Y0102964D01*
X0295711Y0102139D01*
X0294886Y0101588D01*
X0293979Y0101408D01*
X0293913Y0101421D01*
X0104937D01*
X0104871Y0101408D01*
X0103964Y0101588D01*
X0103139Y0102139D01*
X0102588Y0102964D01*
X0102408Y0103871D01*
X0102421Y0103937D01*
Y0253543D01*
X0102408Y0253609D01*
X0102588Y0254516D01*
X0103139Y0255341D01*
X0103964Y0255892D01*
X0104871Y0256072D01*
X0104937Y0256059D01*
X0276224D01*
X0276224Y0249440D01*
Y0245451D01*
Y0245271D01*
X0276224Y0244030D01*
Y0243976D01*
Y0243941D01*
X0276158Y0243237D01*
X0275821Y0242428D01*
X0275596Y0242141D01*
X0275587Y0242130D01*
X0275538Y0242067D01*
X0275524Y0242050D01*
X0275519Y0242045D01*
X0275464Y0241990D01*
X0275411Y0241937D01*
X0275387Y0241913D01*
X0246059Y0242033D01*
Y0242437D01*
X0240713D01*
X0240713Y0242437D01*
Y0242437D01*
X0240713D01*
X0240713Y0242437D01*
X0239595Y0242287D01*
X0239594Y0242287D01*
X0239546Y0242281D01*
X0239542Y0242281D01*
X0239538Y0242284D01*
X0239347Y0242320D01*
X0239156Y0242358D01*
X0238656Y0242358D01*
X0238656Y0242358D01*
X0238656Y0242358D01*
X0215732Y0242358D01*
X0215025Y0242358D01*
X0214991Y0242352D01*
X0214958Y0242356D01*
X0214800Y0242319D01*
X0214634Y0242281D01*
X0214634D01*
X0213637Y0242752D01*
X0213516Y0242846D01*
X0213127Y0243144D01*
X0212405Y0243443D01*
X0211630Y0243545D01*
X0210855Y0243443D01*
X0210133Y0243144D01*
X0209513Y0242668D01*
X0209037Y0242048D01*
X0208738Y0241326D01*
X0208636Y0240551D01*
X0208738Y0239776D01*
X0209037Y0239054D01*
X0209042Y0239047D01*
X0209520Y0238393D01*
X0209601Y0237954D01*
X0209562Y0237861D01*
X0209507Y0237778D01*
X0209487Y0237679D01*
X0209449Y0237586D01*
X0209449Y0237486D01*
X0209429Y0237388D01*
X0209429Y0217046D01*
X0208480D01*
X0208480Y0211649D01*
X0208315Y0211484D01*
X0207680Y0210862D01*
X0207492Y0210822D01*
X0207303Y0210784D01*
X0207297Y0210781D01*
X0207291Y0210780D01*
X0199448Y0207418D01*
X0199293Y0207312D01*
X0199136Y0207210D01*
X0199130Y0207200D01*
X0199120Y0207193D01*
X0199018Y0207036D01*
X0198912Y0206881D01*
X0198909Y0206870D01*
X0198903Y0206860D01*
X0198869Y0206675D01*
X0198830Y0206492D01*
X0198786Y0202335D01*
X0198787Y0202332D01*
X0198786Y0202329D01*
X0198824Y0202136D01*
X0198860Y0201944D01*
X0198862Y0201941D01*
X0198862Y0201939D01*
X0198970Y0201775D01*
X0199016Y0201705D01*
Y0201165D01*
X0199560D01*
X0199600Y0201138D01*
X0199763Y0201028D01*
X0199765Y0201028D01*
X0199767Y0201027D01*
X0199960Y0200988D01*
X0200152Y0200949D01*
X0200155Y0200949D01*
X0200158Y0200949D01*
X0203074Y0200949D01*
X0203078Y0200949D01*
X0203078Y0200949D01*
X0203081D01*
X0203321Y0200949D01*
X0203335D01*
X0203345D01*
X0203345Y0200949D01*
X0203362Y0200949D01*
X0203362D01*
X0203362D01*
X0203363Y0200949D01*
X0203398Y0200956D01*
X0203431Y0200952D01*
X0203431Y0200952D01*
X0203433Y0200952D01*
X0203433D01*
X0203434Y0200951D01*
X0203434D01*
X0203434Y0200951D01*
X0203436Y0200952D01*
X0203592Y0200995D01*
X0203752Y0201027D01*
X0203783Y0201047D01*
X0203818Y0201057D01*
X0203853Y0201074D01*
X0204165Y0201165D01*
Y0201165D01*
Y0201166D01*
Y0201167D01*
Y0201167D01*
Y0201167D01*
Y0201169D01*
Y0201175D01*
Y0201175D01*
Y0201177D01*
Y0201184D01*
Y0201185D01*
Y0201192D01*
Y0201230D01*
X0206738Y0202516D01*
X0207557Y0202527D01*
X0208398Y0201697D01*
Y0201051D01*
Y0196768D01*
X0208169D01*
Y0191312D01*
X0139841Y0191175D01*
X0139813Y0191169D01*
X0139784Y0191173D01*
X0139619Y0191130D01*
X0139451Y0191097D01*
X0139427Y0191080D01*
X0139399Y0191073D01*
X0139263Y0190970D01*
X0139121Y0190875D01*
X0139105Y0190851D01*
X0139081Y0190833D01*
X0136852Y0188325D01*
X0136766Y0188179D01*
X0136672Y0188038D01*
X0136666Y0188008D01*
X0136651Y0187982D01*
X0136628Y0187814D01*
X0136594Y0187648D01*
X0136594Y0178519D01*
X0135220D01*
Y0183035D01*
X0129480D01*
Y0181986D01*
X0125613D01*
X0124954Y0181855D01*
X0124396Y0181482D01*
X0124030Y0181115D01*
X0123510Y0181331D01*
X0122350Y0181483D01*
X0121189Y0181331D01*
X0120108Y0180883D01*
X0119179Y0180170D01*
X0118467Y0179242D01*
X0118019Y0178160D01*
X0117866Y0177000D01*
X0118019Y0175840D01*
X0118467Y0174758D01*
X0119179Y0173830D01*
X0120108Y0173117D01*
X0121189Y0172669D01*
X0121342Y0172650D01*
X0121264Y0171468D01*
X0120627D01*
X0119916Y0171375D01*
X0119254Y0171100D01*
X0118686Y0170664D01*
X0118249Y0170095D01*
X0117975Y0169433D01*
X0117881Y0168722D01*
Y0165278D01*
X0117975Y0164567D01*
X0118249Y0163905D01*
X0118686Y0163336D01*
X0119254Y0162899D01*
X0119916Y0162625D01*
X0120627Y0162532D01*
X0124072D01*
X0124783Y0162625D01*
X0125445Y0162899D01*
X0126014Y0163336D01*
X0126450Y0163905D01*
X0126646Y0164377D01*
X0129480D01*
Y0163465D01*
X0135220D01*
Y0164377D01*
X0137440D01*
Y0163327D01*
X0139688D01*
X0140830Y0163178D01*
X0140830Y0160257D01*
X0139995Y0159422D01*
X0137440D01*
Y0158272D01*
X0135023D01*
Y0159142D01*
X0129877D01*
Y0159575D01*
X0118822D01*
Y0159142D01*
X0113676D01*
Y0154386D01*
Y0149858D01*
X0117901D01*
X0119019Y0149858D01*
X0119023D01*
X0119322Y0149632D01*
X0120058Y0148756D01*
X0120058Y0148756D01*
X0120169Y0148591D01*
X0120316Y0148371D01*
X0120803Y0147884D01*
X0121737Y0146950D01*
X0122233Y0146618D01*
X0122818Y0146502D01*
X0127885D01*
X0128337Y0145411D01*
X0126860Y0143935D01*
X0126379Y0143213D01*
X0126209Y0142362D01*
X0126209Y0142362D01*
Y0135613D01*
X0125815Y0135024D01*
X0125646Y0134173D01*
Y0131173D01*
Y0128173D01*
Y0125173D01*
Y0122736D01*
X0125815Y0121885D01*
X0126209Y0121296D01*
Y0120598D01*
X0126209Y0120598D01*
X0126358Y0119849D01*
Y0119685D01*
X0126436Y0119295D01*
X0126657Y0118964D01*
X0126988Y0118743D01*
X0127182Y0118704D01*
X0134054Y0111832D01*
X0134049Y0111790D01*
X0134997Y0111012D01*
X0136079Y0110434D01*
X0137252Y0110078D01*
X0138472Y0109958D01*
Y0109958D01*
X0138503Y0109988D01*
X0144307Y0109956D01*
X0145273Y0110083D01*
X0145386Y0110130D01*
X0145390Y0110130D01*
X0146400Y0110548D01*
X0147267Y0111214D01*
X0147756Y0111851D01*
X0147965Y0112047D01*
X0148402Y0112701D01*
X0148498Y0112845D01*
X0148685Y0113785D01*
Y0113785D01*
X0149144Y0114776D01*
X0150361Y0115993D01*
X0150837Y0116613D01*
X0150961Y0116912D01*
X0151029Y0117076D01*
X0151197D01*
X0152229Y0117212D01*
X0153190Y0117610D01*
X0154016Y0118244D01*
X0154649Y0119070D01*
X0155048Y0120031D01*
X0155184Y0121063D01*
Y0134843D01*
X0155048Y0135874D01*
X0154649Y0136836D01*
X0154016Y0137662D01*
X0153190Y0138295D01*
X0152229Y0138693D01*
X0151197Y0138829D01*
X0145291D01*
X0144259Y0138693D01*
X0143298Y0138295D01*
X0142472Y0137662D01*
X0141986Y0137028D01*
X0141964Y0137026D01*
X0141963Y0137027D01*
X0141963Y0137027D01*
X0141963Y0137027D01*
X0141959Y0137029D01*
X0141940Y0137042D01*
X0141940Y0137042D01*
X0141918Y0137057D01*
X0141519Y0137324D01*
X0141223Y0137382D01*
X0140994Y0137428D01*
X0140994D01*
Y0137413D01*
X0140994Y0137405D01*
Y0137402D01*
X0139815Y0137401D01*
X0138795D01*
X0138634Y0137474D01*
Y0138948D01*
X0145571Y0145885D01*
X0145791Y0146215D01*
X0145869Y0146605D01*
Y0146728D01*
X0148972D01*
X0149836Y0145547D01*
X0149827Y0145500D01*
X0149980Y0144726D01*
X0150419Y0144069D01*
X0151075Y0143631D01*
X0151850Y0143477D01*
X0152624Y0143631D01*
X0153280Y0144069D01*
X0153719Y0144726D01*
X0153873Y0145500D01*
X0153719Y0146274D01*
X0153280Y0146931D01*
Y0148069D01*
X0153719Y0148726D01*
X0153873Y0149500D01*
X0153719Y0150274D01*
X0153641Y0150390D01*
X0153378Y0151250D01*
X0153641Y0152110D01*
X0153719Y0152226D01*
X0153873Y0153000D01*
X0153719Y0153774D01*
X0153641Y0153890D01*
X0153378Y0154750D01*
X0153641Y0155610D01*
X0153719Y0155726D01*
X0153873Y0156500D01*
X0153719Y0157274D01*
X0153280Y0157931D01*
X0152624Y0158369D01*
X0151850Y0158523D01*
X0151075Y0158369D01*
X0150660Y0158091D01*
X0149803Y0158379D01*
X0149479Y0158615D01*
Y0159422D01*
X0146555D01*
X0145720Y0160257D01*
Y0162874D01*
X0145850Y0162980D01*
X0152996D01*
X0153386Y0163058D01*
X0153717Y0163279D01*
X0154071Y0163633D01*
X0154292Y0163963D01*
X0154369Y0164354D01*
X0154369Y0180500D01*
X0154292Y0180890D01*
X0154071Y0181221D01*
X0154006Y0181264D01*
X0154291Y0182445D01*
X0164437Y0182445D01*
X0164689Y0181330D01*
X0163608Y0180883D01*
X0162680Y0180170D01*
X0161967Y0179242D01*
X0161519Y0178160D01*
X0161366Y0177000D01*
X0161519Y0175840D01*
X0161967Y0174758D01*
X0162680Y0173830D01*
X0163608Y0173117D01*
X0164689Y0172669D01*
X0164842Y0172649D01*
X0164764Y0171468D01*
X0164127D01*
X0163417Y0171375D01*
X0162754Y0171100D01*
X0162186Y0170664D01*
X0161749Y0170095D01*
X0161475Y0169433D01*
X0161381Y0168722D01*
Y0165278D01*
X0161475Y0164567D01*
X0161749Y0163905D01*
X0162186Y0163336D01*
X0162754Y0162899D01*
X0163417Y0162625D01*
X0164127Y0162532D01*
X0167572D01*
X0168283Y0162625D01*
X0168945Y0162899D01*
X0169514Y0163336D01*
X0169950Y0163905D01*
X0170224Y0164567D01*
X0170262Y0164851D01*
X0173479D01*
Y0163701D01*
X0179220D01*
Y0164851D01*
X0181330D01*
Y0163453D01*
X0183710D01*
X0184830Y0163413D01*
X0184830Y0160382D01*
X0183995Y0159547D01*
X0181330D01*
Y0158397D01*
X0178523D01*
Y0159142D01*
X0173377D01*
Y0159811D01*
X0169504D01*
Y0159843D01*
X0166748D01*
X0166743Y0159811D01*
X0162322D01*
Y0159142D01*
X0157176D01*
Y0154386D01*
Y0149858D01*
X0163294D01*
X0163399Y0149332D01*
X0163750Y0148806D01*
X0165671Y0146885D01*
X0166198Y0146533D01*
X0166818Y0146410D01*
X0169887D01*
X0170339Y0145318D01*
X0165668Y0140647D01*
X0165186Y0139926D01*
X0165016Y0139075D01*
X0165016Y0139075D01*
Y0134173D01*
Y0131173D01*
Y0128173D01*
Y0125173D01*
X0165035Y0125078D01*
X0165024Y0124983D01*
X0165418Y0120408D01*
X0165513Y0120081D01*
X0165579Y0119747D01*
X0165633Y0119667D01*
X0165660Y0119574D01*
X0165780Y0119424D01*
X0165806Y0119295D01*
X0166027Y0118964D01*
X0166317Y0118770D01*
X0172989Y0112098D01*
X0172982Y0112056D01*
X0173255Y0111832D01*
X0173359Y0111729D01*
X0173480Y0111647D01*
X0174070Y0111163D01*
X0175312Y0110500D01*
X0176658Y0110091D01*
X0178059Y0109953D01*
Y0109953D01*
X0178094Y0109987D01*
X0183677Y0109943D01*
X0184339Y0110075D01*
X0184760Y0110130D01*
X0185770Y0110548D01*
X0186637Y0111214D01*
X0187302Y0112081D01*
X0187720Y0113090D01*
X0187855Y0114117D01*
X0189731Y0115993D01*
X0190207Y0116613D01*
X0190331Y0116912D01*
X0190399Y0117076D01*
X0190567D01*
X0191599Y0117212D01*
X0192560Y0117610D01*
X0193386Y0118244D01*
X0194020Y0119070D01*
X0194418Y0120031D01*
X0194554Y0121063D01*
Y0134342D01*
X0198170Y0137656D01*
X0198185Y0137677D01*
X0198207Y0137692D01*
X0198302Y0137837D01*
X0198405Y0137977D01*
X0198411Y0138002D01*
X0198425Y0138024D01*
X0198458Y0138195D01*
X0198500Y0138364D01*
X0198496Y0138389D01*
X0198501Y0138415D01*
X0198369Y0158507D01*
X0198330Y0158698D01*
X0198292Y0158890D01*
X0198290Y0158893D01*
X0198289Y0158896D01*
X0198179Y0159058D01*
X0198071Y0159221D01*
X0198068Y0159223D01*
X0198066Y0159226D01*
X0197902Y0159333D01*
X0197740Y0159442D01*
X0197737Y0159443D01*
X0197734Y0159444D01*
X0197541Y0159481D01*
X0197350Y0159520D01*
X0193397Y0159520D01*
X0193369Y0159547D01*
Y0159547D01*
X0189815D01*
Y0162952D01*
X0189850Y0162980D01*
X0196996D01*
X0197386Y0163058D01*
X0197717Y0163279D01*
X0198071Y0163633D01*
X0198292Y0163963D01*
X0198369Y0164354D01*
X0198369Y0180500D01*
X0198292Y0180890D01*
X0198071Y0181221D01*
X0198006Y0181264D01*
X0198291Y0182445D01*
X0208437D01*
X0208689Y0181330D01*
X0207608Y0180883D01*
X0206680Y0180170D01*
X0205967Y0179242D01*
X0205519Y0178160D01*
X0205366Y0177000D01*
X0205519Y0175840D01*
X0205967Y0174758D01*
X0206680Y0173830D01*
X0207608Y0173117D01*
X0208689Y0172669D01*
X0208842Y0172649D01*
X0208764Y0171468D01*
X0208127D01*
X0207417Y0171375D01*
X0206754Y0171100D01*
X0206186Y0170664D01*
X0205749Y0170095D01*
X0205475Y0169433D01*
X0205381Y0168722D01*
Y0165278D01*
X0205475Y0164567D01*
X0205749Y0163905D01*
X0206186Y0163336D01*
X0206754Y0162899D01*
X0207417Y0162625D01*
X0208127Y0162532D01*
X0211572D01*
X0212283Y0162625D01*
X0212945Y0162899D01*
X0213514Y0163336D01*
X0213950Y0163905D01*
X0214037Y0164114D01*
X0217421D01*
Y0162964D01*
X0223161D01*
Y0164114D01*
X0225330D01*
Y0163453D01*
X0227710D01*
X0228830Y0163413D01*
X0228830Y0160382D01*
X0227995Y0159547D01*
X0225330D01*
Y0158397D01*
X0222023D01*
Y0159142D01*
X0216877D01*
Y0159575D01*
X0211728D01*
Y0159575D01*
X0210972D01*
Y0159575D01*
X0205822D01*
Y0159142D01*
X0200676D01*
Y0154386D01*
Y0149858D01*
X0206775D01*
Y0148953D01*
X0206899Y0148332D01*
X0207250Y0147806D01*
X0208203Y0146853D01*
X0208729Y0146502D01*
X0209350Y0146378D01*
X0210407D01*
X0210859Y0145287D01*
X0205038Y0139466D01*
X0204556Y0138745D01*
X0204386Y0137894D01*
X0204386Y0137894D01*
Y0134173D01*
Y0131173D01*
Y0128173D01*
Y0125173D01*
Y0120768D01*
X0204386Y0120768D01*
X0204556Y0119917D01*
X0205038Y0119195D01*
X0212136Y0112097D01*
X0212128Y0112056D01*
X0212401Y0111832D01*
X0212616Y0111616D01*
X0212870Y0111447D01*
X0213216Y0111163D01*
X0214457Y0110500D01*
X0215804Y0110091D01*
X0217205Y0109953D01*
Y0109953D01*
X0217239Y0109988D01*
X0223047Y0109955D01*
X0224052Y0110087D01*
X0224988Y0110475D01*
X0225019Y0110498D01*
X0225140Y0110548D01*
X0226007Y0111214D01*
X0226672Y0112081D01*
X0227090Y0113090D01*
X0227225Y0114117D01*
X0229101Y0115993D01*
X0229577Y0116613D01*
X0229701Y0116912D01*
X0229769Y0117076D01*
X0229937D01*
X0230969Y0117212D01*
X0231930Y0117610D01*
X0232756Y0118244D01*
X0233390Y0119070D01*
X0233788Y0120031D01*
X0233924Y0121063D01*
Y0130936D01*
X0241554Y0140301D01*
X0241622Y0140429D01*
X0241704Y0140550D01*
X0241715Y0140604D01*
X0241740Y0140652D01*
X0241754Y0140797D01*
X0241783Y0140940D01*
X0241867Y0158141D01*
X0241867Y0158142D01*
X0241867Y0158143D01*
X0241829Y0158337D01*
X0241792Y0158531D01*
X0241791Y0158532D01*
X0241791Y0158533D01*
X0241682Y0158698D01*
X0241572Y0158863D01*
X0241571Y0158864D01*
X0241571Y0158865D01*
X0241218Y0159219D01*
X0241217Y0159220D01*
X0241216Y0159221D01*
X0241051Y0159331D01*
X0240888Y0159441D01*
X0240886Y0159441D01*
X0240885Y0159442D01*
X0240692Y0159480D01*
X0240498Y0159520D01*
X0240496Y0159519D01*
X0240495Y0159520D01*
X0237397Y0159520D01*
X0237369Y0159547D01*
Y0159547D01*
X0235065D01*
X0233931Y0159650D01*
X0233928Y0162145D01*
X0234762Y0162980D01*
X0240850D01*
X0241240Y0163058D01*
X0241571Y0163279D01*
X0241924Y0163633D01*
X0242145Y0163963D01*
X0242223Y0164354D01*
X0242223Y0180709D01*
X0242145Y0181099D01*
X0242035Y0181264D01*
X0242223Y0181930D01*
X0242530Y0182445D01*
X0252437Y0182445D01*
X0252689Y0181330D01*
X0251608Y0180883D01*
X0250680Y0180170D01*
X0249967Y0179242D01*
X0249519Y0178160D01*
X0249366Y0177000D01*
X0249519Y0175840D01*
X0249967Y0174758D01*
X0250680Y0173830D01*
X0251608Y0173117D01*
X0252689Y0172669D01*
X0252842Y0172649D01*
X0252764Y0171468D01*
X0252127D01*
X0251416Y0171375D01*
X0250754Y0171100D01*
X0250186Y0170664D01*
X0249749Y0170095D01*
X0249475Y0169433D01*
X0249381Y0168722D01*
Y0165278D01*
X0249475Y0164567D01*
X0249749Y0163905D01*
X0250186Y0163336D01*
X0250754Y0162899D01*
X0251416Y0162625D01*
X0252127Y0162532D01*
X0255572D01*
X0256283Y0162625D01*
X0256945Y0162899D01*
X0257514Y0163336D01*
X0257950Y0163905D01*
X0258037Y0164114D01*
X0261480D01*
Y0162964D01*
X0267220D01*
Y0164114D01*
X0270330D01*
Y0163453D01*
X0272710D01*
X0273830Y0163413D01*
X0273830Y0160382D01*
X0272995Y0159547D01*
X0270330D01*
Y0158397D01*
X0267023D01*
Y0159142D01*
X0261877D01*
Y0159575D01*
X0250822D01*
Y0159142D01*
X0245676D01*
Y0154386D01*
Y0149858D01*
X0251775D01*
Y0149572D01*
X0251899Y0148951D01*
X0252250Y0148425D01*
X0252415Y0148260D01*
Y0147079D01*
X0244408Y0139072D01*
X0243926Y0138351D01*
X0243756Y0137500D01*
X0243756Y0137500D01*
Y0131173D01*
Y0128173D01*
Y0125173D01*
Y0120768D01*
X0243756Y0120768D01*
X0243926Y0119917D01*
X0244408Y0119195D01*
X0250513Y0113090D01*
X0251229Y0112315D01*
X0251555Y0112048D01*
X0251790Y0111813D01*
X0251790Y0111813D01*
X0252066Y0111629D01*
X0252530Y0111248D01*
X0254014Y0110455D01*
X0255624Y0109966D01*
X0257299Y0109801D01*
Y0109801D01*
X0257341Y0109842D01*
X0262067Y0109802D01*
X0263289Y0109963D01*
X0264427Y0110435D01*
X0265405Y0111185D01*
X0266156Y0112163D01*
X0266628Y0113302D01*
X0266756Y0114278D01*
X0268472Y0115993D01*
X0268947Y0116613D01*
X0269071Y0116912D01*
X0269139Y0117076D01*
X0269307D01*
X0270339Y0117212D01*
X0271301Y0117610D01*
X0272126Y0118244D01*
X0272760Y0119070D01*
X0273158Y0120031D01*
X0273294Y0121063D01*
Y0125233D01*
X0273362Y0125279D01*
X0273382Y0125309D01*
X0273410Y0125331D01*
X0286415Y0140276D01*
X0286491Y0140409D01*
X0286579Y0140536D01*
X0286589Y0140581D01*
X0286612Y0140621D01*
X0286632Y0140774D01*
X0286665Y0140924D01*
X0286744Y0144854D01*
X0286873Y0145500D01*
X0286768Y0146027D01*
X0286834Y0149306D01*
X0286873Y0149500D01*
X0286841Y0149658D01*
X0287012Y0158122D01*
X0287011Y0158127D01*
X0287012Y0158133D01*
X0286976Y0158323D01*
X0286942Y0158514D01*
X0286940Y0158518D01*
X0286939Y0158523D01*
X0286832Y0158686D01*
X0286728Y0158849D01*
X0286724Y0158852D01*
X0286721Y0158856D01*
X0286371Y0159214D01*
X0286367Y0159217D01*
X0286364Y0159221D01*
X0286202Y0159329D01*
X0286042Y0159438D01*
X0286037Y0159439D01*
X0286033Y0159442D01*
X0285843Y0159480D01*
X0285653Y0159520D01*
X0285648Y0159519D01*
X0285643Y0159520D01*
X0282397Y0159520D01*
X0282369Y0159547D01*
Y0159547D01*
X0278397D01*
Y0162145D01*
X0279233Y0162980D01*
X0285996Y0162980D01*
X0286386Y0163058D01*
X0286717Y0163279D01*
X0287071Y0163633D01*
X0287292Y0163963D01*
X0287369Y0164354D01*
X0287369Y0180500D01*
X0287292Y0180890D01*
X0287071Y0181221D01*
X0286740Y0181442D01*
X0286350Y0181519D01*
X0278751Y0181519D01*
X0278397Y0181810D01*
X0278397Y0191339D01*
Y0191339D01*
X0278320Y0191729D01*
X0278231Y0191861D01*
X0278194Y0191917D01*
X0278471Y0192957D01*
X0278529Y0193098D01*
X0278697D01*
Y0199232D01*
X0278313D01*
Y0233093D01*
X0278320Y0233104D01*
X0278320Y0233105D01*
X0278321Y0233106D01*
X0278359Y0233301D01*
X0278397Y0233494D01*
Y0239895D01*
X0278373Y0240020D01*
X0278366Y0240148D01*
X0278334Y0240214D01*
X0278320Y0240285D01*
X0278249Y0240391D01*
X0278194Y0240507D01*
X0277449Y0241500D01*
X0277396Y0241547D01*
X0277357Y0241606D01*
X0277296Y0241647D01*
X0277249Y0241679D01*
X0277249Y0241679D01*
X0277152Y0241766D01*
X0276987Y0241881D01*
X0276938Y0241937D01*
D01*
X0276862Y0242022D01*
X0276717Y0242231D01*
X0276642Y0242350D01*
X0276620Y0242390D01*
X0276602Y0242423D01*
X0276478Y0242701D01*
X0276412Y0242893D01*
X0276349Y0243146D01*
X0276315Y0243316D01*
X0276233Y0243961D01*
X0276224Y0244542D01*
Y0245212D01*
X0276224Y0249440D01*
Y0256059D01*
X0293913D01*
X0293979Y0256072D01*
X0294886Y0255892D01*
D02*
G37*
G36*
X0239156Y0241338D02*
X0239189Y0237796D01*
X0239189Y0233964D01*
X0233768Y0228335D01*
X0233768Y0221169D01*
X0236272Y0218665D01*
X0239768Y0218665D01*
X0241768Y0216665D01*
Y0215665D01*
Y0195453D01*
X0243501Y0193719D01*
X0253451Y0193681D01*
X0256113Y0191019D01*
X0256639Y0190667D01*
X0257260Y0190544D01*
X0269768D01*
X0270388Y0190667D01*
X0270914Y0191019D01*
X0272151Y0192255D01*
X0272502Y0192781D01*
X0272565Y0193098D01*
X0275618D01*
X0277378Y0191339D01*
X0277378Y0174409D01*
X0277378D01*
Y0146850D01*
X0275803Y0145275D01*
X0274228Y0143701D01*
X0268703Y0143701D01*
D01*
X0264779D01*
X0255724Y0134646D01*
Y0133465D01*
X0254543Y0132283D01*
X0252063Y0120472D01*
X0245488D01*
Y0137795D01*
X0255193Y0147500D01*
X0268350D01*
X0268350Y0154000D01*
X0274391D01*
X0274850Y0154000D01*
X0274850Y0154000D01*
X0274889Y0154004D01*
Y0154004D01*
X0274889Y0154483D01*
Y0159547D01*
X0274850D01*
X0274850Y0163413D01*
X0274889Y0163453D01*
X0274889D01*
Y0168996D01*
X0274354D01*
X0274350Y0169000D01*
X0262350D01*
Y0177500D01*
X0271079Y0177500D01*
X0271079Y0181890D01*
X0269504Y0183465D01*
X0234465Y0183465D01*
X0232890Y0182205D01*
Y0174400D01*
X0232898Y0169083D01*
X0232810Y0168996D01*
X0232810D01*
Y0163453D01*
X0232906D01*
X0232912Y0159649D01*
X0232810Y0159547D01*
X0232810D01*
Y0154004D01*
X0232920D01*
X0232929Y0147786D01*
X0229976Y0144094D01*
X0225803D01*
X0216354Y0134646D01*
Y0133465D01*
X0215961Y0133071D01*
X0213539Y0119793D01*
X0206118Y0120079D01*
X0206118Y0136220D01*
X0217898Y0148000D01*
X0222850D01*
X0222850Y0154000D01*
X0229391Y0154000D01*
X0229850Y0154000D01*
X0229889Y0154004D01*
X0229889Y0154484D01*
Y0154484D01*
Y0154484D01*
Y0159547D01*
X0229850D01*
X0229850Y0163413D01*
X0229889Y0163453D01*
X0229889D01*
Y0168996D01*
X0228854D01*
X0228850Y0169000D01*
X0217850D01*
Y0177500D01*
X0225803Y0177500D01*
Y0181890D01*
X0224228Y0183465D01*
X0189976D01*
X0188795Y0182283D01*
X0188795Y0175157D01*
X0188744Y0175106D01*
X0188795Y0175054D01*
Y0146457D01*
X0186039Y0144094D01*
X0186026D01*
X0176984Y0136383D01*
Y0135433D01*
X0174288Y0119685D01*
X0166748D01*
Y0138976D01*
X0176197Y0148031D01*
X0176984D01*
X0179350D01*
X0179350Y0154000D01*
X0185391D01*
X0185850Y0154000D01*
X0185850Y0154000D01*
X0185889Y0154004D01*
Y0154004D01*
X0185889Y0154483D01*
Y0159547D01*
X0185850D01*
X0185850Y0163413D01*
X0185889Y0163453D01*
X0185889D01*
Y0168996D01*
X0185354D01*
X0185350Y0169000D01*
X0174350D01*
Y0177500D01*
X0181709Y0177500D01*
Y0182520D01*
X0180527Y0183465D01*
X0145882Y0183465D01*
X0144701Y0182283D01*
X0144701Y0177125D01*
D01*
X0144701Y0148425D01*
X0144850Y0148418D01*
X0144850Y0146605D01*
X0137614Y0139370D01*
Y0136103D01*
X0137528Y0135998D01*
X0137226Y0135433D01*
X0136433D01*
Y0132610D01*
X0136401Y0132283D01*
X0136401D01*
X0136429Y0132251D01*
X0134968Y0119685D01*
X0127378Y0119685D01*
X0127378Y0140551D01*
X0135350Y0148523D01*
X0135350Y0153937D01*
X0137440D01*
Y0153878D01*
X0141999D01*
Y0159422D01*
X0141850D01*
X0141850Y0163178D01*
X0141999Y0163327D01*
X0141999D01*
Y0168870D01*
X0141479D01*
X0141350Y0169000D01*
X0130350D01*
Y0177500D01*
X0137614D01*
X0137614Y0187648D01*
X0139843Y0190156D01*
X0230313Y0190336D01*
X0234768Y0194791D01*
X0234768Y0214665D01*
X0234268D01*
X0230768Y0218165D01*
X0220740Y0218165D01*
X0219504Y0216929D01*
X0219504Y0214024D01*
X0219148Y0213673D01*
X0210449Y0213779D01*
X0210449Y0237388D01*
X0210465Y0237398D01*
X0210949Y0237647D01*
X0211630Y0237557D01*
X0212405Y0237659D01*
X0213127Y0237958D01*
X0213747Y0238434D01*
X0214223Y0239054D01*
X0214522Y0239776D01*
X0214624Y0240551D01*
X0214586Y0240839D01*
X0215025Y0241338D01*
X0238656Y0241338D01*
X0239156Y0241338D01*
D02*
G37*
G36*
X0219709Y0208165D02*
X0226618D01*
Y0206165D01*
X0219118D01*
X0216618Y0203665D01*
X0206491Y0203533D01*
X0203362Y0201968D01*
X0200158Y0201969D01*
X0199806Y0202324D01*
X0199850Y0206481D01*
X0207693Y0209842D01*
X0218032D01*
X0219709Y0208165D01*
D02*
G37*
G36*
X0173330Y0177500D02*
Y0169000D01*
X0172482Y0168137D01*
X0172398Y0168094D01*
X0170318D01*
Y0168722D01*
X0170224Y0169433D01*
X0169950Y0170095D01*
X0169514Y0170664D01*
X0168945Y0171100D01*
X0168283Y0171375D01*
X0167572Y0171468D01*
X0166935D01*
X0166858Y0172649D01*
X0167010Y0172669D01*
X0168091Y0173117D01*
X0169020Y0173830D01*
X0169732Y0174758D01*
X0170180Y0175840D01*
X0170333Y0177000D01*
X0170307Y0177197D01*
X0171271Y0178327D01*
X0172452Y0178349D01*
X0173330Y0177500D01*
D02*
G37*
G36*
X0128767Y0178234D02*
X0129330Y0177500D01*
Y0169000D01*
X0128726Y0167993D01*
X0128535Y0167821D01*
X0126818D01*
Y0168722D01*
X0126725Y0169433D01*
X0126450Y0170095D01*
X0126014Y0170664D01*
X0125445Y0171100D01*
X0124783Y0171375D01*
X0124072Y0171468D01*
X0123435D01*
X0123358Y0172650D01*
X0123510Y0172669D01*
X0124591Y0173117D01*
X0125520Y0173830D01*
X0126232Y0174758D01*
X0126680Y0175840D01*
X0126833Y0177000D01*
X0126785Y0177361D01*
X0127535Y0178308D01*
X0128767Y0178234D01*
D02*
G37*
G36*
X0273835Y0206299D02*
X0247268D01*
X0247268Y0207914D01*
X0247621Y0208268D01*
X0271472Y0208268D01*
X0271472Y0213165D01*
X0273835D01*
Y0206299D01*
D02*
G37*
%LPC*%
G36*
X0114779Y0134490D02*
X0114005Y0134388D01*
X0113282Y0134089D01*
X0112662Y0133613D01*
X0112187Y0132993D01*
X0111887Y0132271D01*
X0111785Y0131496D01*
X0111887Y0130721D01*
X0112187Y0129999D01*
X0112662Y0129379D01*
X0113282Y0128903D01*
X0114005Y0128604D01*
X0114779Y0128502D01*
X0115554Y0128604D01*
X0116277Y0128903D01*
X0116897Y0129379D01*
X0117373Y0129999D01*
X0117672Y0130721D01*
X0117774Y0131496D01*
X0117672Y0132271D01*
X0117373Y0132993D01*
X0116897Y0133613D01*
X0116277Y0134089D01*
X0115554Y0134388D01*
X0114779Y0134490D01*
D02*
G37*
G36*
X0184661Y0250635D02*
X0174819D01*
X0173658Y0250521D01*
X0172542Y0250182D01*
X0171513Y0249632D01*
X0170612Y0248892D01*
X0169872Y0247991D01*
X0169322Y0246962D01*
X0168983Y0245846D01*
X0168869Y0244685D01*
Y0223031D01*
X0168983Y0221871D01*
X0169322Y0220755D01*
X0169872Y0219726D01*
X0170612Y0218824D01*
X0171513Y0218084D01*
X0172542Y0217534D01*
X0173658Y0217196D01*
X0174819Y0217081D01*
X0184661D01*
X0185822Y0217196D01*
X0186938Y0217534D01*
X0187967Y0218084D01*
X0188869Y0218824D01*
X0189122Y0219133D01*
X0190621Y0219305D01*
X0195253Y0214672D01*
Y0211811D01*
X0195275Y0211642D01*
Y0209039D01*
X0200425D01*
Y0211642D01*
X0200447Y0211811D01*
Y0215748D01*
X0200359Y0216420D01*
X0200099Y0217046D01*
X0199687Y0217584D01*
X0190611Y0226660D01*
Y0244685D01*
X0190497Y0245846D01*
X0190158Y0246962D01*
X0189609Y0247991D01*
X0188869Y0248892D01*
X0187967Y0249632D01*
X0186938Y0250182D01*
X0185822Y0250521D01*
X0184661Y0250635D01*
D02*
G37*
G36*
X0119504Y0228585D02*
X0118729Y0228483D01*
X0118007Y0228184D01*
X0117387Y0227708D01*
X0116911Y0227088D01*
X0116612Y0226365D01*
X0116510Y0225590D01*
X0116612Y0224816D01*
X0116911Y0224093D01*
X0117387Y0223473D01*
X0118007Y0222997D01*
X0118729Y0222698D01*
X0119504Y0222596D01*
X0120279Y0222698D01*
X0121001Y0222997D01*
X0121621Y0223473D01*
X0122097Y0224093D01*
X0122396Y0224816D01*
X0122498Y0225590D01*
X0122396Y0226365D01*
X0122097Y0227088D01*
X0121621Y0227708D01*
X0121001Y0228184D01*
X0120279Y0228483D01*
X0119504Y0228585D01*
D02*
G37*
G36*
X0159268Y0243701D02*
X0137220D01*
Y0223622D01*
X0159268D01*
Y0243701D01*
D02*
G37*
%LPD*%
D10*
X0187614Y0127953D02*
D03*
X0171866D02*
D03*
X0132496D02*
D03*
X0148244D02*
D03*
X0266354D02*
D03*
X0250606D02*
D03*
X0211236D02*
D03*
X0226984D02*
D03*
D11*
X0119504Y0225590D02*
D03*
X0211630Y0240551D02*
D03*
X0114779Y0131496D02*
D03*
D12*
X0227609Y0166224D02*
D03*
X0235090D02*
D03*
Y0156775D02*
D03*
X0231350D02*
D03*
X0227609D02*
D03*
X0183609Y0166224D02*
D03*
X0191090D02*
D03*
Y0156775D02*
D03*
X0187350D02*
D03*
X0183609D02*
D03*
X0139719Y0166099D02*
D03*
X0147199D02*
D03*
Y0156650D02*
D03*
X0143459D02*
D03*
X0139719D02*
D03*
X0272609Y0166224D02*
D03*
X0280090D02*
D03*
Y0156775D02*
D03*
X0276350D02*
D03*
X0272609D02*
D03*
D13*
X0264350Y0170461D02*
D03*
Y0165539D02*
D03*
X0220291Y0175539D02*
D03*
Y0180461D02*
D03*
Y0170461D02*
D03*
Y0165539D02*
D03*
X0176350Y0175539D02*
D03*
Y0180461D02*
D03*
Y0171197D02*
D03*
Y0166276D02*
D03*
X0132350Y0175539D02*
D03*
Y0180461D02*
D03*
Y0170961D02*
D03*
Y0166039D02*
D03*
X0272768Y0207126D02*
D03*
Y0202205D02*
D03*
X0211268Y0198705D02*
D03*
Y0203626D02*
D03*
X0264350Y0175539D02*
D03*
Y0180461D02*
D03*
D14*
X0248350Y0152236D02*
D03*
Y0156764D02*
D03*
X0219350D02*
D03*
Y0152236D02*
D03*
X0203350D02*
D03*
Y0156764D02*
D03*
X0175850D02*
D03*
Y0152236D02*
D03*
X0159850D02*
D03*
Y0156764D02*
D03*
X0132350Y0156764D02*
D03*
Y0152236D02*
D03*
X0116350Y0152236D02*
D03*
Y0156764D02*
D03*
X0272768Y0226902D02*
D03*
Y0231429D02*
D03*
X0265961Y0202461D02*
D03*
Y0206988D02*
D03*
X0264350Y0156764D02*
D03*
Y0152236D02*
D03*
D15*
X0211236Y0188681D02*
D03*
Y0193996D02*
D03*
D16*
X0253397Y0157000D02*
D03*
X0259302D02*
D03*
X0214302Y0152000D02*
D03*
X0208397D02*
D03*
Y0157000D02*
D03*
X0214302D02*
D03*
X0170802Y0152000D02*
D03*
X0164897D02*
D03*
Y0157236D02*
D03*
X0170802D02*
D03*
X0127302Y0151500D02*
D03*
X0121397D02*
D03*
Y0157000D02*
D03*
X0127302D02*
D03*
X0259302Y0152000D02*
D03*
X0253397D02*
D03*
D17*
X0272768Y0220118D02*
D03*
Y0214212D02*
D03*
D18*
X0275291Y0172500D02*
D03*
X0280409D02*
D03*
X0230791Y0149500D02*
D03*
X0235909D02*
D03*
X0230791Y0172500D02*
D03*
X0235909D02*
D03*
X0186791Y0149500D02*
D03*
X0191909D02*
D03*
X0186791Y0173500D02*
D03*
X0191909D02*
D03*
X0142791Y0149500D02*
D03*
X0147909D02*
D03*
X0142791Y0173500D02*
D03*
X0147909D02*
D03*
X0238268Y0234165D02*
D03*
X0243386D02*
D03*
X0238268Y0239665D02*
D03*
X0243386D02*
D03*
X0266327Y0214665D02*
D03*
X0261209D02*
D03*
X0265327Y0196165D02*
D03*
X0260209D02*
D03*
X0275791Y0149500D02*
D03*
X0280909D02*
D03*
D19*
X0259768Y0207224D02*
D03*
Y0202106D02*
D03*
X0218323Y0188779D02*
D03*
Y0193898D02*
D03*
X0218268Y0214724D02*
D03*
Y0209606D02*
D03*
X0211268Y0214724D02*
D03*
Y0209606D02*
D03*
D20*
X0228622Y0212224D02*
D03*
Y0207224D02*
D03*
Y0202224D02*
D03*
Y0197224D02*
D03*
X0247913Y0212224D02*
D03*
Y0207224D02*
D03*
Y0202224D02*
D03*
Y0197224D02*
D03*
D21*
X0241142Y0224165D02*
D03*
X0225394D02*
D03*
D22*
X0197850Y0211811D02*
D03*
X0201590Y0203937D02*
D03*
X0194110D02*
D03*
D23*
X0270610Y0196165D02*
D03*
X0275925D02*
D03*
D24*
X0258268Y0237949D02*
D03*
Y0223382D02*
D03*
D25*
X0222327Y0202224D02*
X0229016D01*
X0219004Y0198901D02*
X0222327Y0202224D01*
X0211268Y0198901D02*
X0219004D01*
X0271004Y0193402D02*
Y0200638D01*
X0272768Y0202401D01*
X0247520Y0202224D02*
X0259650D01*
X0260209Y0196165D02*
Y0201665D01*
X0265327Y0196165D02*
Y0201461D01*
X0223768Y0215665D02*
X0227209Y0212224D01*
X0126802Y0156650D02*
X0139719D01*
X0116586Y0156500D02*
X0121397D01*
X0126802Y0152000D02*
X0131613D01*
X0269768Y0192165D02*
X0271004Y0193402D01*
X0176574Y0156775D02*
X0183609D01*
X0170802Y0157236D02*
X0176113D01*
X0159850Y0156764D02*
X0164424D01*
X0170802Y0152236D02*
X0176113D01*
X0164897Y0149953D02*
Y0152236D01*
X0186791Y0150500D02*
Y0173000D01*
X0176350Y0166472D02*
X0183361D01*
X0165877D02*
X0176350D01*
X0165850Y0177000D02*
X0168850Y0180000D01*
X0176350D01*
X0219361Y0156775D02*
X0227609D01*
X0214539Y0156764D02*
X0219350D01*
X0208161D02*
X0208397Y0157000D01*
X0203350Y0156764D02*
X0208161D01*
X0214302Y0152000D02*
X0214539Y0152236D01*
X0219350D01*
X0235409Y0149500D02*
Y0156457D01*
X0235090Y0166224D02*
Y0171681D01*
X0228054Y0175236D02*
X0230791Y0172500D01*
X0220291Y0165736D02*
X0227121D01*
X0211113D02*
X0220291D01*
X0209850Y0177000D02*
X0212613Y0179764D01*
X0220291D01*
X0208397Y0148953D02*
Y0152000D01*
Y0148953D02*
X0209350Y0148000D01*
X0259302Y0152000D02*
X0264113D01*
X0259539Y0156764D02*
X0264350D01*
X0253161D02*
X0253397Y0157000D01*
X0248350Y0156764D02*
X0253161D01*
X0264362Y0156775D02*
X0272609D01*
X0264350Y0156764D02*
X0264362Y0156775D01*
X0264350Y0165736D02*
X0272121D01*
X0272609Y0166224D01*
X0255114Y0165736D02*
X0264350D01*
X0253850Y0167000D02*
X0255114Y0165736D01*
X0253850Y0177000D02*
X0256613Y0179764D01*
X0264350D01*
Y0170264D02*
Y0175236D01*
Y0170264D02*
X0273054D01*
X0275291Y0172500D01*
X0276350Y0156775D02*
Y0171441D01*
Y0150559D02*
Y0156775D01*
X0275291Y0149500D02*
X0276350Y0150559D01*
X0280409Y0149500D02*
Y0156457D01*
X0280090Y0156775D02*
X0280409Y0156457D01*
X0280090Y0166224D02*
Y0172181D01*
X0275291Y0172500D02*
X0276350Y0171441D01*
X0253397Y0149572D02*
Y0152000D01*
X0218268Y0194724D02*
X0218898Y0194094D01*
X0220697D01*
X0223827Y0197224D01*
X0252201D02*
X0257260Y0192165D01*
X0269768D01*
X0220291Y0175236D02*
X0228054D01*
X0176350Y0175472D02*
X0184318D01*
X0253397Y0149572D02*
X0255724Y0147244D01*
X0209350Y0148000D02*
X0223866D01*
X0164897Y0149953D02*
X0166818Y0148031D01*
X0176197D01*
D26*
X0211268Y0193929D02*
Y0198901D01*
X0223827Y0197224D02*
X0229016D01*
X0211268Y0214724D02*
X0218268D01*
Y0217039D01*
X0259650Y0202224D02*
X0259768Y0202106D01*
X0260209Y0201665D01*
X0272768Y0206929D02*
Y0214212D01*
X0259768Y0207224D02*
X0272472D01*
X0272768Y0220118D02*
Y0226902D01*
X0247520Y0212224D02*
X0258768D01*
X0261209Y0214665D01*
Y0219441D01*
X0257268Y0223382D02*
X0261209Y0219441D01*
X0243386Y0234165D02*
Y0239665D01*
X0255551D01*
X0238268Y0234165D02*
Y0239665D01*
X0226650Y0224165D02*
X0236650Y0234165D01*
X0227209Y0212224D02*
X0229016D01*
X0147199Y0148709D02*
Y0156650D01*
X0143459Y0148669D02*
Y0156650D01*
X0147199Y0166099D02*
Y0173291D01*
X0143459Y0156650D02*
Y0172332D01*
X0132350Y0170764D02*
Y0175736D01*
X0134586Y0173500D01*
X0142291D01*
X0143459Y0172332D01*
X0121397Y0149453D02*
Y0151500D01*
X0176113Y0157236D02*
X0176350Y0157000D01*
X0176574Y0156775D01*
X0164424Y0156764D02*
X0164897Y0157236D01*
X0176113Y0152236D02*
X0176350Y0152472D01*
Y0171000D02*
Y0175472D01*
X0231350Y0150559D02*
Y0156775D01*
X0230791Y0157335D02*
Y0172500D01*
X0220291Y0170264D02*
Y0175236D01*
X0227121Y0165736D02*
X0227609Y0166224D01*
X0209850Y0167000D02*
X0211113Y0165736D01*
X0218268Y0217039D02*
X0225394Y0224165D01*
X0203657Y0204232D02*
X0206650Y0207224D01*
X0225866D01*
X0247520Y0197224D02*
X0252201D01*
X0121397Y0149453D02*
X0122818Y0148031D01*
X0184318Y0175472D02*
X0186791Y0173000D01*
X0122818Y0148031D02*
X0134858D01*
X0247913Y0207224D02*
X0259768D01*
D27*
X0240142Y0224165D02*
X0256484D01*
X0272768Y0231429D02*
Y0235949D01*
X0270768Y0237949D02*
X0272768Y0235949D01*
X0257268Y0237949D02*
X0270768D01*
X0123251Y0166099D02*
X0139719D01*
X0122350Y0177000D02*
X0125613Y0180264D01*
X0132350D01*
X0270768Y0237949D02*
X0274484D01*
X0275532Y0196165D02*
X0276590Y0197224D01*
Y0235842D01*
X0274484Y0237949D02*
X0276590Y0235842D01*
D28*
X0197850Y0211811D02*
Y0215748D01*
X0179740Y0233858D02*
X0197850Y0215748D01*
D29*
X0245980Y0125173D02*
Y0128173D01*
Y0131173D01*
Y0137500D01*
X0255724Y0147244D01*
X0269504D01*
X0206610Y0137894D02*
X0216717Y0148000D01*
X0206610Y0120768D02*
Y0125173D01*
Y0128173D01*
Y0131173D01*
Y0134173D01*
Y0137894D01*
X0216717Y0148000D02*
X0223866D01*
X0206610Y0120768D02*
X0214189Y0113189D01*
X0167634Y0120598D02*
X0174931Y0113301D01*
X0176197Y0148031D02*
X0182496D01*
X0167240Y0139075D02*
X0176165Y0148000D01*
X0167240Y0125173D02*
X0167634Y0120598D01*
X0167240Y0125173D02*
Y0128173D01*
Y0131173D01*
Y0134173D01*
Y0139075D01*
X0128433Y0142362D02*
X0134102Y0148031D01*
X0137220D01*
X0245980Y0120768D02*
Y0125173D01*
Y0120768D02*
X0253362Y0113386D01*
X0253756D01*
X0240209Y0207224D02*
X0247913D01*
X0127870Y0122736D02*
Y0125173D01*
Y0128173D01*
Y0131173D01*
Y0134173D01*
X0128433Y0120598D02*
Y0142362D01*
Y0120598D02*
X0135646Y0113386D01*
D30*
X0148244Y0228346D02*
Y0233858D01*
X0211236Y0118110D02*
Y0127953D01*
Y0118110D02*
X0215173Y0114173D01*
X0223047D02*
X0226984Y0118110D01*
Y0127953D01*
X0266354Y0118110D02*
Y0127953D01*
X0262417Y0114173D02*
X0266354Y0118110D01*
X0250606D02*
X0254543Y0114173D01*
X0250606Y0118110D02*
Y0127953D01*
X0132496Y0118110D02*
Y0127953D01*
Y0118110D02*
X0136433Y0114173D01*
X0144307D02*
X0148244Y0118110D01*
Y0127953D01*
X0187614Y0118110D02*
Y0127953D01*
X0183677Y0114173D02*
X0187614Y0118110D01*
X0171866D02*
Y0127953D01*
Y0118110D02*
X0175522Y0114455D01*
X0175803Y0114173D01*
D31*
X0112811Y0111811D02*
D03*
Y0245669D02*
D03*
X0286039D02*
D03*
Y0111811D02*
D03*
D32*
X0148244Y0233858D02*
D03*
X0179740D02*
D03*
D33*
X0209850Y0167000D02*
D03*
X0165850D02*
D03*
X0122350Y0167000D02*
D03*
X0253850Y0167000D02*
D03*
D34*
X0209850Y0177000D02*
D03*
X0165850D02*
D03*
X0122350Y0177000D02*
D03*
X0253850Y0177000D02*
D03*
D35*
X0215173Y0114173D02*
D03*
X0223047D02*
D03*
X0262417D02*
D03*
X0254543D02*
D03*
X0136433D02*
D03*
X0144307D02*
D03*
X0183677D02*
D03*
X0175803D02*
D03*
D36*
X0223768Y0215665D02*
D03*
X0265268Y0214665D02*
D03*
X0235268Y0189665D02*
D03*
X0238268D02*
D03*
X0241268D02*
D03*
Y0186665D02*
D03*
X0238268D02*
D03*
X0235268D02*
D03*
X0236768Y0198665D02*
D03*
X0239768D02*
D03*
Y0201665D02*
D03*
X0236768D02*
D03*
Y0204665D02*
D03*
X0239768D02*
D03*
Y0207665D02*
D03*
X0236768D02*
D03*
Y0210665D02*
D03*
X0239768D02*
D03*
X0140350Y0152500D02*
D03*
X0136850D02*
D03*
Y0145500D02*
D03*
X0137850Y0171000D02*
D03*
Y0176000D02*
D03*
X0151350Y0166500D02*
D03*
Y0174500D02*
D03*
X0151850Y0156500D02*
D03*
Y0153000D02*
D03*
Y0149500D02*
D03*
Y0145500D02*
D03*
X0275768Y0239165D02*
D03*
X0270768D02*
D03*
Y0235665D02*
D03*
X0273268Y0239165D02*
D03*
X0275768Y0235665D02*
D03*
X0273268D02*
D03*
X0195850Y0145500D02*
D03*
Y0149500D02*
D03*
Y0153000D02*
D03*
Y0156500D02*
D03*
X0195350Y0174500D02*
D03*
Y0170500D02*
D03*
Y0166500D02*
D03*
X0181850Y0176000D02*
D03*
Y0171000D02*
D03*
X0180850Y0145500D02*
D03*
Y0152500D02*
D03*
Y0149000D02*
D03*
X0184350Y0152500D02*
D03*
X0227850D02*
D03*
X0224350Y0149000D02*
D03*
Y0152500D02*
D03*
Y0145500D02*
D03*
X0225350Y0171000D02*
D03*
Y0176000D02*
D03*
X0238850Y0166500D02*
D03*
Y0170500D02*
D03*
Y0174500D02*
D03*
X0239350Y0156500D02*
D03*
Y0153000D02*
D03*
Y0149500D02*
D03*
Y0145500D02*
D03*
X0284850D02*
D03*
Y0149500D02*
D03*
Y0153000D02*
D03*
Y0156500D02*
D03*
X0284350Y0174500D02*
D03*
Y0170500D02*
D03*
Y0166500D02*
D03*
X0270850Y0175500D02*
D03*
X0269850Y0145500D02*
D03*
Y0152500D02*
D03*
Y0149000D02*
D03*
X0273350Y0152500D02*
D03*
X0270850Y0171000D02*
D03*
X0151350Y0170500D02*
D03*
X0116354Y0153150D02*
D03*
X0159661D02*
D03*
X0203362D02*
D03*
X0248244D02*
D03*
X0249646Y0235272D02*
D03*
X0252146D02*
D03*
X0249646Y0238772D02*
D03*
X0247146Y0235272D02*
D03*
Y0238772D02*
D03*
X0252146D02*
D03*
X0139583Y0242913D02*
D03*
Y0240157D02*
D03*
Y0237402D02*
D03*
Y0234646D02*
D03*
Y0231890D02*
D03*
Y0229134D02*
D03*
Y0226378D02*
D03*
Y0223622D02*
D03*
X0156905Y0242913D02*
D03*
Y0240157D02*
D03*
Y0237402D02*
D03*
Y0234646D02*
D03*
Y0231890D02*
D03*
Y0229134D02*
D03*
Y0226378D02*
D03*
Y0223622D02*
D03*
X0215610Y0134173D02*
D03*
Y0131173D02*
D03*
Y0128173D02*
D03*
Y0125173D02*
D03*
Y0122173D02*
D03*
X0222610Y0134173D02*
D03*
Y0131173D02*
D03*
Y0128173D02*
D03*
Y0125173D02*
D03*
Y0122173D02*
D03*
X0231610Y0134173D02*
D03*
Y0131173D02*
D03*
Y0128173D02*
D03*
Y0125173D02*
D03*
Y0122173D02*
D03*
X0206610Y0134173D02*
D03*
Y0131173D02*
D03*
Y0128173D02*
D03*
Y0125173D02*
D03*
Y0122173D02*
D03*
X0245980D02*
D03*
Y0125173D02*
D03*
Y0128173D02*
D03*
Y0131173D02*
D03*
Y0134173D02*
D03*
X0270980Y0122173D02*
D03*
Y0125173D02*
D03*
Y0128173D02*
D03*
Y0131173D02*
D03*
Y0134173D02*
D03*
X0261980Y0122173D02*
D03*
Y0125173D02*
D03*
Y0128173D02*
D03*
Y0131173D02*
D03*
Y0134173D02*
D03*
X0254980Y0122173D02*
D03*
Y0125173D02*
D03*
Y0128173D02*
D03*
Y0131173D02*
D03*
Y0134173D02*
D03*
X0136870D02*
D03*
Y0131173D02*
D03*
Y0128173D02*
D03*
Y0125173D02*
D03*
Y0122173D02*
D03*
X0143870Y0134173D02*
D03*
Y0131173D02*
D03*
Y0128173D02*
D03*
Y0125173D02*
D03*
Y0122173D02*
D03*
X0152870Y0134173D02*
D03*
Y0131173D02*
D03*
Y0128173D02*
D03*
Y0125173D02*
D03*
Y0122173D02*
D03*
X0127870Y0134173D02*
D03*
Y0131173D02*
D03*
Y0128173D02*
D03*
Y0125173D02*
D03*
Y0122173D02*
D03*
X0167240D02*
D03*
Y0125173D02*
D03*
Y0128173D02*
D03*
Y0131173D02*
D03*
Y0134173D02*
D03*
X0192240Y0122173D02*
D03*
Y0125173D02*
D03*
Y0128173D02*
D03*
Y0131173D02*
D03*
Y0134173D02*
D03*
X0183240Y0122173D02*
D03*
Y0125173D02*
D03*
Y0128173D02*
D03*
Y0131173D02*
D03*
Y0134173D02*
D03*
X0176240Y0122173D02*
D03*
Y0125173D02*
D03*
Y0128173D02*
D03*
Y0131173D02*
D03*
Y0134173D02*
D03*
M02*
