G04 Layer_Color=20142*
%FSAX25Y25*%
%MOIN*%
G70*
G01*
G75*
%ADD49R,0.13005X0.10249*%
%ADD50O,0.03162X0.06509*%
G04:AMPARAMS|DCode=51|XSize=106.42mil|YSize=76.9mil|CornerRadius=10.89mil|HoleSize=0mil|Usage=FLASHONLY|Rotation=0.000|XOffset=0mil|YOffset=0mil|HoleType=Round|Shape=RoundedRectangle|*
%AMROUNDEDRECTD51*
21,1,0.10642,0.05512,0,0,0.0*
21,1,0.08465,0.07690,0,0,0.0*
1,1,0.02178,0.04232,-0.02756*
1,1,0.02178,-0.04232,-0.02756*
1,1,0.02178,-0.04232,0.02756*
1,1,0.02178,0.04232,0.02756*
%
%ADD51ROUNDEDRECTD51*%
%ADD52R,0.02572X0.03871*%
%ADD53R,0.04934X0.04737*%
%ADD54R,0.04737X0.04934*%
%ADD55R,0.05918X0.11430*%
%ADD56R,0.06706X0.11824*%
%ADD57R,0.11824X0.06706*%
%ADD58R,0.04540X0.04934*%
%ADD59R,0.04934X0.04540*%
%ADD60R,0.11599X0.09300*%
%ADD61R,0.07493X0.11824*%
%ADD62R,0.14304X0.08005*%
%ADD63R,0.04934X0.04343*%
%ADD64R,0.04343X0.04934*%
%ADD65R,0.04540X0.04540*%
%ADD66R,0.32296X0.16548*%
%ADD67C,0.04737*%
%ADD68R,0.02965X0.02965*%
%ADD69C,0.16548*%
%ADD70C,0.06115*%
%ADD71C,0.03359*%
D49*
X0284557Y0195276D02*
D03*
D50*
X0292057Y0206004D02*
D03*
X0287057D02*
D03*
X0282057D02*
D03*
X0277057D02*
D03*
X0292057Y0184547D02*
D03*
X0287057D02*
D03*
X0282057D02*
D03*
X0277057D02*
D03*
D51*
X0392063Y0204063D02*
D03*
X0325590Y0131890D02*
D03*
X0374803D02*
D03*
X0347181Y0204063D02*
D03*
D52*
X0388323Y0209732D02*
D03*
X0392063D02*
D03*
X0395803D02*
D03*
Y0198394D02*
D03*
X0392063D02*
D03*
X0388323D02*
D03*
X0329331Y0126221D02*
D03*
X0325590D02*
D03*
X0321850D02*
D03*
Y0137559D02*
D03*
X0325590D02*
D03*
X0329331D02*
D03*
X0378543Y0126221D02*
D03*
X0374803D02*
D03*
X0371063D02*
D03*
Y0137559D02*
D03*
X0374803D02*
D03*
X0378543D02*
D03*
X0343441Y0209732D02*
D03*
X0347181D02*
D03*
X0350921D02*
D03*
Y0198394D02*
D03*
X0347181D02*
D03*
X0343441D02*
D03*
D53*
X0304134Y0175984D02*
D03*
X0310039D02*
D03*
X0292234Y0215748D02*
D03*
X0298140D02*
D03*
X0262795Y0204331D02*
D03*
X0268701D02*
D03*
X0278849Y0215748D02*
D03*
X0284754D02*
D03*
X0433268Y0206819D02*
D03*
X0439173D02*
D03*
Y0213512D02*
D03*
X0433268D02*
D03*
X0433268Y0151575D02*
D03*
X0439173D02*
D03*
Y0158268D02*
D03*
X0433268D02*
D03*
X0433268Y0124142D02*
D03*
X0439173D02*
D03*
Y0130835D02*
D03*
X0433268D02*
D03*
Y0179260D02*
D03*
X0439173D02*
D03*
Y0185953D02*
D03*
X0433268D02*
D03*
D54*
X0272352Y0175394D02*
D03*
Y0169488D02*
D03*
X0257480Y0145472D02*
D03*
Y0139567D02*
D03*
D55*
X0312598Y0188189D02*
D03*
X0301575D02*
D03*
D56*
X0292825Y0172047D02*
D03*
X0281014D02*
D03*
D57*
X0261722Y0174409D02*
D03*
Y0162598D02*
D03*
D58*
X0374705Y0210236D02*
D03*
X0380413D02*
D03*
X0343406Y0126378D02*
D03*
X0337697D02*
D03*
X0393012Y0126378D02*
D03*
X0387303D02*
D03*
X0330217Y0209842D02*
D03*
X0335925D02*
D03*
D59*
X0379921Y0201279D02*
D03*
Y0195571D02*
D03*
X0337795Y0134941D02*
D03*
Y0140650D02*
D03*
X0387008Y0134941D02*
D03*
Y0140650D02*
D03*
X0335039Y0201279D02*
D03*
Y0195571D02*
D03*
D60*
X0243307Y0160197D02*
D03*
Y0177598D02*
D03*
D61*
X0224803Y0175295D02*
D03*
Y0162500D02*
D03*
D62*
X0287402Y0154606D02*
D03*
Y0132795D02*
D03*
D63*
X0266142Y0140256D02*
D03*
Y0145965D02*
D03*
D64*
X0298041Y0222835D02*
D03*
X0292333D02*
D03*
X0284656D02*
D03*
X0278947D02*
D03*
X0423327Y0213386D02*
D03*
X0417618D02*
D03*
X0423327Y0206819D02*
D03*
X0417618D02*
D03*
X0380807Y0226378D02*
D03*
X0375098D02*
D03*
X0380610Y0219291D02*
D03*
X0375295D02*
D03*
X0423327Y0158268D02*
D03*
X0417618D02*
D03*
X0423327Y0151575D02*
D03*
X0417618D02*
D03*
X0337697Y0116535D02*
D03*
X0343406D02*
D03*
X0337831Y0109968D02*
D03*
X0343146D02*
D03*
X0423327Y0130709D02*
D03*
X0417618D02*
D03*
X0423327Y0123890D02*
D03*
X0417618D02*
D03*
X0387303Y0116929D02*
D03*
X0393012D02*
D03*
X0387500Y0110236D02*
D03*
X0392815D02*
D03*
X0423327Y0185559D02*
D03*
X0417618D02*
D03*
X0423327Y0178866D02*
D03*
X0417618D02*
D03*
X0335862Y0226504D02*
D03*
X0330153D02*
D03*
X0335665Y0219811D02*
D03*
X0330350D02*
D03*
D65*
X0263199Y0211024D02*
D03*
X0268907D02*
D03*
D66*
X0197638Y0153937D02*
D03*
Y0183858D02*
D03*
D67*
X0457874Y0107087D02*
D03*
X0118110Y0205906D02*
D03*
X0255118Y0229528D02*
D03*
D68*
X0329125Y0117935D02*
D03*
X0329134Y0113976D02*
D03*
X0322038Y0117935D02*
D03*
X0322047Y0113976D02*
D03*
X0378338Y0117935D02*
D03*
X0378346Y0113976D02*
D03*
X0371251Y0117935D02*
D03*
X0371260Y0113976D02*
D03*
X0350796Y0219073D02*
D03*
X0350787Y0223031D02*
D03*
X0344104Y0219073D02*
D03*
X0344094Y0223031D02*
D03*
X0388985Y0219073D02*
D03*
X0388976Y0223031D02*
D03*
X0395678Y0219174D02*
D03*
X0395669Y0223132D02*
D03*
D69*
X0123622Y0222047D02*
D03*
Y0115748D02*
D03*
D70*
X0450197Y0123622D02*
D03*
Y0131496D02*
D03*
Y0151181D02*
D03*
Y0159055D02*
D03*
Y0178740D02*
D03*
Y0186614D02*
D03*
Y0206299D02*
D03*
Y0214173D02*
D03*
D71*
X0288888Y0197441D02*
D03*
Y0193110D02*
D03*
X0284557Y0197441D02*
D03*
Y0193110D02*
D03*
X0280226Y0197441D02*
D03*
Y0193110D02*
D03*
M02*
