G04 Layer_Physical_Order=1*
G04 Layer_Color=35562*
%FSAX25Y25*%
%MOIN*%
G70*
G01*
G75*
%ADD10R,0.12205X0.09449*%
%ADD11O,0.02362X0.05709*%
G04:AMPARAMS|DCode=12|XSize=98.43mil|YSize=68.9mil|CornerRadius=6.89mil|HoleSize=0mil|Usage=FLASHONLY|Rotation=0.000|XOffset=0mil|YOffset=0mil|HoleType=Round|Shape=RoundedRectangle|*
%AMROUNDEDRECTD12*
21,1,0.09843,0.05512,0,0,0.0*
21,1,0.08465,0.06890,0,0,0.0*
1,1,0.01378,0.04232,-0.02756*
1,1,0.01378,-0.04232,-0.02756*
1,1,0.01378,-0.04232,0.02756*
1,1,0.01378,0.04232,0.02756*
%
%ADD12ROUNDEDRECTD12*%
%ADD13R,0.01772X0.03071*%
%ADD14R,0.04134X0.03937*%
%ADD15R,0.03937X0.04134*%
%ADD16R,0.05118X0.10630*%
%ADD17R,0.05906X0.11024*%
%ADD18R,0.11024X0.05906*%
%ADD19R,0.03740X0.04134*%
%ADD20R,0.04134X0.03740*%
%ADD21R,0.10799X0.08500*%
%ADD22R,0.06693X0.11024*%
%ADD23R,0.13504X0.07205*%
%ADD24R,0.04134X0.03543*%
%ADD25R,0.03543X0.04134*%
%ADD26R,0.03740X0.03740*%
%ADD27R,0.31496X0.15748*%
%ADD28C,0.03937*%
%ADD29R,0.02165X0.02165*%
%ADD30C,0.01575*%
%ADD31C,0.03937*%
%ADD32C,0.01181*%
%ADD33C,0.01772*%
%ADD34C,0.07874*%
%ADD35C,0.01969*%
%ADD36C,0.02362*%
%ADD37C,0.02165*%
%ADD38C,0.15748*%
%ADD39C,0.05315*%
%ADD40C,0.02559*%
%ADD41C,0.02362*%
%ADD42C,0.02756*%
G36*
X0330204Y0116346D02*
X0329964Y0116354D01*
X0329334Y0116748D01*
X0329134Y0116848D01*
X0328301Y0116349D01*
X0328046Y0116348D01*
X0328046Y0116863D01*
X0330204Y0116871D01*
X0330204Y0116346D01*
D02*
G37*
G36*
X0323117D02*
X0322877Y0116354D01*
X0322247Y0116748D01*
X0322047Y0116848D01*
X0321214Y0116349D01*
X0320959Y0116348D01*
X0320959Y0116863D01*
X0323117Y0116871D01*
X0323117Y0116346D01*
D02*
G37*
G36*
X0379417D02*
X0379176Y0116354D01*
X0378547Y0116748D01*
X0378346Y0116848D01*
X0377514Y0116349D01*
X0377258Y0116348D01*
X0377258Y0116863D01*
X0379417Y0116871D01*
X0379417Y0116346D01*
D02*
G37*
G36*
X0372330D02*
X0372090Y0116354D01*
X0371460Y0116748D01*
X0371260Y0116848D01*
X0370427Y0116349D01*
X0370172Y0116348D01*
X0370171Y0116863D01*
X0372330Y0116871D01*
X0372330Y0116346D01*
D02*
G37*
G36*
X0421192Y0220147D02*
X0421000Y0219685D01*
X0408661D01*
X0408268Y0220079D01*
X0396850Y0231496D01*
X0366142D01*
Y0219678D01*
X0369619Y0216142D01*
X0388189Y0216142D01*
X0389370Y0214961D01*
X0389370Y0208894D01*
X0389017Y0208541D01*
X0387831D01*
X0387172Y0208410D01*
X0386959Y0208268D01*
X0377575Y0208268D01*
Y0213303D01*
X0371835D01*
Y0208621D01*
X0371481Y0208268D01*
X0361550Y0208268D01*
X0356693Y0213125D01*
X0356693Y0228543D01*
X0353360Y0231599D01*
X0353208Y0231691D01*
X0353061Y0231789D01*
X0353039Y0231793D01*
X0353020Y0231805D01*
X0352845Y0231832D01*
X0352671Y0231867D01*
X0323188D01*
X0322798Y0231789D01*
X0322467Y0231568D01*
X0320145Y0229246D01*
X0319924Y0228915D01*
X0319847Y0228525D01*
Y0218302D01*
X0319924Y0217912D01*
X0320072Y0217691D01*
X0320145Y0217581D01*
X0320472Y0217254D01*
Y0216929D01*
X0327394Y0216929D01*
X0327579Y0216744D01*
Y0216744D01*
X0338437D01*
Y0216929D01*
X0342126D01*
X0344488Y0214567D01*
Y0208541D01*
X0342949D01*
X0342290Y0208410D01*
X0342077Y0208268D01*
X0333440Y0208268D01*
X0333087Y0208621D01*
Y0212910D01*
X0327346D01*
Y0208268D01*
X0320472D01*
Y0208188D01*
X0320145Y0207969D01*
X0319924Y0207638D01*
X0319847Y0207248D01*
Y0199606D01*
X0319847Y0197244D01*
X0319924Y0196854D01*
X0320145Y0196523D01*
X0323819Y0192849D01*
X0324212Y0148492D01*
X0324212Y0148491D01*
X0324212Y0148491D01*
X0324252Y0148297D01*
X0324292Y0148102D01*
X0324293Y0148102D01*
X0324293Y0148101D01*
X0324408Y0147933D01*
X0324517Y0147773D01*
X0324517Y0147773D01*
X0324517Y0147773D01*
X0324683Y0147664D01*
X0324710Y0147646D01*
X0324855Y0147084D01*
Y0147084D01*
X0320704Y0142933D01*
X0320352Y0142407D01*
X0320229Y0141786D01*
Y0140094D01*
X0319965D01*
Y0135600D01*
X0319781Y0135326D01*
X0319767Y0135305D01*
X0319636Y0134646D01*
Y0129134D01*
X0319767Y0128475D01*
X0319965Y0128180D01*
Y0124252D01*
X0319151Y0124090D01*
X0318364Y0123565D01*
X0317839Y0122778D01*
X0317654Y0121850D01*
X0317839Y0120923D01*
X0318364Y0120136D01*
X0319151Y0119610D01*
X0319956Y0119450D01*
Y0116945D01*
X0319939Y0116863D01*
X0319939Y0116348D01*
X0319939Y0116347D01*
X0319939Y0116347D01*
X0319956Y0116266D01*
Y0115852D01*
X0319965D01*
Y0111894D01*
X0320426D01*
Y0111811D01*
X0320549Y0111190D01*
X0320901Y0110664D01*
X0322082Y0109483D01*
X0322608Y0109132D01*
X0323228Y0109008D01*
X0335059D01*
Y0106902D01*
X0345917D01*
Y0106902D01*
X0345940Y0106920D01*
X0346271Y0106854D01*
X0353311D01*
X0353701Y0106932D01*
X0353933Y0107087D01*
X0354331D01*
X0354331Y0116929D01*
X0351575Y0119685D01*
X0331496Y0119685D01*
X0331207Y0119974D01*
Y0120017D01*
X0331164D01*
X0328346Y0122835D01*
X0328346Y0126418D01*
X0328700Y0126772D01*
X0340535D01*
Y0123311D01*
X0346276D01*
Y0126418D01*
X0346629Y0126772D01*
X0357874D01*
X0368504Y0115079D01*
X0368504Y0110630D01*
X0372047Y0107087D01*
X0401968Y0107087D01*
Y0112653D01*
X0395783Y0118932D01*
Y0119996D01*
X0390240D01*
Y0119996D01*
X0390075D01*
Y0119996D01*
X0384531D01*
Y0119685D01*
X0380709D01*
X0380420Y0119974D01*
Y0120017D01*
X0380376D01*
X0377559Y0122835D01*
Y0127412D01*
X0379035D01*
X0379694Y0127543D01*
X0380253Y0127916D01*
X0380541Y0128347D01*
X0390142D01*
Y0123311D01*
X0395882D01*
Y0128347D01*
X0399745D01*
Y0124803D01*
X0399745Y0124803D01*
X0399915Y0123514D01*
X0400266Y0122665D01*
X0400396Y0122353D01*
X0400395Y0121978D01*
X0403267Y0119219D01*
X0410258Y0112227D01*
X0410258Y0112227D01*
X0411290Y0111436D01*
X0411424Y0111380D01*
X0413408Y0109474D01*
X0414961Y0109454D01*
Y0109055D01*
X0447599Y0109055D01*
X0447761Y0108582D01*
X0438296Y0101220D01*
X0354684Y0101220D01*
X0324843D01*
X0274177D01*
X0274177Y0135473D01*
X0274531Y0135827D01*
X0307874Y0135827D01*
X0307874Y0236221D01*
X0308228Y0236575D01*
X0404764D01*
X0421192Y0220147D01*
D02*
G37*
G36*
X0372060Y0115048D02*
X0370460D01*
X0371260Y0115648D01*
X0372060Y0115048D01*
D02*
G37*
G36*
X0355673Y0228095D02*
X0355673Y0213125D01*
X0355751Y0212735D01*
X0355972Y0212404D01*
X0360829Y0207547D01*
X0361160Y0207326D01*
X0361550Y0207248D01*
X0366889Y0207248D01*
Y0207248D01*
X0371481Y0207248D01*
X0371688Y0207289D01*
X0371835Y0207169D01*
Y0207169D01*
X0373917D01*
Y0210236D01*
X0375492D01*
Y0207169D01*
X0383283D01*
Y0207185D01*
X0385808D01*
X0386109Y0206819D01*
Y0204850D01*
X0398017D01*
Y0206819D01*
X0397886Y0207478D01*
X0397689Y0207773D01*
Y0208945D01*
X0395803D01*
Y0209732D01*
X0395016D01*
Y0212268D01*
X0393685D01*
Y0214807D01*
X0393747Y0214849D01*
X0395989Y0217091D01*
X0397761D01*
Y0220164D01*
X0397777Y0220245D01*
X0397777Y0220760D01*
X0397777Y0220761D01*
X0397777Y0220761D01*
X0397761Y0220842D01*
Y0221256D01*
X0397752D01*
Y0225215D01*
X0397291D01*
Y0225590D01*
X0397167Y0226211D01*
X0396816Y0226737D01*
X0396029Y0227525D01*
X0395502Y0227876D01*
X0394882Y0228000D01*
X0383579D01*
Y0229445D01*
X0378370D01*
X0378035Y0229445D01*
X0377953D01*
X0377870D01*
X0377535Y0229445D01*
X0375886D01*
Y0226378D01*
Y0223311D01*
X0377535D01*
X0377634Y0223311D01*
X0377870D01*
D01*
X0377870D01*
X0377953D01*
X0378035D01*
X0378370Y0223311D01*
X0383579D01*
Y0224756D01*
X0385629D01*
X0385781Y0224256D01*
X0385664Y0224178D01*
X0383854Y0222368D01*
X0383382Y0222358D01*
Y0222358D01*
X0383382Y0222358D01*
X0376083D01*
Y0219291D01*
X0375295D01*
Y0218504D01*
X0372524D01*
Y0217515D01*
X0372170Y0217161D01*
X0370047D01*
X0367161Y0220096D01*
Y0230315D01*
X0369291D01*
Y0230315D01*
X0396068D01*
X0407089Y0219294D01*
X0407089Y0219294D01*
X0407810Y0218812D01*
X0408661Y0218642D01*
X0437150D01*
Y0216480D01*
X0430201D01*
Y0215708D01*
X0429847Y0215354D01*
X0426098D01*
Y0216453D01*
X0420555D01*
Y0216453D01*
X0420390D01*
Y0216453D01*
X0414847D01*
Y0215007D01*
X0414567D01*
X0413946Y0214884D01*
X0413420Y0214532D01*
X0399454Y0200567D01*
X0398380D01*
X0397970Y0201067D01*
X0398017Y0201307D01*
Y0203276D01*
X0386109D01*
Y0201307D01*
X0386240Y0200648D01*
X0386339Y0200500D01*
X0386168Y0200084D01*
X0386084Y0200000D01*
X0382988D01*
Y0200492D01*
X0376854D01*
Y0200354D01*
X0376501Y0200000D01*
X0375797D01*
X0376854Y0198142D01*
Y0192701D01*
X0377327D01*
Y0190157D01*
X0377404Y0189767D01*
X0377625Y0189436D01*
X0383529Y0183533D01*
X0383338Y0183071D01*
X0365157Y0183071D01*
X0364711Y0183502D01*
X0352841Y0195372D01*
X0352807Y0195858D01*
X0352807Y0195858D01*
X0352807Y0195858D01*
Y0200353D01*
X0353004Y0200648D01*
X0353135Y0201307D01*
Y0203276D01*
X0341227D01*
Y0201307D01*
X0341358Y0200648D01*
X0341555Y0200353D01*
Y0199960D01*
X0341202Y0199606D01*
X0338106D01*
Y0200492D01*
X0331972D01*
Y0199960D01*
X0331619Y0199606D01*
X0331102D01*
Y0186706D01*
X0351770Y0167000D01*
X0351584Y0166535D01*
X0343537Y0166535D01*
X0325695Y0148314D01*
X0325231Y0148501D01*
X0324835Y0193275D01*
X0320866Y0197244D01*
X0320866Y0199606D01*
Y0207248D01*
X0327346D01*
Y0206776D01*
X0329429D01*
Y0209842D01*
X0331004D01*
Y0206776D01*
X0338795D01*
Y0207087D01*
X0340838D01*
X0341227Y0206587D01*
Y0204850D01*
X0353135D01*
Y0206819D01*
X0353004Y0207478D01*
X0352807Y0207773D01*
Y0208945D01*
X0350921D01*
Y0209732D01*
X0350134D01*
Y0212268D01*
X0348803D01*
Y0214786D01*
X0351007Y0216991D01*
X0352879D01*
Y0220063D01*
X0352895Y0220145D01*
X0352895Y0220660D01*
X0352895Y0220660D01*
X0352895Y0220661D01*
X0352879Y0220742D01*
Y0221156D01*
X0352870D01*
Y0225114D01*
X0352409D01*
Y0225590D01*
X0352286Y0226211D01*
X0351934Y0226737D01*
X0351147Y0227525D01*
X0350621Y0227876D01*
X0350000Y0228000D01*
X0338634D01*
Y0229571D01*
X0333091D01*
Y0229571D01*
X0333090D01*
X0333008D01*
X0332925D01*
X0332925D01*
Y0229571D01*
X0330941D01*
Y0226504D01*
X0330153D01*
Y0225717D01*
X0327382D01*
Y0223437D01*
X0332591D01*
X0332925Y0223437D01*
X0333008D01*
X0333090D01*
X0333425Y0223437D01*
X0333750D01*
X0333775Y0223378D01*
X0333441Y0222878D01*
X0327579D01*
Y0220599D01*
X0330350D01*
Y0219024D01*
X0327579D01*
Y0218101D01*
X0327394Y0217949D01*
X0321220Y0217949D01*
X0320866Y0218302D01*
Y0228525D01*
X0323188Y0230847D01*
X0352671D01*
X0355673Y0228095D01*
D02*
G37*
G36*
X0379147Y0115048D02*
X0377547D01*
X0378346Y0115648D01*
X0379147Y0115048D01*
D02*
G37*
G36*
X0249213Y0192166D02*
X0249213Y0172835D01*
X0181456Y0172835D01*
X0181102Y0173188D01*
X0181102Y0192520D01*
X0248859Y0192520D01*
X0249213Y0192166D01*
D02*
G37*
G36*
X0454770Y0126593D02*
X0454270Y0126424D01*
X0453718Y0127143D01*
X0452687Y0127935D01*
X0452491Y0128016D01*
X0452415Y0128588D01*
X0452805Y0128887D01*
X0453392Y0129651D01*
X0453760Y0130541D01*
X0453782Y0130709D01*
X0446611D01*
X0446633Y0130541D01*
X0447002Y0129651D01*
X0447588Y0128887D01*
X0447978Y0128588D01*
X0447903Y0128016D01*
X0447707Y0127935D01*
X0446676Y0127143D01*
X0442702Y0123170D01*
X0442240Y0123361D01*
Y0127110D01*
X0440996D01*
Y0127866D01*
X0442240D01*
Y0133803D01*
X0442240D01*
X0441990Y0134303D01*
X0442053Y0134398D01*
X0446063D01*
X0446063Y0134398D01*
X0446760Y0134537D01*
X0447352Y0134932D01*
X0451936Y0139516D01*
X0454770D01*
Y0126593D01*
D02*
G37*
G36*
X0464921Y0236221D02*
X0464921Y0101220D01*
X0440727D01*
X0440565Y0101693D01*
X0447999Y0107475D01*
X0448057Y0107487D01*
X0448746Y0107947D01*
X0458194Y0117396D01*
X0458655Y0118085D01*
X0458816Y0118898D01*
X0458655Y0119710D01*
X0458616Y0119769D01*
Y0161417D01*
X0458469Y0162153D01*
X0458052Y0162777D01*
X0457625Y0163063D01*
X0453651Y0167037D01*
X0453060Y0167432D01*
X0452362Y0167570D01*
X0452362Y0167570D01*
X0447638D01*
X0447638Y0167570D01*
X0446940Y0167432D01*
X0446349Y0167037D01*
X0444914Y0165602D01*
X0440945D01*
X0440945Y0165602D01*
X0440247Y0165463D01*
X0439656Y0165068D01*
X0439656Y0165068D01*
X0437885Y0163296D01*
X0437490Y0162705D01*
X0437351Y0162008D01*
X0437351Y0162008D01*
Y0161236D01*
X0436588D01*
X0436238Y0161593D01*
X0436337Y0166674D01*
X0443110D01*
X0443110Y0166674D01*
X0444399Y0166844D01*
X0445248Y0167195D01*
X0445600Y0167341D01*
X0446631Y0168132D01*
X0453718Y0175219D01*
X0454509Y0176250D01*
X0455007Y0177451D01*
X0455176Y0178740D01*
X0455007Y0180029D01*
X0454509Y0181230D01*
X0453718Y0182261D01*
X0452687Y0183053D01*
X0452491Y0183134D01*
X0452415Y0183706D01*
X0452805Y0184006D01*
X0453392Y0184770D01*
X0453760Y0185659D01*
X0453782Y0185827D01*
X0446611D01*
X0446633Y0185659D01*
X0447002Y0184770D01*
X0447588Y0184006D01*
X0447978Y0183706D01*
X0447903Y0183134D01*
X0447707Y0183053D01*
X0446676Y0182261D01*
X0442702Y0178288D01*
X0442240Y0178479D01*
Y0182228D01*
X0440996D01*
Y0182984D01*
X0442240D01*
Y0188921D01*
X0442657Y0189122D01*
X0444771D01*
X0445276Y0189022D01*
X0446011Y0189169D01*
X0446635Y0189585D01*
X0458089Y0201040D01*
X0458517Y0201325D01*
X0458956Y0201982D01*
X0459110Y0202756D01*
Y0216929D01*
X0458956Y0217703D01*
X0458517Y0218360D01*
X0455215Y0221662D01*
X0455204Y0221717D01*
X0454722Y0222439D01*
X0454001Y0222921D01*
X0453150Y0223090D01*
X0419691D01*
X0406668Y0236113D01*
X0406859Y0236575D01*
X0464568D01*
X0464921Y0236221D01*
D02*
G37*
G36*
X0415748Y0147244D02*
X0440158D01*
Y0139370D01*
X0411024D01*
X0400000Y0150394D01*
X0399606Y0150787D01*
X0398661D01*
X0398425Y0150834D01*
X0378346D01*
X0378111Y0150787D01*
X0353150D01*
X0341732Y0139370D01*
Y0138873D01*
X0340691Y0137811D01*
X0334728D01*
Y0137561D01*
X0334701Y0137489D01*
X0334662Y0137423D01*
X0334423Y0137160D01*
X0334228Y0137117D01*
X0334159Y0137119D01*
X0334082Y0137090D01*
X0334000Y0137080D01*
X0331121Y0136120D01*
X0331003Y0136053D01*
X0330877Y0136001D01*
X0330860Y0135984D01*
X0330482Y0136237D01*
X0329823Y0136368D01*
X0328346D01*
Y0141732D01*
Y0142126D01*
X0346457Y0160236D01*
X0402756D01*
X0415748Y0147244D01*
D02*
G37*
G36*
X0375793Y0149606D02*
X0375985Y0149144D01*
X0369916Y0143076D01*
X0369565Y0142550D01*
X0369441Y0141929D01*
Y0140094D01*
X0369177D01*
Y0135600D01*
X0368980Y0135305D01*
X0368849Y0134646D01*
Y0132677D01*
X0380757D01*
Y0134646D01*
X0380626Y0135305D01*
X0380429Y0135600D01*
Y0136261D01*
X0380783Y0136614D01*
X0383941Y0136614D01*
Y0135728D01*
X0390075D01*
Y0136261D01*
X0390428Y0136614D01*
X0391777D01*
X0398563Y0129828D01*
X0398372Y0129366D01*
X0395882D01*
Y0129445D01*
X0393799D01*
Y0126378D01*
X0392224D01*
Y0129445D01*
X0384433D01*
Y0129366D01*
X0380757D01*
Y0131102D01*
X0368849D01*
Y0129134D01*
X0368980Y0128475D01*
X0369177Y0128180D01*
Y0127008D01*
X0371063D01*
Y0126221D01*
X0371850D01*
Y0123685D01*
X0373181D01*
Y0122159D01*
X0371040Y0120017D01*
X0369168D01*
Y0116945D01*
X0369152Y0116863D01*
X0369152Y0116625D01*
X0368652Y0116432D01*
X0358629Y0127457D01*
X0358609Y0127472D01*
X0358595Y0127493D01*
X0358449Y0127590D01*
X0358309Y0127694D01*
X0358285Y0127700D01*
X0358264Y0127714D01*
X0358092Y0127748D01*
X0357923Y0127790D01*
X0357898Y0127786D01*
X0357874Y0127791D01*
X0346629D01*
X0346276Y0128081D01*
Y0129445D01*
X0344193D01*
Y0126378D01*
X0342618D01*
Y0129445D01*
X0334827D01*
Y0128676D01*
X0334473Y0128323D01*
X0331868D01*
X0331483Y0128823D01*
X0331545Y0129134D01*
Y0131102D01*
X0325590D01*
Y0132677D01*
X0331545D01*
Y0134646D01*
X0331444Y0135153D01*
X0334323Y0136113D01*
X0334728Y0135820D01*
Y0135728D01*
X0340862D01*
Y0136614D01*
X0340945D01*
X0353691Y0149606D01*
X0375793Y0149606D01*
D02*
G37*
G36*
X0306299Y0220558D02*
X0306299Y0178953D01*
X0304921D01*
Y0175984D01*
Y0173016D01*
X0305946D01*
X0306299Y0172662D01*
X0306299Y0137402D01*
X0297204Y0137401D01*
X0296850Y0137755D01*
X0296850Y0165748D01*
X0296778D01*
Y0171260D01*
X0292825D01*
Y0172047D01*
X0292037D01*
Y0178559D01*
X0290069D01*
Y0181024D01*
X0290387Y0181237D01*
X0290498Y0181293D01*
X0291206Y0180819D01*
X0291270Y0180807D01*
Y0184547D01*
Y0188288D01*
X0291206Y0188275D01*
X0290498Y0187802D01*
X0290387Y0187858D01*
X0290069Y0188070D01*
Y0189198D01*
X0290423Y0189551D01*
X0291659D01*
Y0194488D01*
X0277455D01*
Y0189941D01*
X0274016D01*
Y0182303D01*
X0272746Y0181034D01*
X0271206Y0179493D01*
X0270854Y0178967D01*
X0270753Y0178461D01*
X0269384D01*
Y0172327D01*
Y0167121D01*
X0269030Y0166768D01*
X0255165D01*
Y0169976D01*
X0255211Y0170457D01*
X0255665Y0170457D01*
X0260935D01*
Y0174409D01*
Y0178362D01*
X0255211D01*
X0255165Y0178843D01*
D01*
Y0204053D01*
X0259867Y0208754D01*
X0260329Y0208563D01*
Y0208154D01*
X0271778D01*
Y0209402D01*
X0274016D01*
Y0207545D01*
X0273799Y0207502D01*
X0273273Y0207151D01*
X0272268Y0206146D01*
X0271768Y0206353D01*
Y0207299D01*
X0263583D01*
Y0204331D01*
Y0201362D01*
X0271768D01*
Y0202709D01*
X0272746D01*
X0273367Y0202832D01*
X0273516Y0202932D01*
X0274016Y0202665D01*
Y0200411D01*
X0277101Y0200415D01*
X0277455Y0200062D01*
Y0196063D01*
X0291659D01*
Y0200435D01*
X0297244Y0200443D01*
X0297244Y0212779D01*
X0301207D01*
Y0218717D01*
X0299663D01*
Y0219768D01*
X0300813D01*
Y0220912D01*
X0305946D01*
X0306299Y0220558D01*
D02*
G37*
G36*
X0455063Y0216091D02*
Y0208758D01*
X0454564Y0208658D01*
X0454509Y0208789D01*
X0453718Y0209820D01*
X0452687Y0210612D01*
X0452491Y0210693D01*
X0452415Y0211265D01*
X0452805Y0211565D01*
X0453392Y0212329D01*
X0453760Y0213218D01*
X0453782Y0213386D01*
X0446611D01*
X0446633Y0213218D01*
X0447002Y0212329D01*
X0447588Y0211565D01*
X0447978Y0211265D01*
X0447903Y0210693D01*
X0447707Y0210612D01*
X0446676Y0209820D01*
X0442702Y0205847D01*
X0442240Y0206038D01*
Y0209787D01*
X0440996D01*
Y0210543D01*
X0442240D01*
Y0216480D01*
X0441196D01*
Y0218642D01*
X0452512D01*
X0455063Y0216091D01*
D02*
G37*
G36*
X0440158Y0201181D02*
Y0193701D01*
X0417717D01*
X0407087Y0183071D01*
X0385433D01*
X0378346Y0190157D01*
X0378346Y0198056D01*
X0378700Y0198409D01*
X0382988D01*
Y0198980D01*
X0386084D01*
X0386474Y0199058D01*
X0386518Y0199087D01*
X0386805Y0199279D01*
X0386853Y0199327D01*
X0386889Y0199363D01*
X0386889D01*
X0386890Y0199364D01*
X0386891Y0199365D01*
X0386891Y0199365D01*
X0387218Y0199707D01*
X0387831Y0199585D01*
X0389764D01*
X0389764Y0194882D01*
X0392126Y0192520D01*
X0401968D01*
X0411024Y0201575D01*
X0439764D01*
X0440158Y0201181D01*
D02*
G37*
G36*
X0289087Y0187795D02*
X0289097Y0187760D01*
X0289127Y0187612D01*
X0289154Y0187571D01*
X0289169Y0187524D01*
X0289264Y0187407D01*
X0289348Y0187281D01*
X0289389Y0187254D01*
X0289420Y0187216D01*
X0289553Y0187144D01*
X0289675Y0187063D01*
X0289675Y0182032D01*
X0289553Y0181950D01*
X0289420Y0181879D01*
X0289389Y0181841D01*
X0289348Y0181813D01*
X0289264Y0181687D01*
X0289169Y0181571D01*
X0289154Y0181523D01*
X0289127Y0181482D01*
X0289097Y0181334D01*
X0289054Y0181190D01*
X0289059Y0181140D01*
X0289049Y0181092D01*
Y0178559D01*
X0288872D01*
Y0165535D01*
X0289675D01*
Y0164567D01*
X0293652Y0164567D01*
X0294006Y0164213D01*
X0294006Y0154331D01*
X0284911Y0154331D01*
X0284557Y0154684D01*
Y0158259D01*
X0284594Y0158267D01*
X0284925Y0158488D01*
X0285278Y0158841D01*
X0285499Y0159172D01*
X0285577Y0159562D01*
X0285577Y0187295D01*
X0285930Y0187795D01*
X0289087Y0187795D01*
D02*
G37*
G36*
X0409055Y0133071D02*
Y0125591D01*
X0414961Y0119685D01*
X0440945D01*
Y0111811D01*
X0412447D01*
X0412131Y0112115D01*
X0411971Y0112217D01*
X0411814Y0112322D01*
X0411804Y0112326D01*
X0410932Y0112995D01*
X0403988Y0119939D01*
X0403979Y0119945D01*
X0403973Y0119954D01*
X0401401Y0122426D01*
X0401377Y0122546D01*
X0401339Y0122740D01*
X0401338Y0122742D01*
X0401338Y0122743D01*
X0401208Y0123055D01*
X0401208Y0123055D01*
X0400908Y0123781D01*
X0400787Y0124695D01*
Y0129134D01*
X0392913Y0137008D01*
X0390551Y0139370D01*
X0384646D01*
Y0137811D01*
X0383941D01*
Y0137811D01*
X0383764Y0137634D01*
X0380783Y0137634D01*
X0380393Y0137556D01*
X0380062Y0137335D01*
X0379708Y0136982D01*
X0379487Y0136651D01*
X0379416Y0136292D01*
X0379035Y0136368D01*
X0377559D01*
Y0142913D01*
Y0143125D01*
X0379710Y0145276D01*
X0396850D01*
X0409055Y0133071D01*
D02*
G37*
G36*
X0400795Y0112391D02*
Y0108106D01*
X0395940D01*
X0395587Y0108460D01*
Y0109449D01*
X0392815D01*
Y0111024D01*
X0395587D01*
Y0113303D01*
X0390593D01*
X0390222Y0113803D01*
X0390227Y0113820D01*
X0390265Y0113862D01*
X0395783D01*
Y0116820D01*
X0396246Y0117009D01*
X0400795Y0112391D01*
D02*
G37*
G36*
X0322847Y0115048D02*
X0321247D01*
X0322047Y0115648D01*
X0322847Y0115048D01*
D02*
G37*
G36*
X0351152Y0118666D02*
X0353311Y0116507D01*
X0353311Y0107874D01*
X0346271D01*
X0345917Y0108228D01*
Y0109181D01*
X0343146D01*
Y0110756D01*
X0345917D01*
Y0113035D01*
X0345917Y0113035D01*
X0345917D01*
X0345917Y0113035D01*
X0346079Y0113469D01*
X0346177D01*
Y0115748D01*
X0343406D01*
Y0117323D01*
X0346177D01*
Y0118312D01*
X0346531Y0118666D01*
X0351152D01*
D02*
G37*
G36*
X0342949Y0199585D02*
X0344488D01*
Y0194095D01*
X0362992Y0175591D01*
X0437835D01*
X0438189Y0175237D01*
X0438189Y0167717D01*
X0353150Y0167717D01*
X0333071Y0187795D01*
Y0198409D01*
X0338106D01*
Y0198587D01*
X0341202D01*
X0341592Y0198664D01*
X0341813Y0198812D01*
X0341922Y0198885D01*
X0342276Y0199239D01*
Y0199239D01*
X0342276D01*
X0342497Y0199570D01*
X0342517Y0199671D01*
X0342949Y0199585D01*
D02*
G37*
G36*
X0284557Y0187442D02*
X0284557Y0159562D01*
X0284204Y0159209D01*
X0279650D01*
Y0154724D01*
X0235827Y0154724D01*
X0235827Y0165394D01*
X0236180Y0165748D01*
X0270731Y0165748D01*
Y0165044D01*
X0270709Y0165029D01*
X0270205Y0164275D01*
X0270028Y0163386D01*
X0270205Y0162496D01*
X0270709Y0161742D01*
X0271463Y0161239D01*
X0272352Y0161062D01*
X0273242Y0161239D01*
X0273996Y0161742D01*
X0274500Y0162496D01*
X0274677Y0163386D01*
X0274500Y0164275D01*
X0273996Y0165029D01*
X0274075Y0165495D01*
X0274328Y0165748D01*
X0277077D01*
Y0180654D01*
X0277908Y0180819D01*
X0278630Y0181301D01*
X0279112Y0182023D01*
X0279281Y0182874D01*
Y0186221D01*
X0279112Y0187072D01*
X0278962Y0187295D01*
X0279229Y0187795D01*
X0284204Y0187795D01*
X0284557Y0187442D01*
D02*
G37*
G36*
X0306299Y0236221D02*
Y0224757D01*
X0300813D01*
Y0225902D01*
X0297598D01*
X0297244Y0226255D01*
Y0226378D01*
X0279921Y0226378D01*
Y0225902D01*
X0279734D01*
Y0222835D01*
Y0219768D01*
X0279921D01*
Y0218717D01*
X0279636D01*
Y0215748D01*
X0278849D01*
Y0214961D01*
X0275781D01*
Y0213386D01*
X0274016D01*
Y0212645D01*
X0271778D01*
Y0213386D01*
Y0213894D01*
X0260329D01*
Y0213386D01*
Y0212645D01*
X0259842D01*
X0259222Y0212522D01*
X0258696Y0212170D01*
X0252397Y0205871D01*
X0252045Y0205345D01*
X0251922Y0204724D01*
Y0193893D01*
X0251568Y0193539D01*
X0246869D01*
X0246369Y0193539D01*
X0245869Y0193539D01*
X0181102Y0193539D01*
X0180712Y0193462D01*
X0180381Y0193241D01*
X0180160Y0192910D01*
X0180083Y0192520D01*
X0180083Y0173188D01*
X0180160Y0172798D01*
X0180381Y0172467D01*
X0180735Y0172114D01*
X0181066Y0171893D01*
X0181456Y0171815D01*
X0220457Y0171815D01*
Y0168783D01*
Y0163287D01*
X0224803D01*
Y0162500D01*
X0225590D01*
Y0155988D01*
X0234807D01*
Y0154724D01*
X0234885Y0154334D01*
X0235106Y0154003D01*
X0235437Y0153782D01*
X0235827Y0153705D01*
X0273662Y0153705D01*
X0274016Y0153351D01*
Y0136685D01*
X0273810Y0136548D01*
X0273456Y0136194D01*
X0273235Y0135863D01*
X0273158Y0135473D01*
Y0135247D01*
X0272804Y0134893D01*
X0270440D01*
X0268349Y0136984D01*
X0268556Y0137484D01*
X0269209D01*
Y0143027D01*
X0269209D01*
Y0143193D01*
X0269209D01*
Y0148736D01*
X0263075D01*
Y0147586D01*
X0262894D01*
X0262273Y0147463D01*
X0261747Y0147111D01*
X0260949Y0146313D01*
X0260449Y0146520D01*
Y0148539D01*
X0258268D01*
Y0145472D01*
X0257480D01*
Y0144685D01*
X0254512D01*
Y0142405D01*
Y0136500D01*
X0260449D01*
Y0137945D01*
X0260827D01*
X0261447Y0138069D01*
X0261974Y0138420D01*
X0262575Y0139022D01*
X0263075Y0138814D01*
Y0137484D01*
X0264319D01*
Y0136614D01*
X0264319Y0136614D01*
X0264458Y0135917D01*
X0264853Y0135326D01*
X0268396Y0131782D01*
X0268396Y0131782D01*
X0268988Y0131387D01*
X0269685Y0131248D01*
X0269685Y0131248D01*
X0273158D01*
X0273158Y0101574D01*
X0272804Y0101220D01*
X0109094Y0101220D01*
X0109094Y0236221D01*
X0109448Y0236575D01*
X0253543D01*
X0305946Y0236575D01*
X0306299Y0236221D01*
D02*
G37*
G36*
X0454770Y0160763D02*
Y0154152D01*
X0454270Y0153983D01*
X0453718Y0154702D01*
X0452687Y0155494D01*
X0452491Y0155575D01*
X0452415Y0156147D01*
X0452805Y0156447D01*
X0453392Y0157211D01*
X0453760Y0158100D01*
X0453782Y0158268D01*
X0446611D01*
X0446633Y0158100D01*
X0447002Y0157211D01*
X0447588Y0156447D01*
X0447978Y0156147D01*
X0447903Y0155575D01*
X0447707Y0155494D01*
X0446676Y0154702D01*
X0442702Y0150729D01*
X0442240Y0150920D01*
Y0154543D01*
X0440996D01*
Y0155299D01*
X0442240D01*
Y0161236D01*
X0441993D01*
X0441744Y0161736D01*
X0441911Y0161957D01*
X0445669D01*
X0445669Y0161957D01*
X0446367Y0162096D01*
X0446958Y0162491D01*
X0448393Y0163926D01*
X0451607D01*
X0454770Y0160763D01*
D02*
G37*
G36*
X0395669Y0221461D02*
X0394869Y0222060D01*
X0396469D01*
X0395669Y0221461D01*
D02*
G37*
G36*
X0388146Y0220654D02*
X0388776Y0220260D01*
X0388976Y0220160D01*
X0389809Y0220659D01*
X0390065Y0220660D01*
X0390065Y0220145D01*
X0387906Y0220137D01*
X0387906Y0220662D01*
X0388146Y0220654D01*
D02*
G37*
G36*
X0394839Y0220754D02*
X0395469Y0220360D01*
X0395669Y0220260D01*
X0396502Y0220760D01*
X0396758Y0220760D01*
X0396758Y0220245D01*
X0394599Y0220238D01*
X0394599Y0220763D01*
X0394839Y0220754D01*
D02*
G37*
G36*
X0344094Y0221360D02*
X0343295Y0221960D01*
X0344895D01*
X0344094Y0221360D01*
D02*
G37*
G36*
X0329934Y0115048D02*
X0328334D01*
X0329134Y0115648D01*
X0329934Y0115048D01*
D02*
G37*
G36*
X0343265Y0220654D02*
X0343895Y0220260D01*
X0344094Y0220160D01*
X0344927Y0220659D01*
X0345183Y0220660D01*
X0345183Y0220145D01*
X0343024Y0220137D01*
X0343024Y0220662D01*
X0343265Y0220654D01*
D02*
G37*
G36*
X0349957D02*
X0350587Y0220260D01*
X0350787Y0220160D01*
X0351620Y0220659D01*
X0351876Y0220660D01*
X0351876Y0220145D01*
X0349717Y0220137D01*
X0349717Y0220662D01*
X0349957Y0220654D01*
D02*
G37*
G36*
X0350787Y0221360D02*
X0349987Y0221960D01*
X0351587D01*
X0350787Y0221360D01*
D02*
G37*
G36*
X0388976D02*
X0388176Y0221960D01*
X0389776D01*
X0388976Y0221360D01*
D02*
G37*
%LPC*%
G36*
X0449409Y0162641D02*
X0449242Y0162619D01*
X0448352Y0162250D01*
X0447588Y0161664D01*
X0447002Y0160900D01*
X0446633Y0160010D01*
X0446611Y0159843D01*
X0449409D01*
Y0162641D01*
D02*
G37*
G36*
X0450984D02*
Y0159843D01*
X0453782D01*
X0453760Y0160010D01*
X0453392Y0160900D01*
X0452805Y0161664D01*
X0452041Y0162250D01*
X0451152Y0162619D01*
X0450984Y0162641D01*
D02*
G37*
G36*
X0224016Y0161713D02*
X0220457D01*
Y0155988D01*
X0224016D01*
Y0161713D01*
D02*
G37*
G36*
X0214386Y0162811D02*
X0198425D01*
Y0154724D01*
X0214386D01*
Y0162811D01*
D02*
G37*
G36*
X0196850D02*
X0180890D01*
Y0154724D01*
X0196850D01*
Y0162811D01*
D02*
G37*
G36*
X0214386Y0153150D02*
X0198425D01*
Y0145063D01*
X0214386D01*
Y0153150D01*
D02*
G37*
G36*
X0256693Y0148539D02*
X0254512D01*
Y0146260D01*
X0256693D01*
Y0148539D01*
D02*
G37*
G36*
X0196850Y0153150D02*
X0180890D01*
Y0145063D01*
X0196850D01*
Y0153150D01*
D02*
G37*
G36*
X0122835Y0124587D02*
X0121882Y0124494D01*
X0120210Y0123986D01*
X0118668Y0123162D01*
X0117317Y0122053D01*
X0116208Y0120702D01*
X0115384Y0119160D01*
X0114876Y0117488D01*
X0114783Y0116535D01*
X0122835D01*
Y0124587D01*
D02*
G37*
G36*
X0124409D02*
Y0116535D01*
X0132461D01*
X0132368Y0117488D01*
X0131860Y0119160D01*
X0131036Y0120702D01*
X0129927Y0122053D01*
X0128576Y0123162D01*
X0127034Y0123986D01*
X0125362Y0124494D01*
X0124409Y0124587D01*
D02*
G37*
G36*
X0370276Y0125433D02*
X0369177D01*
Y0123685D01*
X0370276D01*
Y0125433D01*
D02*
G37*
G36*
X0457874Y0110081D02*
X0457099Y0109979D01*
X0456377Y0109680D01*
X0455757Y0109204D01*
X0455281Y0108584D01*
X0454982Y0107862D01*
X0454880Y0107087D01*
X0454982Y0106312D01*
X0455281Y0105590D01*
X0455757Y0104970D01*
X0456377Y0104494D01*
X0457099Y0104194D01*
X0457874Y0104093D01*
X0458649Y0104194D01*
X0459371Y0104494D01*
X0459991Y0104970D01*
X0460467Y0105590D01*
X0460766Y0106312D01*
X0460868Y0107087D01*
X0460766Y0107862D01*
X0460467Y0108584D01*
X0459991Y0109204D01*
X0459371Y0109680D01*
X0458649Y0109979D01*
X0457874Y0110081D01*
D02*
G37*
G36*
X0122835Y0114961D02*
X0114783D01*
X0114876Y0114008D01*
X0115384Y0112336D01*
X0116208Y0110794D01*
X0117317Y0109443D01*
X0118668Y0108334D01*
X0120210Y0107510D01*
X0121882Y0107002D01*
X0122835Y0106909D01*
Y0114961D01*
D02*
G37*
G36*
X0132461D02*
X0124409D01*
Y0106909D01*
X0125362Y0107002D01*
X0127034Y0107510D01*
X0128576Y0108334D01*
X0129927Y0109443D01*
X0131036Y0110794D01*
X0131860Y0112336D01*
X0132368Y0114008D01*
X0132461Y0114961D01*
D02*
G37*
G36*
X0390075Y0134153D02*
X0387795D01*
Y0132071D01*
X0390075D01*
Y0134153D01*
D02*
G37*
G36*
X0449409Y0135081D02*
X0449242Y0135059D01*
X0448352Y0134691D01*
X0447588Y0134105D01*
X0447002Y0133341D01*
X0446633Y0132451D01*
X0446611Y0132283D01*
X0449409D01*
Y0135081D01*
D02*
G37*
G36*
X0450984D02*
Y0132283D01*
X0453782D01*
X0453760Y0132451D01*
X0453392Y0133341D01*
X0452805Y0134105D01*
X0452041Y0134691D01*
X0451152Y0135059D01*
X0450984Y0135081D01*
D02*
G37*
G36*
X0337008Y0134153D02*
X0334728D01*
Y0132071D01*
X0337008D01*
Y0134153D01*
D02*
G37*
G36*
X0340862D02*
X0338583D01*
Y0132071D01*
X0340862D01*
Y0134153D01*
D02*
G37*
G36*
X0386221Y0134153D02*
X0383941D01*
Y0132071D01*
X0386221D01*
Y0134153D01*
D02*
G37*
G36*
X0449409Y0217759D02*
X0449242Y0217737D01*
X0448352Y0217368D01*
X0447588Y0216782D01*
X0447002Y0216018D01*
X0446633Y0215128D01*
X0446611Y0214961D01*
X0449409D01*
Y0217759D01*
D02*
G37*
G36*
X0132461Y0221260D02*
X0124409D01*
Y0213208D01*
X0125362Y0213302D01*
X0127034Y0213809D01*
X0128576Y0214633D01*
X0129927Y0215742D01*
X0131036Y0217093D01*
X0131860Y0218635D01*
X0132368Y0220308D01*
X0132461Y0221260D01*
D02*
G37*
G36*
X0278061Y0218717D02*
X0275781D01*
Y0216535D01*
X0278061D01*
Y0218717D01*
D02*
G37*
G36*
X0450984Y0217759D02*
Y0214961D01*
X0453782D01*
X0453760Y0215128D01*
X0453392Y0216018D01*
X0452805Y0216782D01*
X0452041Y0217368D01*
X0451152Y0217737D01*
X0450984Y0217759D01*
D02*
G37*
G36*
X0122835Y0221260D02*
X0114783D01*
X0114876Y0220308D01*
X0115384Y0218635D01*
X0116208Y0217093D01*
X0117317Y0215742D01*
X0118668Y0214633D01*
X0120210Y0213809D01*
X0121882Y0213302D01*
X0122835Y0213208D01*
Y0221260D01*
D02*
G37*
G36*
X0262008Y0207299D02*
X0259728D01*
Y0205118D01*
X0262008D01*
Y0207299D01*
D02*
G37*
G36*
X0118110Y0208900D02*
X0117335Y0208798D01*
X0116613Y0208499D01*
X0115993Y0208023D01*
X0115517Y0207403D01*
X0115218Y0206680D01*
X0115116Y0205906D01*
X0115218Y0205131D01*
X0115517Y0204408D01*
X0115993Y0203788D01*
X0116613Y0203312D01*
X0117335Y0203013D01*
X0118110Y0202911D01*
X0118885Y0203013D01*
X0119607Y0203312D01*
X0120227Y0203788D01*
X0120703Y0204408D01*
X0121002Y0205131D01*
X0121104Y0205906D01*
X0121002Y0206680D01*
X0120703Y0207403D01*
X0120227Y0208023D01*
X0119607Y0208499D01*
X0118885Y0208798D01*
X0118110Y0208900D01*
D02*
G37*
G36*
X0397689Y0212268D02*
X0396590D01*
Y0210520D01*
X0397689D01*
Y0212268D01*
D02*
G37*
G36*
X0352807D02*
X0351709D01*
Y0210520D01*
X0352807D01*
Y0212268D01*
D02*
G37*
G36*
X0255118Y0232522D02*
X0254343Y0232420D01*
X0253621Y0232120D01*
X0253001Y0231645D01*
X0252525Y0231025D01*
X0252226Y0230303D01*
X0252124Y0229528D01*
X0252226Y0228753D01*
X0252525Y0228030D01*
X0253001Y0227410D01*
X0253621Y0226935D01*
X0254043Y0226760D01*
X0254343Y0226636D01*
X0255118Y0226533D01*
X0255893Y0226636D01*
X0256615Y0226935D01*
X0257235Y0227410D01*
X0257711Y0228030D01*
X0258010Y0228753D01*
X0258112Y0229528D01*
X0258010Y0230303D01*
X0257711Y0231025D01*
X0257235Y0231645D01*
X0256615Y0232120D01*
X0255893Y0232420D01*
X0255118Y0232522D01*
D02*
G37*
G36*
X0278159Y0225902D02*
X0276175D01*
Y0223622D01*
X0278159D01*
Y0225902D01*
D02*
G37*
G36*
X0329366Y0229571D02*
X0327382D01*
Y0227291D01*
X0329366D01*
Y0229571D01*
D02*
G37*
G36*
X0374311Y0229445D02*
X0372327D01*
Y0227165D01*
X0374311D01*
Y0229445D01*
D02*
G37*
G36*
Y0225590D02*
X0372327D01*
Y0223311D01*
X0374311D01*
Y0225590D01*
D02*
G37*
G36*
X0374508Y0222358D02*
X0372524D01*
Y0220472D01*
Y0220079D01*
X0374508D01*
Y0222358D01*
D02*
G37*
G36*
X0278159Y0222047D02*
X0276175D01*
Y0219768D01*
X0278159D01*
Y0222047D01*
D02*
G37*
G36*
X0124409Y0230887D02*
Y0222835D01*
X0132461D01*
X0132368Y0223787D01*
X0131860Y0225460D01*
X0131036Y0227001D01*
X0129927Y0228352D01*
X0128576Y0229461D01*
X0127034Y0230285D01*
X0125362Y0230793D01*
X0124409Y0230887D01*
D02*
G37*
G36*
X0122835D02*
X0121882Y0230793D01*
X0120210Y0230285D01*
X0118668Y0229461D01*
X0117317Y0228352D01*
X0116208Y0227001D01*
X0115384Y0225460D01*
X0114876Y0223787D01*
X0114783Y0222835D01*
X0122835D01*
Y0230887D01*
D02*
G37*
G36*
X0300787Y0187402D02*
X0298016D01*
Y0181874D01*
X0300787D01*
Y0187402D01*
D02*
G37*
G36*
X0294281Y0183760D02*
X0292845D01*
Y0180807D01*
X0292908Y0180819D01*
X0293630Y0181301D01*
X0294112Y0182023D01*
X0294281Y0182874D01*
Y0183760D01*
D02*
G37*
G36*
X0292845Y0188288D02*
Y0185335D01*
X0294281D01*
Y0186221D01*
X0294112Y0187072D01*
X0293630Y0187793D01*
X0292908Y0188275D01*
X0292845Y0188288D01*
D02*
G37*
G36*
X0305134Y0187402D02*
X0302362D01*
Y0181874D01*
X0305134D01*
Y0187402D01*
D02*
G37*
G36*
X0303346Y0178953D02*
X0301067D01*
Y0176772D01*
X0303346D01*
Y0178953D01*
D02*
G37*
G36*
X0296778Y0178559D02*
X0293612D01*
Y0172835D01*
X0296778D01*
Y0178559D01*
D02*
G37*
G36*
X0268234Y0173622D02*
X0262510D01*
Y0170457D01*
X0268234D01*
Y0171613D01*
Y0173622D01*
D02*
G37*
G36*
X0262510Y0178362D02*
Y0175197D01*
X0268234D01*
Y0178362D01*
X0262510D01*
D02*
G37*
G36*
X0303346Y0175197D02*
X0301067D01*
Y0173016D01*
X0303346D01*
Y0175197D01*
D02*
G37*
G36*
X0338106Y0204150D02*
X0335827D01*
Y0202067D01*
X0338106D01*
Y0204150D01*
D02*
G37*
G36*
X0334252D02*
X0331972D01*
Y0202067D01*
X0334252D01*
Y0204150D01*
D02*
G37*
G36*
X0382988D02*
X0380709D01*
Y0202067D01*
X0382988D01*
Y0204150D01*
D02*
G37*
G36*
X0379134D02*
X0376854D01*
Y0202067D01*
X0379134D01*
Y0204150D01*
D02*
G37*
G36*
X0262008Y0203543D02*
X0259728D01*
Y0201362D01*
X0262008D01*
Y0203543D01*
D02*
G37*
G36*
X0450984Y0190200D02*
Y0187402D01*
X0453782D01*
X0453760Y0187569D01*
X0453392Y0188459D01*
X0452805Y0189223D01*
X0452041Y0189809D01*
X0451152Y0190178D01*
X0450984Y0190200D01*
D02*
G37*
G36*
X0449409D02*
X0449242Y0190178D01*
X0448352Y0189809D01*
X0447588Y0189223D01*
X0447002Y0188459D01*
X0446633Y0187569D01*
X0446611Y0187402D01*
X0449409D01*
Y0190200D01*
D02*
G37*
G36*
X0305134Y0194504D02*
X0302362D01*
Y0188976D01*
X0305134D01*
Y0194504D01*
D02*
G37*
G36*
X0300787D02*
X0298016D01*
Y0188976D01*
X0300787D01*
Y0194504D01*
D02*
G37*
%LPD*%
D10*
X0284557Y0195276D02*
D03*
D11*
X0292057Y0206004D02*
D03*
X0287057D02*
D03*
X0282057D02*
D03*
X0277057D02*
D03*
X0292057Y0184547D02*
D03*
X0287057D02*
D03*
X0282057D02*
D03*
X0277057D02*
D03*
D12*
X0392063Y0204063D02*
D03*
X0325590Y0131890D02*
D03*
X0374803D02*
D03*
X0347181Y0204063D02*
D03*
D13*
X0388323Y0209732D02*
D03*
X0392063D02*
D03*
X0395803D02*
D03*
Y0198394D02*
D03*
X0392063D02*
D03*
X0388323D02*
D03*
X0329331Y0126221D02*
D03*
X0325590D02*
D03*
X0321850D02*
D03*
Y0137559D02*
D03*
X0325590D02*
D03*
X0329331D02*
D03*
X0378543Y0126221D02*
D03*
X0374803D02*
D03*
X0371063D02*
D03*
Y0137559D02*
D03*
X0374803D02*
D03*
X0378543D02*
D03*
X0343441Y0209732D02*
D03*
X0347181D02*
D03*
X0350921D02*
D03*
Y0198394D02*
D03*
X0347181D02*
D03*
X0343441D02*
D03*
D14*
X0304134Y0175984D02*
D03*
X0310039D02*
D03*
X0292234Y0215748D02*
D03*
X0298140D02*
D03*
X0262795Y0204331D02*
D03*
X0268701D02*
D03*
X0278849Y0215748D02*
D03*
X0284754D02*
D03*
X0433268Y0206819D02*
D03*
X0439173D02*
D03*
Y0213512D02*
D03*
X0433268D02*
D03*
X0433268Y0151575D02*
D03*
X0439173D02*
D03*
Y0158268D02*
D03*
X0433268D02*
D03*
X0433268Y0124142D02*
D03*
X0439173D02*
D03*
Y0130835D02*
D03*
X0433268D02*
D03*
Y0179260D02*
D03*
X0439173D02*
D03*
Y0185953D02*
D03*
X0433268D02*
D03*
D15*
X0272352Y0175394D02*
D03*
Y0169488D02*
D03*
X0257480Y0145472D02*
D03*
Y0139567D02*
D03*
D16*
X0312598Y0188189D02*
D03*
X0301575D02*
D03*
D17*
X0292825Y0172047D02*
D03*
X0281014D02*
D03*
D18*
X0261722Y0174409D02*
D03*
Y0162598D02*
D03*
D19*
X0374705Y0210236D02*
D03*
X0380413D02*
D03*
X0343406Y0126378D02*
D03*
X0337697D02*
D03*
X0393012Y0126378D02*
D03*
X0387303D02*
D03*
X0330217Y0209842D02*
D03*
X0335925D02*
D03*
D20*
X0379921Y0201279D02*
D03*
Y0195571D02*
D03*
X0337795Y0134941D02*
D03*
Y0140650D02*
D03*
X0387008Y0134941D02*
D03*
Y0140650D02*
D03*
X0335039Y0201279D02*
D03*
Y0195571D02*
D03*
D21*
X0243307Y0160197D02*
D03*
Y0177598D02*
D03*
D22*
X0224803Y0175295D02*
D03*
Y0162500D02*
D03*
D23*
X0287402Y0154606D02*
D03*
Y0132795D02*
D03*
D24*
X0266142Y0140256D02*
D03*
Y0145965D02*
D03*
D25*
X0298041Y0222835D02*
D03*
X0292333D02*
D03*
X0284656D02*
D03*
X0278947D02*
D03*
X0423327Y0213386D02*
D03*
X0417618D02*
D03*
X0423327Y0206819D02*
D03*
X0417618D02*
D03*
X0380807Y0226378D02*
D03*
X0375098D02*
D03*
X0380610Y0219291D02*
D03*
X0375295D02*
D03*
X0423327Y0158268D02*
D03*
X0417618D02*
D03*
X0423327Y0151575D02*
D03*
X0417618D02*
D03*
X0337697Y0116535D02*
D03*
X0343406D02*
D03*
X0337831Y0109968D02*
D03*
X0343146D02*
D03*
X0423327Y0130709D02*
D03*
X0417618D02*
D03*
X0423327Y0123890D02*
D03*
X0417618D02*
D03*
X0387303Y0116929D02*
D03*
X0393012D02*
D03*
X0387500Y0110236D02*
D03*
X0392815D02*
D03*
X0423327Y0185559D02*
D03*
X0417618D02*
D03*
X0423327Y0178866D02*
D03*
X0417618D02*
D03*
X0335862Y0226504D02*
D03*
X0330153D02*
D03*
X0335665Y0219811D02*
D03*
X0330350D02*
D03*
D26*
X0263199Y0211024D02*
D03*
X0268907D02*
D03*
D27*
X0197638Y0153937D02*
D03*
Y0183858D02*
D03*
D28*
X0457874Y0107087D02*
D03*
X0118110Y0205906D02*
D03*
X0255118Y0229528D02*
D03*
D29*
X0329125Y0117935D02*
D03*
X0329134Y0113976D02*
D03*
X0322038Y0117935D02*
D03*
X0322047Y0113976D02*
D03*
X0378338Y0117935D02*
D03*
X0378346Y0113976D02*
D03*
X0371251Y0117935D02*
D03*
X0371260Y0113976D02*
D03*
X0350796Y0219073D02*
D03*
X0350787Y0223031D02*
D03*
X0344104Y0219073D02*
D03*
X0344094Y0223031D02*
D03*
X0388985Y0219073D02*
D03*
X0388976Y0223031D02*
D03*
X0395678Y0219174D02*
D03*
X0395669Y0223132D02*
D03*
D30*
X0393012Y0126378D02*
Y0131988D01*
X0266142Y0136614D02*
X0269685Y0133071D01*
X0266142Y0136614D02*
Y0140256D01*
X0269685Y0133071D02*
X0276772D01*
X0287313Y0198031D02*
X0292520D01*
X0287313Y0192520D02*
X0292913D01*
X0276378Y0198031D02*
X0281801D01*
X0275197Y0192913D02*
X0282195D01*
X0351969Y0214567D02*
X0352362Y0214173D01*
X0320079Y0121653D02*
Y0121850D01*
Y0121653D02*
X0321850Y0123425D01*
X0347181Y0204063D02*
X0355906D01*
Y0206299D01*
Y0201969D02*
Y0204063D01*
X0371063Y0123031D02*
Y0126772D01*
X0321850Y0123425D02*
Y0126772D01*
X0423327Y0213386D02*
X0433142D01*
X0423327Y0206819D02*
X0433268D01*
X0423327Y0185559D02*
X0432874D01*
X0423327Y0178866D02*
X0432874D01*
X0423327Y0158268D02*
X0433268D01*
X0423327Y0151575D02*
X0433268D01*
X0423327Y0130709D02*
X0433142D01*
X0423579Y0124142D02*
X0433268D01*
X0439173Y0179260D02*
Y0185953D01*
Y0206819D02*
Y0213512D01*
Y0124142D02*
Y0130835D01*
X0439173Y0151575D02*
Y0158268D01*
X0439173Y0130835D02*
Y0134449D01*
X0440945Y0136221D01*
X0439173Y0185953D02*
Y0188779D01*
X0441339Y0190945D01*
X0445276D01*
X0395803Y0209181D02*
Y0213126D01*
X0350921Y0209181D02*
Y0213520D01*
X0370079Y0122047D02*
X0371063Y0123031D01*
X0350921Y0213520D02*
X0351969Y0214567D01*
X0395803Y0213126D02*
X0397244Y0214567D01*
X0447638Y0165748D02*
X0452362D01*
X0456693Y0161417D01*
X0439173Y0158268D02*
Y0162008D01*
X0316929Y0211417D02*
Y0227165D01*
X0451181Y0141339D02*
X0456693D01*
X0440945Y0136221D02*
X0446063D01*
X0451181Y0141339D01*
X0445669Y0163779D02*
X0447638Y0165748D01*
X0439173Y0162008D02*
X0440945Y0163779D01*
X0445669D01*
X0393012Y0110433D02*
Y0116929D01*
X0393209Y0110236D02*
X0398425D01*
X0393012Y0110433D02*
X0393209Y0110236D01*
X0343406Y0116535D02*
X0348425D01*
X0324803Y0220079D02*
X0330083D01*
X0316929Y0227165D02*
X0322835Y0233071D01*
X0370079Y0219291D02*
X0375008D01*
D31*
X0180890Y0141339D02*
Y0167717D01*
X0214386Y0140553D02*
Y0167717D01*
D32*
X0257480Y0145472D02*
Y0148031D01*
X0261811Y0140551D02*
Y0144882D01*
X0260827Y0139567D02*
X0261811Y0140551D01*
X0257480Y0139567D02*
X0260827D01*
X0261811Y0144882D02*
X0262894Y0145965D01*
X0266142D01*
X0347181Y0215458D02*
X0350796Y0219073D01*
X0284655Y0222835D02*
X0291939D01*
X0292057Y0206004D02*
Y0222835D01*
X0272746Y0204331D02*
X0274419Y0206004D01*
X0277057D01*
X0281754Y0206169D02*
Y0208315D01*
X0279045Y0211024D02*
X0281754Y0208315D01*
X0268907Y0211024D02*
X0279045D01*
X0287057Y0206004D02*
Y0210098D01*
X0284754Y0212402D02*
X0287057Y0210098D01*
X0284754Y0212402D02*
Y0216929D01*
X0272352Y0163386D02*
Y0169095D01*
X0298041Y0215846D02*
Y0222835D01*
X0255030Y0162598D02*
X0261722D01*
X0272352Y0175000D02*
Y0178347D01*
X0277057Y0183051D01*
Y0184547D01*
X0253543Y0164085D02*
X0255030Y0162598D01*
X0253543Y0164085D02*
Y0204724D01*
X0259842Y0211024D01*
X0263199D01*
X0268701Y0204331D02*
X0272746D01*
X0282057Y0173091D02*
Y0184547D01*
X0374803Y0121469D02*
Y0126772D01*
Y0121469D02*
X0378338Y0117935D01*
X0374785Y0121469D02*
X0374803D01*
X0371251Y0117935D02*
X0374785Y0121469D01*
X0325590Y0121881D02*
Y0126378D01*
X0322038Y0118328D02*
X0325590Y0121881D01*
X0329125Y0118346D01*
X0322047Y0111811D02*
Y0114370D01*
X0329331Y0126378D02*
X0337697D01*
X0378543Y0126772D02*
X0386910D01*
X0322047Y0111811D02*
X0323228Y0110630D01*
X0337831D01*
X0329134Y0114370D02*
X0329724Y0113779D01*
X0331496D01*
X0334252Y0116535D01*
X0392063Y0209181D02*
Y0215996D01*
X0388985Y0219073D02*
X0392063Y0215996D01*
X0392601D01*
X0395678Y0219073D01*
X0344104D02*
X0347181Y0215996D01*
Y0209181D02*
Y0215458D01*
Y0215996D01*
X0395669Y0223031D02*
Y0225590D01*
X0394882Y0226378D02*
X0395669Y0225590D01*
X0380587Y0226378D02*
X0394882D01*
X0380413Y0210236D02*
X0387268D01*
X0335925Y0209842D02*
X0342779D01*
X0411811Y0158268D02*
X0417618D01*
X0411024Y0127559D02*
X0414693Y0123890D01*
X0417618D01*
X0414173Y0130709D02*
X0417618D01*
X0414961Y0151575D02*
X0417618D01*
X0392063Y0196069D02*
Y0198945D01*
Y0196069D02*
X0393644Y0194488D01*
X0395803Y0198945D02*
X0400126D01*
X0414567Y0213386D01*
X0417618D01*
X0393644Y0194488D02*
X0399606D01*
X0411937Y0206819D01*
X0417618D01*
X0371063Y0137008D02*
Y0141929D01*
X0347181Y0195732D02*
Y0198945D01*
X0350921Y0194999D02*
Y0198945D01*
X0413512Y0185559D02*
X0417618D01*
X0334252Y0116535D02*
X0337697D01*
X0335862Y0226504D02*
X0335988Y0226630D01*
X0380784Y0219358D02*
X0383138D01*
X0386811Y0223031D01*
X0388976D01*
X0335665Y0219811D02*
X0338709D01*
X0341929Y0223031D01*
X0344094D01*
X0374803Y0137008D02*
Y0142663D01*
X0411024Y0127559D02*
Y0133608D01*
X0413150Y0131732D02*
X0414173Y0130709D01*
X0413150Y0131732D02*
Y0134488D01*
X0371063Y0141929D02*
X0378346Y0149213D01*
X0398425D01*
X0413150Y0134488D01*
X0374803Y0142663D02*
X0379227Y0147087D01*
X0397545D01*
X0411024Y0133608D01*
X0417209Y0178118D02*
X0417618Y0178528D01*
X0347181Y0195732D02*
X0364795Y0178118D01*
X0417209D01*
X0350921Y0194999D02*
X0365605Y0180315D01*
X0408268D01*
X0413512Y0185559D01*
X0378346Y0113976D02*
X0381299D01*
X0384252Y0116929D01*
X0387303D01*
X0372047Y0110630D02*
X0387500D01*
X0371260Y0111417D02*
Y0113976D01*
Y0111417D02*
X0372047Y0110630D01*
X0335862Y0226378D02*
X0350000D01*
X0350787Y0225590D01*
Y0223031D02*
Y0225590D01*
X0403937Y0162598D02*
X0414961Y0151575D01*
X0405354Y0164724D02*
X0411811Y0158268D01*
X0325590Y0137008D02*
Y0142520D01*
X0345669Y0162598D01*
X0403937D01*
X0321850Y0141786D02*
X0344789Y0164724D01*
X0321850Y0137008D02*
Y0141786D01*
X0344789Y0164724D02*
X0405354D01*
D33*
X0298041Y0222835D02*
X0311024D01*
X0445276Y0190945D02*
X0457087Y0202756D01*
X0456693Y0118898D02*
Y0161417D01*
D34*
X0394685Y0140748D02*
X0404724Y0130709D01*
X0337652Y0143163D02*
X0350000Y0155512D01*
X0441535Y0197638D02*
X0450197Y0206299D01*
X0387339Y0191008D02*
X0390945Y0187402D01*
X0403543D01*
X0413779Y0197638D01*
X0441535D01*
X0404724Y0124803D02*
Y0130709D01*
X0413386Y0143307D02*
X0442323D01*
X0450197Y0151181D01*
X0404724Y0124803D02*
X0413779Y0115748D01*
X0442323D01*
X0450197Y0123622D01*
X0350000Y0155512D02*
X0401181D01*
X0413386Y0143307D01*
X0443110Y0171653D02*
X0450197Y0178740D01*
X0342260Y0190024D02*
X0360630Y0171653D01*
X0443110D01*
D35*
X0457087Y0202756D02*
Y0216929D01*
X0453150Y0220866D02*
X0457087Y0216929D01*
X0439173Y0213512D02*
Y0220866D01*
D36*
X0453150D01*
X0408661D02*
X0439173D01*
X0396457Y0233071D02*
X0408661Y0220866D01*
X0322835Y0233071D02*
X0396457D01*
D37*
X0411417Y0109449D02*
X0447244D01*
X0456693Y0118898D01*
D38*
X0123622Y0222047D02*
D03*
Y0115748D02*
D03*
D39*
X0450197Y0123622D02*
D03*
Y0131496D02*
D03*
Y0151181D02*
D03*
Y0159055D02*
D03*
Y0178740D02*
D03*
Y0186614D02*
D03*
Y0206299D02*
D03*
Y0214173D02*
D03*
D40*
X0288888Y0197441D02*
D03*
Y0193110D02*
D03*
X0284557Y0197441D02*
D03*
Y0193110D02*
D03*
X0280226Y0197441D02*
D03*
Y0193110D02*
D03*
X0271654Y0185433D02*
D03*
X0303150Y0234646D02*
D03*
Y0231102D02*
D03*
Y0227559D02*
D03*
X0269685Y0127165D02*
D03*
Y0123228D02*
D03*
Y0119291D02*
D03*
Y0115354D02*
D03*
Y0111417D02*
D03*
Y0107480D02*
D03*
Y0103543D02*
D03*
X0272352Y0163386D02*
D03*
X0289764D02*
D03*
X0348031Y0134252D02*
D03*
Y0131102D02*
D03*
X0348819Y0116142D02*
D03*
X0348425Y0110236D02*
D03*
X0398425D02*
D03*
X0393307Y0132283D02*
D03*
X0324410Y0205118D02*
D03*
Y0201969D02*
D03*
X0324803Y0220079D02*
D03*
Y0225984D02*
D03*
X0355906Y0206299D02*
D03*
Y0201969D02*
D03*
X0376772Y0186614D02*
D03*
X0371654D02*
D03*
X0366142D02*
D03*
X0366535Y0145276D02*
D03*
X0360630D02*
D03*
X0354331D02*
D03*
X0365748Y0134252D02*
D03*
Y0129921D02*
D03*
D41*
X0183465Y0142126D02*
D03*
X0192913D02*
D03*
X0187795D02*
D03*
X0202362Y0165748D02*
D03*
X0301575Y0140945D02*
D03*
Y0144095D02*
D03*
Y0147244D02*
D03*
X0258661Y0186614D02*
D03*
Y0191732D02*
D03*
X0268898Y0181496D02*
D03*
X0263779D02*
D03*
X0258661D02*
D03*
Y0196457D02*
D03*
X0301969Y0209449D02*
D03*
Y0206299D02*
D03*
Y0203150D02*
D03*
X0273228Y0220866D02*
D03*
X0197638Y0142126D02*
D03*
X0207087D02*
D03*
X0212598D02*
D03*
X0202756D02*
D03*
X0183465Y0165748D02*
D03*
X0211811D02*
D03*
X0188189D02*
D03*
X0192913D02*
D03*
X0207087D02*
D03*
X0197638D02*
D03*
D42*
X0397244Y0214567D02*
D03*
X0352362Y0214173D02*
D03*
X0370079Y0122047D02*
D03*
X0320079Y0121850D02*
D03*
X0369685Y0204724D02*
D03*
Y0200787D02*
D03*
X0370079Y0219291D02*
D03*
Y0226378D02*
D03*
X0401181Y0207480D02*
D03*
X0404331Y0211024D02*
D03*
X0407480Y0214567D02*
D03*
M02*
