M48
;Layer_Color=6321
;FILE_FORMAT=2:5
INCH
;TYPE=PLATED
T1F00S00C0.01378
T2F00S00C0.01575
T3F00S00C0.03150
T4F00S00C0.11024
%
T01
X0272352Y0163386
T02
X0183465Y0142126
X0187795
X0192913
X0197638
X0202756
X0207087
X0212598
X0269685Y0127165
Y0123228
Y0119291
Y0115354
Y0111417
Y0107480
Y0103543
X0301575Y0140945
Y0144095
Y0147244
X0320079Y0121850
X0348819Y0116142
X0348425Y0110236
X0348031Y0131102
Y0134252
X0354331Y0145276
X0360630
X0366535
X0365748Y0134252
Y0129921
X0370079Y0122047
X0393307Y0132283
X0398425Y0110236
X0376772Y0186614
X0371654
X0366142
X0369685Y0200787
Y0204724
X0370079Y0219291
Y0226378
X0352362Y0214173
X0355906Y0206299
Y0201969
X0324410
Y0205118
X0324803Y0220079
Y0225984
X0397244Y0214567
X0407480
X0404331Y0211024
X0401181Y0207480
X0301969Y0206299
Y0203150
Y0209449
X0303150Y0227559
Y0231102
Y0234646
X0273228Y0220866
X0280226Y0197441
X0284557
X0288888
Y0193110
X0284557
X0280226
X0271654Y0185433
X0268898Y0181496
X0263779
X0258661
Y0186614
Y0191732
Y0196457
X0289764Y0163386
X0211811Y0165748
X0207087
X0202362
X0197638
X0192913
X0188189
X0183465
T03
X0450197Y0123622
Y0131496
Y0151181
Y0159055
Y0178740
Y0186614
Y0206299
Y0214173
T04
X0123622Y0115748
Y0222047
M30
