G04 Layer_Physical_Order=2*
G04 Layer_Color=16724787*
%FSAX24Y24*%
%MOIN*%
G70*
G01*
G75*
%ADD32C,0.0394*%
%ADD33R,0.0394X0.0394*%
%ADD34C,0.1969*%
G04:AMPARAMS|DCode=35|XSize=78.7mil|YSize=118.1mil|CornerRadius=11.8mil|HoleSize=0mil|Usage=FLASHONLY|Rotation=90.000|XOffset=0mil|YOffset=0mil|HoleType=Round|Shape=RoundedRectangle|*
%AMROUNDEDRECTD35*
21,1,0.0787,0.0945,0,0,90.0*
21,1,0.0551,0.1181,0,0,90.0*
1,1,0.0236,0.0472,0.0276*
1,1,0.0236,0.0472,-0.0276*
1,1,0.0236,-0.0472,-0.0276*
1,1,0.0236,-0.0472,0.0276*
%
%ADD35ROUNDEDRECTD35*%
%ADD36C,0.0256*%
%ADD37C,0.0236*%
%ADD38C,0.0276*%
G36*
X045433Y023657D02*
Y023657D01*
X045482Y023654D01*
X045599Y023645D01*
X045761Y023606D01*
X045914Y023543D01*
X046056Y023456D01*
X046182Y023348D01*
X046290Y023221D01*
X046377Y023080D01*
X046441Y022926D01*
X046480Y022764D01*
X046489Y022647D01*
X046492Y022598D01*
X046492D01*
X046492Y022598D01*
X046492Y011231D01*
X046492Y011181D01*
X046492Y011181D01*
Y011181D01*
Y011181D01*
X046489Y011132D01*
X046480Y011015D01*
X046441Y010854D01*
X046377Y010700D01*
X046290Y010558D01*
X046182Y010432D01*
X046056Y010324D01*
X045914Y010237D01*
X045761Y010173D01*
X045599Y010134D01*
X045435Y010122D01*
X045433Y010122D01*
X016299Y010122D01*
X016297Y010122D01*
X016133Y010134D01*
X015972Y010173D01*
X015818Y010237D01*
X015676Y010324D01*
X015550Y010432D01*
X015442Y010558D01*
X015355Y010700D01*
X015291Y010854D01*
X015253Y011015D01*
X015240Y011179D01*
X015240Y011181D01*
X015240Y022598D01*
X015240Y022601D01*
X015253Y022764D01*
X015291Y022926D01*
X015355Y023080D01*
X015442Y023221D01*
X015550Y023348D01*
X015676Y023456D01*
X015818Y023543D01*
X015972Y023606D01*
X016133Y023645D01*
X016251Y023654D01*
X016299Y023657D01*
X016299D01*
X016299D01*
X016299Y023657D01*
X016349Y023657D01*
X016349Y023657D01*
X016349Y023657D01*
X016349Y023657D01*
X045433Y023658D01*
X045433Y023657D01*
D02*
G37*
%LPC*%
G36*
X018905Y014888D02*
X017960D01*
X017875Y014871D01*
X017803Y014823D01*
X017754Y014750D01*
X017737Y014665D01*
Y014114D01*
X017754Y014029D01*
X017803Y013957D01*
X017875Y013909D01*
X017960Y013892D01*
X018905D01*
X018990Y013909D01*
X019062Y013957D01*
X019110Y014029D01*
X019127Y014114D01*
Y014665D01*
X019110Y014750D01*
X019062Y014823D01*
X018990Y014871D01*
X018905Y014888D01*
D02*
G37*
G36*
X044155Y013053D02*
X043937D01*
Y012835D01*
X044155D01*
Y013053D01*
D02*
G37*
G36*
X043366Y015811D02*
X043289Y015801D01*
X043216Y015771D01*
X043154Y015724D01*
X043107Y015662D01*
X043077Y015589D01*
X043067Y015512D01*
X043077Y015434D01*
X043107Y015362D01*
X043154Y015300D01*
X043216Y015253D01*
X043289Y015223D01*
X043366Y015212D01*
X043444Y015223D01*
X043511Y015251D01*
X043548Y015238D01*
X043561Y015231D01*
Y015215D01*
X043780D01*
Y015512D01*
Y015809D01*
X043561D01*
Y015793D01*
X043548Y015786D01*
X043511Y015773D01*
X043444Y015801D01*
X043366Y015811D01*
D02*
G37*
G36*
X044155Y015809D02*
X043937D01*
Y015591D01*
X044155D01*
Y015809D01*
D02*
G37*
G36*
Y015433D02*
X043937D01*
Y015215D01*
X044155D01*
Y015433D01*
D02*
G37*
G36*
Y012677D02*
X043937D01*
Y012459D01*
X044155D01*
Y012677D01*
D02*
G37*
G36*
X017774Y011496D02*
X016772D01*
Y010493D01*
X016863Y010501D01*
X017029Y010540D01*
X017187Y010606D01*
X017332Y010695D01*
X017462Y010806D01*
X017573Y010936D01*
X017662Y011081D01*
X017727Y011239D01*
X017767Y011405D01*
X017774Y011496D01*
D02*
G37*
G36*
X016614D02*
X015611D01*
X015619Y011405D01*
X015659Y011239D01*
X015724Y011081D01*
X015813Y010936D01*
X015924Y010806D01*
X016054Y010695D01*
X016199Y010606D01*
X016357Y010540D01*
X016523Y010501D01*
X016614Y010493D01*
Y011496D01*
D02*
G37*
G36*
Y012656D02*
X016523Y012649D01*
X016357Y012609D01*
X016199Y012544D01*
X016054Y012455D01*
X015924Y012344D01*
X015813Y012214D01*
X015724Y012069D01*
X015659Y011911D01*
X015619Y011745D01*
X015611Y011654D01*
X016614D01*
Y012656D01*
D02*
G37*
G36*
X043366Y013055D02*
X043289Y013045D01*
X043216Y013015D01*
X043154Y012968D01*
X043107Y012906D01*
X043077Y012833D01*
X043067Y012756D01*
X043077Y012678D01*
X043107Y012606D01*
X043154Y012544D01*
X043216Y012497D01*
X043289Y012467D01*
X043366Y012456D01*
X043444Y012467D01*
X043511Y012495D01*
X043548Y012482D01*
X043561Y012475D01*
Y012459D01*
X043780D01*
Y012756D01*
Y013053D01*
X043561D01*
Y013037D01*
X043548Y013030D01*
X043511Y013017D01*
X043444Y013045D01*
X043366Y013055D01*
D02*
G37*
G36*
X016772Y012656D02*
Y011654D01*
X017774D01*
X017767Y011745D01*
X017727Y011911D01*
X017662Y012069D01*
X017573Y012214D01*
X017462Y012344D01*
X017332Y012455D01*
X017187Y012544D01*
X017029Y012609D01*
X016863Y012649D01*
X016772Y012656D01*
D02*
G37*
G36*
X016614Y022126D02*
X015611D01*
X015619Y022035D01*
X015659Y021869D01*
X015724Y021711D01*
X015813Y021565D01*
X015924Y021436D01*
X016054Y021325D01*
X016199Y021236D01*
X016357Y021170D01*
X016523Y021131D01*
X016614Y021123D01*
Y022126D01*
D02*
G37*
G36*
X044155Y021320D02*
X043937D01*
Y021102D01*
X044155D01*
Y021320D01*
D02*
G37*
G36*
X017774Y022126D02*
X016772D01*
Y021123D01*
X016863Y021131D01*
X017029Y021170D01*
X017187Y021236D01*
X017332Y021325D01*
X017462Y021436D01*
X017573Y021565D01*
X017662Y021711D01*
X017727Y021869D01*
X017767Y022035D01*
X017774Y022126D01*
D02*
G37*
G36*
X016772Y023286D02*
Y022283D01*
X017774D01*
X017767Y022375D01*
X017727Y022541D01*
X017662Y022698D01*
X017573Y022844D01*
X017462Y022974D01*
X017332Y023085D01*
X017187Y023174D01*
X017029Y023239D01*
X016863Y023279D01*
X016772Y023286D01*
D02*
G37*
G36*
X016614D02*
X016523Y023279D01*
X016357Y023239D01*
X016199Y023174D01*
X016054Y023085D01*
X015924Y022974D01*
X015813Y022844D01*
X015724Y022698D01*
X015659Y022541D01*
X015619Y022375D01*
X015611Y022283D01*
X016614D01*
Y023286D01*
D02*
G37*
G36*
X044155Y020945D02*
X043937D01*
Y020727D01*
X044155D01*
Y020945D01*
D02*
G37*
G36*
Y018189D02*
X043937D01*
Y017971D01*
X044155D01*
Y018189D01*
D02*
G37*
G36*
X043366Y018567D02*
X043289Y018557D01*
X043216Y018527D01*
X043154Y018479D01*
X043107Y018417D01*
X043077Y018345D01*
X043067Y018268D01*
X043077Y018190D01*
X043107Y018118D01*
X043154Y018056D01*
X043216Y018008D01*
X043289Y017979D01*
X043366Y017968D01*
X043444Y017979D01*
X043511Y018007D01*
X043548Y017993D01*
X043561Y017987D01*
Y017971D01*
X043780D01*
Y018268D01*
Y018565D01*
X043561D01*
Y018549D01*
X043548Y018542D01*
X043511Y018529D01*
X043444Y018557D01*
X043366Y018567D01*
D02*
G37*
G36*
X044155Y018565D02*
X043937D01*
Y018346D01*
X044155D01*
Y018565D01*
D02*
G37*
G36*
X043366Y021323D02*
X043289Y021313D01*
X043216Y021283D01*
X043154Y021235D01*
X043107Y021173D01*
X043077Y021101D01*
X043067Y021024D01*
X043077Y020946D01*
X043107Y020874D01*
X043154Y020812D01*
X043216Y020764D01*
X043289Y020734D01*
X043366Y020724D01*
X043444Y020734D01*
X043511Y020762D01*
X043548Y020749D01*
X043561Y020743D01*
Y020727D01*
X043780D01*
Y021024D01*
Y021320D01*
X043561D01*
Y021304D01*
X043548Y021298D01*
X043511Y021285D01*
X043444Y021313D01*
X043366Y021323D01*
D02*
G37*
G36*
X018905Y019988D02*
X017960D01*
X017875Y019971D01*
X017803Y019923D01*
X017754Y019850D01*
X017737Y019765D01*
Y019214D01*
X017754Y019129D01*
X017803Y019057D01*
X017875Y019009D01*
X017960Y018992D01*
X018905D01*
X018990Y019009D01*
X019062Y019057D01*
X019110Y019129D01*
X019127Y019214D01*
Y019765D01*
X019110Y019850D01*
X019062Y019923D01*
X018990Y019971D01*
X018905Y019988D01*
D02*
G37*
%LPD*%
D32*
X043366Y021024D02*
D03*
Y012756D02*
D03*
Y015512D02*
D03*
Y018268D02*
D03*
D33*
X043858Y021024D02*
D03*
Y012756D02*
D03*
Y015512D02*
D03*
Y018268D02*
D03*
D34*
X016693Y022205D02*
D03*
Y011575D02*
D03*
D35*
X018432Y014390D02*
D03*
Y019490D02*
D03*
D36*
X039961Y020906D02*
D03*
Y020591D02*
D03*
Y020276D02*
D03*
X040315Y020591D02*
D03*
X028889Y019744D02*
D03*
X028456D02*
D03*
Y019311D02*
D03*
X028023Y019744D02*
D03*
Y019311D02*
D03*
X030315Y023465D02*
D03*
Y023110D02*
D03*
Y022756D02*
D03*
X026969Y012717D02*
D03*
Y012323D02*
D03*
Y011929D02*
D03*
Y011535D02*
D03*
Y011142D02*
D03*
Y010748D02*
D03*
Y010354D02*
D03*
X034803Y013425D02*
D03*
Y013110D02*
D03*
X034882Y011614D02*
D03*
X034843Y011024D02*
D03*
X039843D02*
D03*
X039331Y013228D02*
D03*
X032480Y022008D02*
D03*
Y022598D02*
D03*
X037677Y018661D02*
D03*
X037165D02*
D03*
X036614D02*
D03*
X031811Y013425D02*
D03*
Y013110D02*
D03*
Y012795D02*
D03*
Y012441D02*
D03*
X032362Y013189D02*
D03*
X032717D02*
D03*
X037283D02*
D03*
X037638D02*
D03*
X034528Y020394D02*
D03*
X034921Y020406D02*
D03*
X039016Y020394D02*
D03*
X039409D02*
D03*
X038465Y020512D02*
D03*
Y020197D02*
D03*
X033976Y020551D02*
D03*
Y020157D02*
D03*
X034803Y013740D02*
D03*
X034488D02*
D03*
Y013425D02*
D03*
Y013110D02*
D03*
X036732Y012835D02*
D03*
Y013150D02*
D03*
Y013465D02*
D03*
X035472Y020091D02*
D03*
Y020406D02*
D03*
Y020721D02*
D03*
X035748Y020079D02*
D03*
Y020394D02*
D03*
Y020709D02*
D03*
X032323Y019882D02*
D03*
Y020197D02*
D03*
Y020512D02*
D03*
X032677Y019882D02*
D03*
Y020197D02*
D03*
Y020512D02*
D03*
X040315Y020906D02*
D03*
Y021220D02*
D03*
X036417Y012835D02*
D03*
Y013150D02*
D03*
Y013465D02*
D03*
X029961Y014055D02*
D03*
Y014370D02*
D03*
Y014685D02*
D03*
X030354Y014055D02*
D03*
Y014370D02*
D03*
Y014685D02*
D03*
X027244Y021693D02*
D03*
Y022008D02*
D03*
Y022323D02*
D03*
X028889Y019311D02*
D03*
X027165Y018543D02*
D03*
D37*
X025866Y018661D02*
D03*
Y019173D02*
D03*
X026378Y018150D02*
D03*
X025866D02*
D03*
Y019646D02*
D03*
X030197Y020945D02*
D03*
Y020630D02*
D03*
Y020315D02*
D03*
X026890Y018150D02*
D03*
X019567Y014606D02*
D03*
Y014882D02*
D03*
Y015157D02*
D03*
Y015433D02*
D03*
Y015709D02*
D03*
Y015984D02*
D03*
Y016260D02*
D03*
X024882Y020472D02*
D03*
Y020748D02*
D03*
X025327Y017126D02*
D03*
X025315Y017441D02*
D03*
Y017756D02*
D03*
D38*
X039724Y021457D02*
D03*
X035236Y021417D02*
D03*
X037008Y012205D02*
D03*
X032008Y012185D02*
D03*
X037008Y021929D02*
D03*
Y022638D02*
D03*
X040000Y022283D02*
D03*
M02*
