M48
;Layer_Color=6321
;FILE_FORMAT=2:4
INCH
;TYPE=PLATED
T1F00S00C0.0157
T2F00S00C0.0177
T3F00S00C0.0197
T5F00S00C0.1220
%
T01
X026969Y010354
Y010748
Y011142
Y011535
Y011929
Y012323
Y012717
X029961Y014055
Y014370
Y014685
X030354
Y014370
Y014055
X031811Y013425
Y013110
Y012795
Y012441
X032008Y012185
X032362Y013189
X032717
X034488Y013110
X034803
Y013425
Y013740
X034488
Y013425
X036417Y013465
X036732
Y013150
Y012835
X036417
Y013150
X037283Y013189
X037638
X037008Y012205
X034882Y011614
X034843Y011024
X039843
X039331Y013228
X037677Y018661
X037165
X036614
X035748Y020079
X035472Y020091
Y020406
X035748Y020394
Y020709
X035472Y020721
X034921Y020406
X034528Y020394
X033976Y020551
Y020157
X032677Y020197
Y019882
X032323
Y020197
Y020512
X032677
X032480Y022008
Y022598
X035236Y021417
X037008Y021929
Y022638
X040000Y022283
X039724Y021457
X039961Y020906
Y020591
Y020276
X039409Y020394
X039016
X038465Y020512
Y020197
X040315Y020591
Y020906
Y021220
X030197Y020945
Y020630
Y020315
X028889Y019744
X028456
Y019311
X028023
Y019744
X028889Y019311
X027165Y018543
X026890Y018150
X026378
X025866
Y018661
Y019173
Y019646
X027244Y021693
Y022008
Y022323
X030315Y022756
Y023110
Y023465
T02
X019567Y014606
Y014882
Y015157
Y015433
Y015709
Y015984
Y016260
X025327Y017126
X025315Y017441
Y017756
X024882Y020472
Y020748
T03
X043366Y012756
X043858
Y015512
X043366
Y018268
X043858
Y021024
X043366
T05
X016693Y011575
Y022205
M30
