G04 Layer_Color=20142*
%FSAX24Y24*%
%MOIN*%
G70*
G01*
G75*
G04:AMPARAMS|DCode=43|XSize=106.4mil|YSize=76.9mil|CornerRadius=10.9mil|HoleSize=0mil|Usage=FLASHONLY|Rotation=180.000|XOffset=0mil|YOffset=0mil|HoleType=Round|Shape=RoundedRectangle|*
%AMROUNDEDRECTD43*
21,1,0.1064,0.0551,0,0,180.0*
21,1,0.0846,0.0769,0,0,180.0*
1,1,0.0218,-0.0423,0.0276*
1,1,0.0218,0.0423,0.0276*
1,1,0.0218,0.0423,-0.0276*
1,1,0.0218,-0.0423,-0.0276*
%
%ADD43ROUNDEDRECTD43*%
%ADD44R,0.0257X0.0387*%
%ADD45R,0.0493X0.0474*%
%ADD46R,0.0434X0.0493*%
%ADD47R,0.1300X0.1025*%
%ADD48O,0.0316X0.0651*%
%ADD49R,0.0474X0.0493*%
%ADD50R,0.0592X0.1143*%
%ADD51R,0.0671X0.1182*%
%ADD52R,0.1182X0.0671*%
%ADD53R,0.0454X0.0493*%
%ADD54R,0.0493X0.0454*%
%ADD55R,0.1160X0.0930*%
%ADD56R,0.0749X0.1182*%
%ADD57R,0.1430X0.0800*%
%ADD58R,0.0454X0.0454*%
%ADD59R,0.0493X0.0434*%
%ADD60R,0.0297X0.0297*%
%ADD61R,0.3230X0.1655*%
%ADD62C,0.0474*%
%ADD63R,0.0474X0.0474*%
%ADD64C,0.2049*%
G04:AMPARAMS|DCode=65|XSize=86.7mil|YSize=126.1mil|CornerRadius=15.8mil|HoleSize=0mil|Usage=FLASHONLY|Rotation=90.000|XOffset=0mil|YOffset=0mil|HoleType=Round|Shape=RoundedRectangle|*
%AMROUNDEDRECTD65*
21,1,0.0867,0.0945,0,0,90.0*
21,1,0.0551,0.1261,0,0,90.0*
1,1,0.0316,0.0472,0.0276*
1,1,0.0316,0.0472,-0.0276*
1,1,0.0316,-0.0472,-0.0276*
1,1,0.0316,-0.0472,0.0276*
%
%ADD65ROUNDEDRECTD65*%
%ADD66C,0.0336*%
D43*
X032559Y013189D02*
D03*
X037480D02*
D03*
X034718Y020406D02*
D03*
X039206D02*
D03*
D44*
X032933Y012622D02*
D03*
X032559D02*
D03*
X032185D02*
D03*
Y013756D02*
D03*
X032559D02*
D03*
X032933D02*
D03*
X037854Y012622D02*
D03*
X037480D02*
D03*
X037106D02*
D03*
Y013756D02*
D03*
X037480D02*
D03*
X037854D02*
D03*
X034344Y020973D02*
D03*
X034718D02*
D03*
X035092D02*
D03*
Y019839D02*
D03*
X034718D02*
D03*
X034344D02*
D03*
X038832Y020973D02*
D03*
X039206D02*
D03*
X039580D02*
D03*
Y019839D02*
D03*
X039206D02*
D03*
X038832D02*
D03*
D45*
X024154Y013858D02*
D03*
X024744D02*
D03*
X030374Y017244D02*
D03*
X030965D02*
D03*
X029223Y021575D02*
D03*
X029814D02*
D03*
X026280Y020433D02*
D03*
X026870D02*
D03*
X027885Y021575D02*
D03*
X028475D02*
D03*
D46*
X025974Y013858D02*
D03*
X026545D02*
D03*
X029804Y022283D02*
D03*
X029233D02*
D03*
X028466D02*
D03*
X027895D02*
D03*
X038081Y022638D02*
D03*
X037510D02*
D03*
X038061Y021929D02*
D03*
X037530D02*
D03*
X033770Y011654D02*
D03*
X034341D02*
D03*
X033783Y010997D02*
D03*
X034315D02*
D03*
X038730Y011693D02*
D03*
X039301D02*
D03*
X038750Y011024D02*
D03*
X039281D02*
D03*
X033586Y022650D02*
D03*
X033015D02*
D03*
X033567Y021981D02*
D03*
X033035D02*
D03*
D47*
X028456Y019528D02*
D03*
D48*
X029206Y020600D02*
D03*
X028706D02*
D03*
X028206D02*
D03*
X027706D02*
D03*
X029206Y018455D02*
D03*
X028706D02*
D03*
X028206D02*
D03*
X027706D02*
D03*
D49*
X027235Y017539D02*
D03*
Y016949D02*
D03*
X042087Y021319D02*
D03*
Y020728D02*
D03*
Y015807D02*
D03*
Y015217D02*
D03*
Y013051D02*
D03*
Y012461D02*
D03*
Y018563D02*
D03*
Y017972D02*
D03*
D50*
X031220Y019488D02*
D03*
X030118D02*
D03*
X031220Y018189D02*
D03*
X030118D02*
D03*
D51*
X029282Y017205D02*
D03*
X028101D02*
D03*
D52*
X026220Y017441D02*
D03*
Y016260D02*
D03*
D53*
X037470Y021024D02*
D03*
X038041D02*
D03*
X034341Y012638D02*
D03*
X033770D02*
D03*
X039301Y012638D02*
D03*
X038730D02*
D03*
X033022Y020984D02*
D03*
X033593D02*
D03*
D54*
X037992Y020128D02*
D03*
Y019557D02*
D03*
X033780Y013494D02*
D03*
Y014065D02*
D03*
X038701Y013494D02*
D03*
Y014065D02*
D03*
X033504Y020128D02*
D03*
Y019557D02*
D03*
D55*
X024370Y015114D02*
D03*
Y016854D02*
D03*
D56*
Y018376D02*
D03*
Y019656D02*
D03*
D57*
X028740Y015461D02*
D03*
Y013280D02*
D03*
D58*
X026320Y021102D02*
D03*
X026891D02*
D03*
D59*
X041299Y020738D02*
D03*
Y021309D02*
D03*
Y015226D02*
D03*
Y015797D02*
D03*
Y012470D02*
D03*
Y013041D02*
D03*
Y017982D02*
D03*
Y018553D02*
D03*
D60*
X032912Y011793D02*
D03*
X032913Y011398D02*
D03*
X032204Y011793D02*
D03*
X032205Y011398D02*
D03*
X037834Y011793D02*
D03*
X037835Y011398D02*
D03*
X037125Y011793D02*
D03*
X037126Y011398D02*
D03*
X035080Y021907D02*
D03*
X035079Y022303D02*
D03*
X034410Y021907D02*
D03*
X034409Y022303D02*
D03*
X038899Y021907D02*
D03*
X038898Y022303D02*
D03*
X039568Y021917D02*
D03*
X039567Y022313D02*
D03*
D61*
X021535Y018386D02*
D03*
Y015394D02*
D03*
D62*
X043366Y021024D02*
D03*
Y012756D02*
D03*
Y015512D02*
D03*
Y018268D02*
D03*
D63*
X043858Y021024D02*
D03*
Y012756D02*
D03*
Y015512D02*
D03*
Y018268D02*
D03*
D64*
X016693Y022205D02*
D03*
Y011575D02*
D03*
D65*
X018432Y014390D02*
D03*
Y019490D02*
D03*
D66*
X028889Y019744D02*
D03*
X028456D02*
D03*
Y019311D02*
D03*
X028023Y019744D02*
D03*
Y019311D02*
D03*
X028889D02*
D03*
M02*
