G04 Layer_Physical_Order=1*
G04 Layer_Color=35562*
%FSAX24Y24*%
%MOIN*%
G70*
G01*
G75*
G04:AMPARAMS|DCode=10|XSize=98.4mil|YSize=68.9mil|CornerRadius=6.9mil|HoleSize=0mil|Usage=FLASHONLY|Rotation=180.000|XOffset=0mil|YOffset=0mil|HoleType=Round|Shape=RoundedRectangle|*
%AMROUNDEDRECTD10*
21,1,0.0984,0.0551,0,0,180.0*
21,1,0.0846,0.0689,0,0,180.0*
1,1,0.0138,-0.0423,0.0276*
1,1,0.0138,0.0423,0.0276*
1,1,0.0138,0.0423,-0.0276*
1,1,0.0138,-0.0423,-0.0276*
%
%ADD10ROUNDEDRECTD10*%
%ADD11R,0.0177X0.0307*%
%ADD12R,0.0413X0.0394*%
%ADD13R,0.0354X0.0413*%
%ADD14R,0.1220X0.0945*%
%ADD15O,0.0236X0.0571*%
%ADD16R,0.0394X0.0413*%
%ADD17R,0.0512X0.1063*%
%ADD18R,0.0591X0.1102*%
%ADD19R,0.1102X0.0591*%
%ADD20R,0.0374X0.0413*%
%ADD21R,0.0413X0.0374*%
%ADD22R,0.1080X0.0850*%
%ADD23R,0.0669X0.1102*%
%ADD24R,0.1350X0.0720*%
%ADD25R,0.0374X0.0374*%
%ADD26R,0.0413X0.0354*%
%ADD27R,0.0217X0.0217*%
%ADD28R,0.3150X0.1575*%
%ADD29C,0.0118*%
%ADD30C,0.0157*%
%ADD31C,0.0177*%
%ADD32C,0.0394*%
%ADD33R,0.0394X0.0394*%
%ADD34C,0.1969*%
G04:AMPARAMS|DCode=35|XSize=78.7mil|YSize=118.1mil|CornerRadius=11.8mil|HoleSize=0mil|Usage=FLASHONLY|Rotation=90.000|XOffset=0mil|YOffset=0mil|HoleType=Round|Shape=RoundedRectangle|*
%AMROUNDEDRECTD35*
21,1,0.0787,0.0945,0,0,90.0*
21,1,0.0551,0.1181,0,0,90.0*
1,1,0.0236,0.0472,0.0276*
1,1,0.0236,0.0472,-0.0276*
1,1,0.0236,-0.0472,-0.0276*
1,1,0.0236,-0.0472,0.0276*
%
%ADD35ROUNDEDRECTD35*%
%ADD36C,0.0256*%
%ADD37C,0.0236*%
%ADD38C,0.0276*%
G36*
X037942Y011635D02*
X037918Y011635D01*
X037855Y011675D01*
X037835Y011685D01*
X037751Y011635D01*
X037726Y011635D01*
X037726Y011686D01*
X037942Y011687D01*
X037942Y011635D01*
D02*
G37*
G36*
X037233D02*
X037209Y011635D01*
X037146Y011675D01*
X037126Y011685D01*
X037043Y011635D01*
X037017Y011635D01*
X037017Y011686D01*
X037233Y011687D01*
X037233Y011635D01*
D02*
G37*
G36*
X045433Y023657D02*
Y023657D01*
X045482Y023654D01*
X045599Y023645D01*
X045761Y023606D01*
X045914Y023543D01*
X046056Y023456D01*
X046182Y023348D01*
X046290Y023221D01*
X046377Y023080D01*
X046441Y022926D01*
X046480Y022764D01*
X046489Y022647D01*
X046492Y022598D01*
X046492D01*
X046492Y022598D01*
X046492Y011231D01*
X046492Y011181D01*
X046492Y011181D01*
Y011181D01*
Y011181D01*
X046489Y011132D01*
X046480Y011015D01*
X046441Y010854D01*
X046377Y010700D01*
X046290Y010558D01*
X046182Y010432D01*
X046056Y010324D01*
X045914Y010237D01*
X045761Y010173D01*
X045599Y010134D01*
X045435Y010122D01*
X045433Y010122D01*
X045098D01*
X045063Y010157D01*
Y013496D01*
X045064Y013504D01*
X045063Y013512D01*
X045063Y021882D01*
X045064Y021890D01*
X045063Y021898D01*
Y021929D01*
X045055Y021968D01*
X045033Y022001D01*
X045014Y022014D01*
X045011Y022019D01*
X044952Y022058D01*
X044882Y022072D01*
X042244D01*
X042174Y022058D01*
X042115Y022019D01*
X042115Y022019D01*
X041958Y021861D01*
X041918Y021802D01*
X041904Y021732D01*
X041904Y021732D01*
Y021626D01*
X041790D01*
Y021012D01*
Y020900D01*
X041606D01*
Y021015D01*
X041606D01*
Y021032D01*
X041606D01*
Y021586D01*
X040993D01*
Y021471D01*
X040932Y021459D01*
X040879Y021424D01*
X040751Y021296D01*
X040716Y021243D01*
X040704Y021181D01*
Y020736D01*
X040024Y020057D01*
X039838D01*
X039797Y020107D01*
X039802Y020131D01*
Y020328D01*
X038611D01*
Y020131D01*
X038593Y020109D01*
X038566Y020100D01*
X038560D01*
X038551Y020096D01*
X038541Y020094D01*
X038533Y020089D01*
X038524Y020085D01*
X038514Y020078D01*
X038465Y020068D01*
X038415Y020078D01*
X038406Y020085D01*
X038396Y020089D01*
X038388Y020094D01*
X038378Y020096D01*
X038369Y020100D01*
X038359D01*
X038349Y020102D01*
X038334D01*
X038299Y020131D01*
Y020415D01*
X038071D01*
Y020128D01*
X037992D01*
Y020049D01*
X037685D01*
Y019841D01*
Y019270D01*
X037733D01*
Y019016D01*
X037740Y018977D01*
X037763Y018944D01*
X038348Y018358D01*
X038329Y018312D01*
X036510D01*
X035284Y019537D01*
X035281Y019586D01*
X035281Y019586D01*
X035281Y019586D01*
Y020035D01*
X035300Y020065D01*
X035314Y020131D01*
Y020328D01*
X034123D01*
Y020131D01*
X034121Y020093D01*
X034108Y020088D01*
X034096Y020085D01*
X034090Y020080D01*
X034084Y020078D01*
X034026Y020039D01*
X033976Y020029D01*
X033927Y020039D01*
X033917Y020045D01*
X033903Y020051D01*
X033890Y020058D01*
X033885Y020059D01*
X033881Y020061D01*
X033866D01*
X033851Y020062D01*
X033827Y020079D01*
X033811Y020102D01*
Y020415D01*
X033583D01*
Y020128D01*
X033504D01*
Y020049D01*
X033197D01*
Y019937D01*
X033189Y019935D01*
X033156Y019913D01*
X033134Y019880D01*
X033126Y019841D01*
X033126Y018780D01*
X033134Y018741D01*
X033156Y018707D01*
X035277Y016586D01*
X035258Y016540D01*
X034384D01*
X034322Y016528D01*
X034270Y016493D01*
X032786Y015009D01*
X032740Y015028D01*
X032740Y019173D01*
X032732Y019212D01*
X032710Y019245D01*
X032149Y019806D01*
Y020725D01*
X032699D01*
X032735Y020689D01*
Y020678D01*
X032943D01*
Y020984D01*
X033100D01*
Y020678D01*
X033880D01*
Y020725D01*
X034092D01*
X034115Y020696D01*
X034123Y020675D01*
Y020485D01*
X035314D01*
Y020682D01*
X035300Y020748D01*
X035281Y020777D01*
Y020894D01*
X035092D01*
Y020973D01*
X035013D01*
Y021227D01*
X034880D01*
Y021479D01*
X035101Y021699D01*
X035288D01*
Y022006D01*
X035290Y022015D01*
X035290Y022066D01*
X035290Y022066D01*
X035290Y022066D01*
X035288Y022074D01*
Y022116D01*
X035287D01*
Y022511D01*
X035241D01*
Y022559D01*
X035229Y022621D01*
X035193Y022674D01*
X035115Y022752D01*
X035062Y022788D01*
X035000Y022800D01*
X033863D01*
Y022957D01*
X033343D01*
X033309Y022957D01*
X033301D01*
X033293D01*
X033259Y022957D01*
X033094D01*
Y022650D01*
X033015D01*
Y022572D01*
X032738D01*
Y022344D01*
X033259D01*
X033293Y022344D01*
X033301D01*
X033309D01*
X033343Y022344D01*
X033863D01*
Y022476D01*
X034075D01*
X034090Y022426D01*
X034078Y022418D01*
X033890Y022229D01*
X033844Y022249D01*
Y022288D01*
X032758D01*
Y022060D01*
X033035D01*
Y021902D01*
X032758D01*
Y021810D01*
X032739Y021795D01*
X032185Y021795D01*
X032149Y021830D01*
Y022753D01*
X032444Y023048D01*
X035308Y023048D01*
X035567Y022809D01*
X035567Y021312D01*
X035575Y021273D01*
X035597Y021240D01*
X036083Y020755D01*
X036116Y020733D01*
X036155Y020725D01*
X037148Y020725D01*
X037169Y020729D01*
X037183Y020717D01*
Y020717D01*
X037392D01*
Y021024D01*
X037549D01*
Y020717D01*
X038328D01*
Y020717D01*
X038336Y020725D01*
X038580D01*
X038612Y020686D01*
X038611Y020682D01*
Y020485D01*
X039802D01*
Y020682D01*
X039789Y020748D01*
X039769Y020777D01*
Y020894D01*
X039580D01*
Y020973D01*
X039502D01*
Y021227D01*
X039368D01*
Y021481D01*
X039375Y021485D01*
X039599Y021709D01*
X039776D01*
Y022016D01*
X039778Y022025D01*
X039778Y022076D01*
X039778Y022076D01*
X039778Y022076D01*
X039776Y022084D01*
Y022126D01*
X039775D01*
Y022521D01*
X039729D01*
Y022559D01*
X039717Y022621D01*
X039682Y022674D01*
X039603Y022752D01*
X039550Y022788D01*
X039488Y022800D01*
X038358D01*
Y022944D01*
X037837D01*
X037804Y022944D01*
X037795D01*
X037787D01*
X037754Y022944D01*
X037589D01*
Y022638D01*
Y022331D01*
X037754D01*
X037787Y022331D01*
X037795D01*
X037804D01*
X037837Y022331D01*
X038358D01*
Y022476D01*
X038563D01*
X038578Y022426D01*
X038566Y022418D01*
X038385Y022237D01*
X038338Y022236D01*
Y022236D01*
X038338Y022236D01*
X037608D01*
Y021929D01*
X037530D01*
Y021850D01*
X037252D01*
Y021751D01*
X037217Y021716D01*
X037005D01*
X036716Y022010D01*
Y023307D01*
X036716Y023307D01*
Y023622D01*
X036745Y023658D01*
X045433Y023658D01*
X045433Y023657D01*
D02*
G37*
G36*
X036614Y023622D02*
Y023307D01*
X036614D01*
Y021968D01*
X036962Y021614D01*
X038819Y021614D01*
X038937Y021496D01*
X038937Y020889D01*
X038902Y020854D01*
X038783D01*
X038717Y020841D01*
X038696Y020827D01*
X037757Y020827D01*
Y021330D01*
X037183D01*
Y020862D01*
X037148Y020827D01*
X036155Y020827D01*
X035669Y021312D01*
X035669Y022854D01*
X035347Y023150D01*
X032402Y023150D01*
X032047Y022795D01*
Y021693D01*
X032739Y021693D01*
X032758Y021674D01*
Y021674D01*
X033844D01*
Y021693D01*
X034213D01*
X034449Y021457D01*
Y020854D01*
X034295D01*
X034229Y020841D01*
X034208Y020827D01*
X033344Y020827D01*
X033309Y020862D01*
Y021291D01*
X032735D01*
Y020827D01*
X032047D01*
Y019764D01*
X032638Y019173D01*
X032638Y014861D01*
X032070Y014293D01*
X032035Y014241D01*
X032023Y014179D01*
Y014009D01*
X031996D01*
Y013636D01*
X031946Y013609D01*
X031900Y013640D01*
X031811Y013658D01*
X031722Y013640D01*
X031647Y013590D01*
X031596Y013514D01*
X031579Y013425D01*
X031596Y013336D01*
X031642Y013268D01*
X031596Y013199D01*
X031579Y013110D01*
X031596Y013021D01*
X031642Y012953D01*
X031596Y012884D01*
X031579Y012795D01*
X031596Y012706D01*
X031631Y012655D01*
X031643Y012618D01*
X031631Y012581D01*
X031596Y012530D01*
X031579Y012441D01*
X031596Y012352D01*
X031647Y012277D01*
X031722Y012226D01*
X031740Y012223D01*
X031765Y012185D01*
X031784Y012092D01*
X031836Y012014D01*
X031915Y011961D01*
X031996Y011945D01*
Y011694D01*
X031994Y011686D01*
X031994Y011635D01*
X031994Y011635D01*
X031994Y011635D01*
X031996Y011627D01*
Y011585D01*
X031996D01*
Y011189D01*
X032043D01*
Y011181D01*
X032055Y011119D01*
X032090Y011066D01*
X032208Y010948D01*
X032261Y010913D01*
X032323Y010901D01*
X033506D01*
Y010690D01*
X034592D01*
Y010709D01*
X035433D01*
X035433Y011693D01*
X035157Y011968D01*
X033150Y011969D01*
X033121Y011997D01*
Y012002D01*
X033116D01*
X032835Y012283D01*
X032835Y012642D01*
X032870Y012677D01*
X034054D01*
Y012331D01*
X034628D01*
Y012642D01*
X034663Y012677D01*
X035787D01*
X036850Y011508D01*
X036850Y011063D01*
X037205Y010709D01*
X040236Y010709D01*
Y011225D01*
X039578Y011893D01*
Y012000D01*
X039024D01*
Y012000D01*
X039007D01*
Y012000D01*
X038453D01*
Y011968D01*
X038071D01*
X038042Y011997D01*
Y012002D01*
X038038D01*
X037756Y012283D01*
Y012741D01*
X037904D01*
X037969Y012754D01*
X038025Y012792D01*
X038054Y012835D01*
X039014D01*
Y012331D01*
X039588D01*
Y012835D01*
X039927D01*
X039962Y012799D01*
X039960Y012274D01*
X041582Y010716D01*
X041579Y010709D01*
X044646Y010709D01*
X044646Y021894D01*
X044681Y021929D01*
X044961Y021929D01*
X044961Y010122D01*
X035468Y010122D01*
X030508D01*
X027520D01*
X027520Y013259D01*
X027570Y013307D01*
X029646D01*
Y013311D01*
X029681Y013346D01*
X030787Y013346D01*
X030787Y023657D01*
X036579Y023658D01*
X036614Y023622D01*
D02*
G37*
G36*
X037915Y011505D02*
X037755D01*
X037835Y011565D01*
X037915Y011505D01*
D02*
G37*
G36*
X037206D02*
X037046D01*
X037126Y011565D01*
X037206Y011505D01*
D02*
G37*
G36*
X033020Y011635D02*
X032996Y011635D01*
X032933Y011675D01*
X032913Y011685D01*
X032830Y011635D01*
X032805Y011635D01*
X032805Y011686D01*
X033020Y011687D01*
X033020Y011635D01*
D02*
G37*
G36*
X032312D02*
X032288Y011635D01*
X032225Y011675D01*
X032205Y011685D01*
X032121Y011635D01*
X032096Y011635D01*
X032096Y011686D01*
X032312Y011687D01*
X032312Y011635D01*
D02*
G37*
G36*
X043661Y021693D02*
Y021320D01*
X043561D01*
Y020727D01*
X043626D01*
X043661Y020691D01*
X043661Y019327D01*
X043626Y019291D01*
X041457Y019291D01*
X040996Y018830D01*
X040993D01*
Y018827D01*
X040477Y018312D01*
X038539D01*
X037835Y019016D01*
X037835Y019806D01*
X037870Y019841D01*
X038299D01*
Y019965D01*
X038334Y020000D01*
X038349D01*
X038376Y019982D01*
X038465Y019964D01*
X038554Y019982D01*
X038580Y020000D01*
X038675D01*
X038717Y019972D01*
X038783Y019958D01*
X039018D01*
Y019586D01*
X039769D01*
Y019606D01*
X040000D01*
X040135Y019741D01*
X040153Y019745D01*
X040206Y019780D01*
X040943Y020516D01*
X040993Y020496D01*
Y020461D01*
X041606D01*
Y020576D01*
X041790D01*
Y020422D01*
X042383D01*
Y021012D01*
Y021626D01*
X042348D01*
X042322Y021676D01*
X042335Y021693D01*
X043661Y021693D01*
D02*
G37*
G36*
X044544Y016082D02*
Y013686D01*
X043832D01*
X043803Y013722D01*
X043803Y015180D01*
X043838Y015215D01*
X044155D01*
Y015433D01*
X043858D01*
Y015591D01*
X044155D01*
Y015809D01*
X043832D01*
X043803Y015844D01*
Y016102D01*
X043815Y016117D01*
X044508D01*
X044544Y016082D01*
D02*
G37*
G36*
X040993Y015875D02*
Y015520D01*
X040993D01*
Y015504D01*
X040993D01*
Y014949D01*
X041606D01*
Y015064D01*
X041790D01*
Y014910D01*
X042383D01*
Y015500D01*
Y016067D01*
X042419Y016102D01*
X043651D01*
X043701Y016102D01*
Y015844D01*
X043701Y015844D01*
X043665Y015809D01*
X043561D01*
Y015215D01*
X043669D01*
X043701Y015180D01*
X043701Y013957D01*
Y013722D01*
X043665Y013686D01*
X042244D01*
X042174Y013672D01*
X042158Y013661D01*
X041135Y013661D01*
X039800Y014997D01*
X039747Y015032D01*
X039685Y015044D01*
X037795D01*
X037772Y015039D01*
X035472Y015039D01*
X035364Y014931D01*
X034365Y013932D01*
X034361Y013929D01*
X034324Y013905D01*
X034313Y013888D01*
X034313Y013888D01*
X034302Y013871D01*
X034302Y013871D01*
X034296Y013863D01*
X034180Y013747D01*
X034172Y013742D01*
X034163Y013740D01*
X034086D01*
Y013781D01*
X033473D01*
Y013740D01*
X033031D01*
Y013678D01*
X033002Y013642D01*
X032982Y013637D01*
X032748D01*
Y014009D01*
X032347D01*
Y014111D01*
X034452Y016216D01*
X040651D01*
X040993Y015875D01*
D02*
G37*
G36*
X024921Y019217D02*
X024921Y016535D01*
X019799Y016535D01*
X019764Y016571D01*
X019764Y019252D01*
X023900Y019252D01*
X023935Y019217D01*
Y019004D01*
X024805D01*
Y019252D01*
X024886D01*
X024921Y019217D01*
D02*
G37*
G36*
X044544Y021672D02*
Y019237D01*
X043782D01*
X043755Y019287D01*
X043756Y019288D01*
X043763Y019327D01*
X043763Y020691D01*
X043780Y020711D01*
Y021024D01*
Y021320D01*
X043763D01*
Y021693D01*
X043775Y021708D01*
X044508D01*
X044544Y021672D01*
D02*
G37*
G36*
X028456Y018744D02*
X028456Y015921D01*
X027965D01*
Y015438D01*
X025984D01*
X025922Y015425D01*
X025870Y015390D01*
X025051Y014572D01*
X023729D01*
X023666Y014634D01*
Y015523D01*
X023965Y015822D01*
X024803D01*
X024865Y015834D01*
X024918Y015870D01*
X025623Y016575D01*
X027708Y016575D01*
X027708Y018065D01*
X027791Y018082D01*
X027863Y018130D01*
X027911Y018202D01*
X027928Y018287D01*
Y018622D01*
X027911Y018707D01*
X027896Y018730D01*
X027923Y018780D01*
X028420Y018780D01*
X028456Y018744D01*
D02*
G37*
G36*
X028968Y018780D02*
X028968Y017891D01*
X028932Y017856D01*
X028887D01*
Y016554D01*
X028968D01*
Y016457D01*
X029365Y016457D01*
X029401Y016421D01*
X029401Y015433D01*
X028491Y015433D01*
X028456Y015468D01*
Y015819D01*
X028495Y015827D01*
X028528Y015849D01*
X028550Y015882D01*
X028558Y015921D01*
X028558Y018730D01*
X028593Y018780D01*
X028968Y018780D01*
D02*
G37*
G36*
X037497Y014812D02*
X036992Y014308D01*
X036956Y014255D01*
X036944Y014193D01*
Y014009D01*
X036918D01*
Y013560D01*
X036898Y013530D01*
X036885Y013465D01*
Y013268D01*
X038076D01*
Y013465D01*
X038072Y013481D01*
X038104Y013520D01*
X038394D01*
Y013207D01*
X038622D01*
Y013494D01*
X038701D01*
Y013573D01*
X039007D01*
Y013770D01*
X039025Y013782D01*
X039057Y013790D01*
X039219Y013629D01*
X039861Y012987D01*
X039841Y012937D01*
X039588D01*
Y012944D01*
X039380D01*
Y012638D01*
X039222D01*
Y012944D01*
X038443D01*
Y012937D01*
X038076D01*
Y013110D01*
X036885D01*
Y012913D01*
X036898Y012847D01*
X036918Y012818D01*
Y012701D01*
X037106D01*
Y012622D01*
X037185D01*
Y012369D01*
X037318D01*
Y012216D01*
X037104Y012002D01*
X036917D01*
Y011694D01*
X036915Y011686D01*
X036915Y011662D01*
X036865Y011643D01*
X035863Y012746D01*
X035861Y012747D01*
X035859Y012749D01*
X035845Y012759D01*
X035831Y012769D01*
X035828Y012770D01*
X035826Y012771D01*
X035809Y012775D01*
X035792Y012779D01*
X035790Y012779D01*
X035787Y012779D01*
X034663D01*
X034628Y012808D01*
Y012944D01*
X034419D01*
Y012638D01*
X034262D01*
Y012944D01*
X033483D01*
Y012800D01*
X033170D01*
X033142Y012847D01*
X033142Y012850D01*
X033154Y012913D01*
Y013110D01*
X031964D01*
Y012913D01*
X031977Y012847D01*
X031996Y012818D01*
Y012701D01*
X032185D01*
Y012622D01*
X032264D01*
Y012369D01*
X032397D01*
Y012255D01*
X032143Y012002D01*
X032080D01*
X032073Y012009D01*
X032068Y012017D01*
X032059Y012023D01*
X032052Y012030D01*
X032043Y012034D01*
X032035Y012039D01*
X032025Y012041D01*
X032015Y012045D01*
X031955Y012057D01*
X031910Y012087D01*
X031880Y012132D01*
X031865Y012205D01*
X031850Y012242D01*
X031850Y012242D01*
X031825Y012279D01*
X031825Y012279D01*
X031797Y012307D01*
X031763Y012321D01*
X031720Y012350D01*
X031692Y012392D01*
X031683Y012441D01*
X031692Y012490D01*
X031716Y012525D01*
X031721Y012538D01*
X031728Y012550D01*
X031740Y012587D01*
X031741Y012599D01*
X031744Y012610D01*
X031743Y012618D01*
X031744Y012626D01*
X031741Y012638D01*
X031740Y012649D01*
X031728Y012686D01*
X031721Y012698D01*
X031716Y012711D01*
X031692Y012746D01*
X031683Y012795D01*
X031692Y012844D01*
X031727Y012896D01*
X031727Y012896D01*
X031742Y012933D01*
Y012973D01*
X031727Y013009D01*
X031727Y013009D01*
X031692Y013061D01*
X031683Y013110D01*
X031692Y013159D01*
X031727Y013211D01*
X031727Y013211D01*
X031742Y013248D01*
Y013288D01*
Y013288D01*
X031727Y013324D01*
X031727Y013324D01*
X031722Y013332D01*
X031692Y013376D01*
X031683Y013425D01*
X031692Y013474D01*
X031720Y013516D01*
X031762Y013544D01*
X031811Y013554D01*
X031860Y013544D01*
X031890Y013524D01*
X031904Y013518D01*
X031917Y013511D01*
X031922Y013511D01*
X031927Y013509D01*
X031959Y013474D01*
X031963Y013466D01*
X031964Y013460D01*
Y013268D01*
X033154D01*
Y013465D01*
X033141Y013530D01*
X033122Y013560D01*
Y013619D01*
X033123Y013623D01*
X033126Y013627D01*
X033128Y013638D01*
X033473D01*
Y013573D01*
X034086D01*
Y013638D01*
X034173D01*
X034212Y013646D01*
X034245Y013668D01*
X034368Y013791D01*
X034374Y013799D01*
X034381Y013806D01*
X034397Y013831D01*
X034422Y013847D01*
X034429Y013854D01*
X034437Y013860D01*
X035436Y014859D01*
X037477D01*
X037497Y014812D01*
D02*
G37*
G36*
X034229Y019972D02*
X034295Y019958D01*
X034490D01*
X034530Y019919D01*
Y019586D01*
X034863D01*
X034930Y019519D01*
Y019500D01*
X034942Y019438D01*
X034977Y019385D01*
X036328Y018035D01*
X036380Y018000D01*
X036442Y017987D01*
X040551D01*
X040613Y018000D01*
X040666Y018035D01*
X040946Y018315D01*
X040957Y018311D01*
X040993Y018276D01*
Y018259D01*
X040993D01*
Y017705D01*
X041606D01*
Y017820D01*
X041790D01*
Y017666D01*
X042383D01*
Y018256D01*
Y018858D01*
X043626D01*
X043661Y018823D01*
Y018565D01*
X043561D01*
Y017971D01*
X043626D01*
X043661Y017936D01*
X043661Y016535D01*
X040742Y016535D01*
X040718Y016540D01*
X035468D01*
X033228Y018780D01*
X033228Y019841D01*
X033811D01*
Y019934D01*
X033861Y019961D01*
X033887Y019943D01*
X033976Y019925D01*
X034065Y019943D01*
X034141Y019993D01*
X034192Y019997D01*
X034229Y019972D01*
D02*
G37*
G36*
X039567Y022146D02*
X039487Y022206D01*
X039647D01*
X039567Y022146D01*
D02*
G37*
G36*
X040134Y011184D02*
Y010811D01*
X039594D01*
X039559Y010846D01*
Y010945D01*
X039281D01*
Y011102D01*
X039559D01*
Y011330D01*
X038473D01*
Y011225D01*
X038248D01*
X038233Y011275D01*
X038245Y011283D01*
X038407Y011445D01*
X038453Y011426D01*
Y011386D01*
X039007D01*
Y011386D01*
X039024D01*
Y011386D01*
X039578D01*
Y011682D01*
X039625Y011701D01*
X040134Y011184D01*
D02*
G37*
G36*
X035079Y022136D02*
X034999Y022196D01*
X035159D01*
X035079Y022136D01*
D02*
G37*
G36*
X038898D02*
X038818Y022196D01*
X038978D01*
X038898Y022136D01*
D02*
G37*
G36*
X035115Y011867D02*
X035331Y011651D01*
X035331Y010811D01*
X034592D01*
Y010918D01*
X034315D01*
Y011076D01*
X034592D01*
Y011304D01*
X034592Y011304D01*
X034592D01*
X034592Y011304D01*
X034608Y011347D01*
X034618D01*
Y011575D01*
X034341D01*
Y011732D01*
X034618D01*
Y011831D01*
X034653Y011867D01*
X035115D01*
D02*
G37*
G36*
X044544Y018838D02*
Y016481D01*
X043801D01*
X043763Y016531D01*
X043763Y016535D01*
X043763Y017936D01*
X043780Y017955D01*
Y018268D01*
Y018565D01*
X043763D01*
Y018823D01*
X043804Y018873D01*
X044508D01*
X044544Y018838D01*
D02*
G37*
G36*
X030685Y023650D02*
Y022511D01*
X030650Y022476D01*
X030081D01*
Y022590D01*
X029527D01*
Y022590D01*
X029510D01*
Y022590D01*
X028956D01*
Y022446D01*
X028743D01*
Y022590D01*
X028222D01*
X028188Y022590D01*
X028180D01*
X028172D01*
X028138Y022590D01*
X027973D01*
Y022283D01*
Y021977D01*
X028138D01*
X028172Y021977D01*
X028180D01*
X028188D01*
X028222Y021977D01*
X028743D01*
Y022121D01*
X028956D01*
Y021977D01*
X029044D01*
Y021872D01*
X028917D01*
Y021278D01*
X029044D01*
Y020918D01*
X029000Y020853D01*
X028983Y020768D01*
Y020433D01*
X029000Y020348D01*
X029048Y020276D01*
X029121Y020228D01*
X029206Y020211D01*
X029291Y020228D01*
X029363Y020276D01*
X029411Y020348D01*
X029428Y020433D01*
Y020768D01*
X029411Y020853D01*
X029368Y020918D01*
Y021278D01*
X030121D01*
Y021872D01*
X029966D01*
Y021977D01*
X030081D01*
Y022091D01*
X030685D01*
X030685Y017576D01*
X030650Y017541D01*
X030517D01*
X030474Y017557D01*
X030474Y017591D01*
Y018110D01*
X029762D01*
Y017557D01*
X030024D01*
X030067Y017541D01*
X030067Y017507D01*
Y017323D01*
X030374D01*
Y017244D01*
X030453D01*
Y016947D01*
X030685D01*
X030685Y013484D01*
X030650Y013448D01*
X029681Y013448D01*
X029646Y013477D01*
Y015197D01*
X029551D01*
X029515Y015232D01*
Y015921D01*
X029515D01*
X029503Y015934D01*
X029503Y016421D01*
X029495Y016460D01*
X029473Y016493D01*
X029463Y016504D01*
X029483Y016554D01*
X029678D01*
Y017126D01*
X029282D01*
Y017205D01*
X029204D01*
Y017856D01*
X029098D01*
X029069Y017891D01*
Y018063D01*
X029114Y018087D01*
X029121Y018082D01*
X029127Y018081D01*
Y018455D01*
Y018829D01*
X029121Y018828D01*
X029090Y018807D01*
X029062Y018819D01*
X029040Y018852D01*
X029007Y018874D01*
X028968Y018881D01*
X028593Y018881D01*
X028584Y018880D01*
X028576Y018880D01*
X028565Y018876D01*
X028554Y018874D01*
X028547Y018869D01*
X028539Y018866D01*
X028530Y018858D01*
X028521Y018852D01*
X028473Y018865D01*
X028459Y018874D01*
X028420Y018881D01*
X027923Y018881D01*
X027908Y018879D01*
X027893Y018877D01*
X027889Y018875D01*
X027884Y018874D01*
X027871Y018865D01*
X027858Y018858D01*
X027855Y018854D01*
X027851Y018852D01*
X027843Y018839D01*
X027833Y018828D01*
X027802Y018820D01*
X027791Y018828D01*
X027706Y018844D01*
X027621Y018828D01*
X027548Y018779D01*
X027500Y018707D01*
X027483Y018622D01*
Y018312D01*
X027121Y017949D01*
X027085Y017897D01*
X027075Y017846D01*
X026938D01*
Y017233D01*
Y017052D01*
X026921Y017045D01*
X026900Y017053D01*
X026872Y017078D01*
Y017362D01*
X025569D01*
Y017046D01*
X025592D01*
X025600Y017023D01*
X025600Y016996D01*
X025555Y016965D01*
X025056Y016467D01*
X025049Y016470D01*
X025015Y016496D01*
X025023Y016535D01*
X025023Y018337D01*
X025312Y018625D01*
X025347Y018678D01*
X025359Y018740D01*
Y020602D01*
X025697Y020940D01*
X026033D01*
Y020815D01*
X027178D01*
Y020940D01*
X027499D01*
X027525Y020890D01*
X027500Y020853D01*
X027483Y020768D01*
Y020763D01*
X027442D01*
X027380Y020750D01*
X027327Y020715D01*
X027227Y020615D01*
X027177Y020635D01*
Y020730D01*
X026358D01*
Y020433D01*
Y020136D01*
X027177D01*
Y020271D01*
X027275D01*
X027337Y020283D01*
X027389Y020318D01*
X027449Y020378D01*
X027497Y020364D01*
X027500Y020348D01*
X027548Y020276D01*
X027621Y020228D01*
X027706Y020211D01*
X027791Y020228D01*
X027863Y020276D01*
X027911Y020348D01*
X027928Y020433D01*
Y020737D01*
X027929Y020738D01*
X027978Y020760D01*
X027983Y020756D01*
Y020433D01*
X028000Y020348D01*
X028048Y020276D01*
X028121Y020228D01*
X028206Y020211D01*
X028291Y020228D01*
X028363Y020276D01*
X028411Y020348D01*
X028428Y020433D01*
Y020768D01*
X028411Y020853D01*
X028363Y020925D01*
X028291Y020973D01*
X028256Y020980D01*
X028019Y021217D01*
X028003Y021228D01*
X028018Y021278D01*
X028313D01*
Y021240D01*
X028326Y021178D01*
X028361Y021125D01*
X028544Y020943D01*
Y020918D01*
X028500Y020853D01*
X028483Y020768D01*
Y020433D01*
X028500Y020348D01*
X028548Y020276D01*
X028621Y020228D01*
X028706Y020211D01*
X028791Y020228D01*
X028863Y020276D01*
X028911Y020348D01*
X028928Y020433D01*
Y020768D01*
X028911Y020853D01*
X028868Y020918D01*
Y021010D01*
X028856Y021072D01*
X028820Y021125D01*
X028713Y021232D01*
X028732Y021278D01*
X028782D01*
Y021872D01*
X027964D01*
Y021575D01*
X027885D01*
Y021496D01*
X027578D01*
Y021315D01*
X027578Y021278D01*
X027534Y021265D01*
X027178D01*
Y021389D01*
X026033D01*
Y021265D01*
X025630D01*
X025568Y021252D01*
X025515Y021217D01*
X025082Y020784D01*
X025047Y020731D01*
X025035Y020669D01*
Y019317D01*
X025018Y019306D01*
X024985Y019297D01*
X024958Y019324D01*
X024925Y019346D01*
X024886Y019354D01*
X024805D01*
Y019577D01*
X023935D01*
Y019383D01*
X023900Y019354D01*
X019764Y019354D01*
X019725Y019346D01*
X019692Y019324D01*
X019670Y019291D01*
X019662Y019252D01*
X019662Y016571D01*
X019670Y016532D01*
X019692Y016499D01*
X019727Y016463D01*
X019760Y016441D01*
X019799Y016433D01*
X023730Y016433D01*
Y016329D01*
X024854D01*
X024873Y016283D01*
X024736Y016146D01*
X023898D01*
X023836Y016134D01*
X023783Y016099D01*
X023389Y015705D01*
X023354Y015653D01*
X023342Y015591D01*
Y014567D01*
X023354Y014505D01*
X023389Y014452D01*
X023547Y014295D01*
X023599Y014260D01*
X023661Y014247D01*
X025118D01*
X025180Y014260D01*
X025233Y014295D01*
X026051Y015113D01*
X027406D01*
X027441Y015078D01*
X027441Y013748D01*
X027395Y013729D01*
X027137Y013987D01*
X027078Y014027D01*
X027008Y014040D01*
X027008Y014040D01*
X026822D01*
Y014165D01*
X026302D01*
X026268Y014165D01*
X026260D01*
X026252D01*
X026218Y014165D01*
X025697D01*
Y014040D01*
X025051D01*
Y014155D01*
X024232D01*
Y013858D01*
Y013561D01*
X025051D01*
Y013676D01*
X025697D01*
Y013552D01*
X026218D01*
X026252Y013552D01*
X026260D01*
X026268D01*
X026302Y013552D01*
X026822D01*
Y013676D01*
X026932D01*
X027418Y013191D01*
X027418Y010157D01*
X027382Y010122D01*
X016299Y010122D01*
X016297Y010122D01*
X016133Y010134D01*
X015972Y010173D01*
X015818Y010237D01*
X015676Y010324D01*
X015550Y010432D01*
X015442Y010558D01*
X015355Y010700D01*
X015291Y010854D01*
X015253Y011015D01*
X015240Y011179D01*
X015240Y011181D01*
X015240Y022598D01*
X015240Y022601D01*
X015253Y022764D01*
X015291Y022926D01*
X015355Y023080D01*
X015442Y023221D01*
X015550Y023348D01*
X015676Y023456D01*
X015818Y023543D01*
X015972Y023606D01*
X016133Y023645D01*
X016251Y023654D01*
X016299Y023657D01*
X016299Y023657D01*
X016349Y023657D01*
X016349Y023657D01*
X016349Y023657D01*
X016349Y023657D01*
X030635Y023657D01*
X030685Y023650D01*
D02*
G37*
G36*
X044544Y013286D02*
Y010811D01*
X043853D01*
X043803Y010811D01*
X043803Y012424D01*
X043832Y012459D01*
X044155D01*
Y012677D01*
X043858D01*
Y012835D01*
X044155D01*
Y013053D01*
X043803D01*
Y013272D01*
X043843Y013322D01*
X044508D01*
X044544Y013286D01*
D02*
G37*
G36*
X040975Y013363D02*
X040993Y013319D01*
X040993D01*
X040993Y013319D01*
Y012764D01*
X040993D01*
Y012748D01*
X040993D01*
Y012193D01*
X041606D01*
Y012308D01*
X041790D01*
Y012154D01*
X042383D01*
Y012744D01*
Y013272D01*
X042419Y013307D01*
X043665Y013307D01*
X043701Y013272D01*
Y013053D01*
X043561D01*
Y012459D01*
X043665D01*
X043701Y012424D01*
X043701Y010811D01*
X041630Y010811D01*
X040062Y012317D01*
X040064Y012799D01*
X040064Y012799D01*
X040064Y012799D01*
X040060Y012818D01*
X040056Y012838D01*
X040056Y012838D01*
X040056Y012838D01*
X040045Y012855D01*
X040034Y012871D01*
X040034Y012871D01*
X040034Y012871D01*
X040000Y012905D01*
Y012992D01*
X039291Y013701D01*
X039055Y013937D01*
X038465D01*
Y013781D01*
X038394D01*
Y013622D01*
X037972D01*
X037969Y013624D01*
X037904Y013637D01*
X037669D01*
Y014009D01*
X037362D01*
Y014219D01*
X037862Y014720D01*
X039618D01*
X040975Y013363D01*
D02*
G37*
G36*
X038815Y022065D02*
X038878Y022026D01*
X038898Y022016D01*
X038981Y022066D01*
X039006Y022066D01*
X039006Y022014D01*
X038791Y022014D01*
X038791Y022066D01*
X038815Y022065D01*
D02*
G37*
G36*
X032285Y011505D02*
X032125D01*
X032205Y011565D01*
X032285Y011505D01*
D02*
G37*
G36*
X034996Y022065D02*
X035059Y022026D01*
X035079Y022016D01*
X035162Y022066D01*
X035188Y022066D01*
X035188Y022014D01*
X034972Y022014D01*
X034972Y022066D01*
X034996Y022065D01*
D02*
G37*
G36*
X034326D02*
X034389Y022026D01*
X034409Y022016D01*
X034493Y022066D01*
X034518Y022066D01*
X034518Y022014D01*
X034302Y022014D01*
X034302Y022066D01*
X034326Y022065D01*
D02*
G37*
G36*
X032993Y011505D02*
X032833D01*
X032913Y011565D01*
X032993Y011505D01*
D02*
G37*
G36*
X034409Y022136D02*
X034329Y022196D01*
X034489D01*
X034409Y022136D01*
D02*
G37*
G36*
X039484Y022075D02*
X039547Y022036D01*
X039567Y022026D01*
X039650Y022076D01*
X039676Y022076D01*
X039676Y022025D01*
X039460Y022024D01*
X039460Y022076D01*
X039484Y022075D01*
D02*
G37*
%LPC*%
G36*
X030295Y017165D02*
X030067D01*
Y016947D01*
X030295D01*
Y017165D01*
D02*
G37*
G36*
X018905Y014888D02*
X017960D01*
X017875Y014871D01*
X017803Y014823D01*
X017754Y014750D01*
X017737Y014665D01*
Y014114D01*
X017754Y014029D01*
X017803Y013957D01*
X017875Y013909D01*
X017960Y013892D01*
X018905D01*
X018990Y013909D01*
X019062Y013957D01*
X019110Y014029D01*
X019127Y014114D01*
Y014665D01*
X019110Y014750D01*
X019062Y014823D01*
X018990Y014871D01*
X018905Y014888D01*
D02*
G37*
G36*
X023210Y016281D02*
X021614D01*
Y015472D01*
X023210D01*
Y016281D01*
D02*
G37*
G36*
X021457D02*
X019861D01*
Y015472D01*
X021457D01*
Y016281D01*
D02*
G37*
G36*
X023210Y015315D02*
X021614D01*
Y014506D01*
X023210D01*
Y015315D01*
D02*
G37*
G36*
X024075Y014155D02*
X023847D01*
Y013937D01*
X024075D01*
Y014155D01*
D02*
G37*
G36*
X021457Y015315D02*
X019861D01*
Y014506D01*
X021457D01*
Y015315D01*
D02*
G37*
G36*
X016772Y012656D02*
Y011654D01*
X017774D01*
X017767Y011745D01*
X017727Y011911D01*
X017662Y012069D01*
X017573Y012214D01*
X017462Y012344D01*
X017332Y012455D01*
X017187Y012544D01*
X017029Y012609D01*
X016863Y012649D01*
X016772Y012656D01*
D02*
G37*
G36*
X032106Y012543D02*
X031996D01*
Y012369D01*
X032106D01*
Y012543D01*
D02*
G37*
G36*
X016614Y012656D02*
X016523Y012649D01*
X016357Y012609D01*
X016199Y012544D01*
X016054Y012455D01*
X015924Y012344D01*
X015813Y012214D01*
X015724Y012069D01*
X015659Y011911D01*
X015619Y011745D01*
X015611Y011654D01*
X016614D01*
Y012656D01*
D02*
G37*
G36*
Y011496D02*
X015611D01*
X015619Y011405D01*
X015659Y011239D01*
X015724Y011081D01*
X015813Y010936D01*
X015924Y010806D01*
X016054Y010695D01*
X016199Y010606D01*
X016357Y010540D01*
X016523Y010501D01*
X016614Y010493D01*
Y011496D01*
D02*
G37*
G36*
X017774D02*
X016772D01*
Y010493D01*
X016863Y010501D01*
X017029Y010540D01*
X017187Y010606D01*
X017332Y010695D01*
X017462Y010806D01*
X017573Y010936D01*
X017662Y011081D01*
X017727Y011239D01*
X017767Y011405D01*
X017774Y011496D01*
D02*
G37*
G36*
X039007Y013415D02*
X038780D01*
Y013207D01*
X039007D01*
Y013415D01*
D02*
G37*
G36*
X024075Y013780D02*
X023847D01*
Y013561D01*
X024075D01*
Y013780D01*
D02*
G37*
G36*
X034086Y013415D02*
X033858D01*
Y013207D01*
X034086D01*
Y013415D01*
D02*
G37*
G36*
X037028Y012543D02*
X036918D01*
Y012369D01*
X037028D01*
Y012543D01*
D02*
G37*
G36*
X033701Y013415D02*
X033473D01*
Y013207D01*
X033701D01*
Y013415D01*
D02*
G37*
G36*
X029678Y017856D02*
X029361D01*
Y017283D01*
X029678D01*
Y017856D01*
D02*
G37*
G36*
X044155Y021320D02*
X043937D01*
Y021102D01*
X044155D01*
Y021320D01*
D02*
G37*
G36*
X039769Y021227D02*
X039659D01*
Y021052D01*
X039769D01*
Y021227D01*
D02*
G37*
G36*
X017774Y022126D02*
X016772D01*
Y021123D01*
X016863Y021131D01*
X017029Y021170D01*
X017187Y021236D01*
X017332Y021325D01*
X017462Y021436D01*
X017573Y021565D01*
X017662Y021711D01*
X017727Y021869D01*
X017767Y022035D01*
X017774Y022126D01*
D02*
G37*
G36*
X016614D02*
X015611D01*
X015619Y022035D01*
X015659Y021869D01*
X015724Y021711D01*
X015813Y021565D01*
X015924Y021436D01*
X016054Y021325D01*
X016199Y021236D01*
X016357Y021170D01*
X016523Y021131D01*
X016614Y021123D01*
Y022126D01*
D02*
G37*
G36*
X026201Y020730D02*
X025973D01*
Y020512D01*
X026201D01*
Y020730D01*
D02*
G37*
G36*
X037913Y020415D02*
X037685D01*
Y020207D01*
X037913D01*
Y020415D01*
D02*
G37*
G36*
X035281Y021227D02*
X035171D01*
Y021052D01*
X035281D01*
Y021227D01*
D02*
G37*
G36*
X044155Y020945D02*
X043937D01*
Y020727D01*
X044155D01*
Y020945D01*
D02*
G37*
G36*
X027806Y021872D02*
X027578D01*
Y021654D01*
X027806D01*
Y021872D01*
D02*
G37*
G36*
X027816Y022590D02*
X027618D01*
Y022362D01*
X027816D01*
Y022590D01*
D02*
G37*
G36*
X037431Y022559D02*
X037233D01*
Y022331D01*
X037431D01*
Y022559D01*
D02*
G37*
G36*
X032937Y022957D02*
X032738D01*
Y022729D01*
X032937D01*
Y022957D01*
D02*
G37*
G36*
X037431Y022944D02*
X037233D01*
Y022717D01*
X037431D01*
Y022944D01*
D02*
G37*
G36*
X037451Y022236D02*
X037252D01*
Y022008D01*
X037451D01*
Y022236D01*
D02*
G37*
G36*
X027816Y022205D02*
X027618D01*
Y021977D01*
X027816D01*
Y022205D01*
D02*
G37*
G36*
X016772Y023286D02*
Y022283D01*
X017774D01*
X017767Y022375D01*
X017727Y022541D01*
X017662Y022698D01*
X017573Y022844D01*
X017462Y022974D01*
X017332Y023085D01*
X017187Y023174D01*
X017029Y023239D01*
X016863Y023279D01*
X016772Y023286D01*
D02*
G37*
G36*
X016614D02*
X016523Y023279D01*
X016357Y023239D01*
X016199Y023174D01*
X016054Y023085D01*
X015924Y022974D01*
X015813Y022844D01*
X015724Y022698D01*
X015659Y022541D01*
X015619Y022375D01*
X015611Y022283D01*
X016614D01*
Y023286D01*
D02*
G37*
G36*
X033425Y020415D02*
X033197D01*
Y020207D01*
X033425D01*
Y020415D01*
D02*
G37*
G36*
X044155Y018565D02*
X043937D01*
Y018346D01*
X044155D01*
Y018565D01*
D02*
G37*
G36*
X030474Y019409D02*
X029762D01*
Y018870D01*
X029762Y018857D01*
Y018839D01*
Y018820D01*
X029762Y018807D01*
Y018268D01*
X030474D01*
Y018807D01*
X030474Y018820D01*
Y018839D01*
Y018857D01*
X030474Y018870D01*
Y019409D01*
D02*
G37*
G36*
X028377Y019449D02*
X027745D01*
Y018955D01*
X028377D01*
Y019449D01*
D02*
G37*
G36*
X029284Y018829D02*
Y018533D01*
X029428D01*
Y018622D01*
X029411Y018707D01*
X029363Y018779D01*
X029291Y018828D01*
X029284Y018829D01*
D02*
G37*
G36*
X026872Y017836D02*
X026299D01*
Y017520D01*
X026872D01*
Y017836D01*
D02*
G37*
G36*
X026142D02*
X025569D01*
Y017520D01*
X026142D01*
Y017836D01*
D02*
G37*
G36*
X029428Y018376D02*
X029284D01*
Y018081D01*
X029291Y018082D01*
X029363Y018130D01*
X029411Y018202D01*
X029428Y018287D01*
Y018376D01*
D02*
G37*
G36*
X044155Y018189D02*
X043937D01*
Y017971D01*
X044155D01*
Y018189D01*
D02*
G37*
G36*
X029166Y019449D02*
X028534D01*
Y018955D01*
X029166D01*
Y019449D01*
D02*
G37*
G36*
X024291Y020307D02*
X023935D01*
Y019734D01*
X024291D01*
Y020307D01*
D02*
G37*
G36*
X029166Y020100D02*
X028534D01*
Y019606D01*
X029166D01*
Y020100D01*
D02*
G37*
G36*
X026201Y020354D02*
X025973D01*
Y020136D01*
X026201D01*
Y020354D01*
D02*
G37*
G36*
X024805Y020307D02*
X024449D01*
Y019734D01*
X024805D01*
Y020307D01*
D02*
G37*
G36*
X030039Y020120D02*
X029762D01*
Y019567D01*
X030039D01*
Y020120D01*
D02*
G37*
G36*
X018905Y019988D02*
X017960D01*
X017875Y019971D01*
X017803Y019923D01*
X017754Y019850D01*
X017737Y019765D01*
Y019214D01*
X017754Y019129D01*
X017803Y019057D01*
X017875Y019009D01*
X017960Y018992D01*
X018905D01*
X018990Y019009D01*
X019062Y019057D01*
X019110Y019129D01*
X019127Y019214D01*
Y019765D01*
X019110Y019850D01*
X019062Y019923D01*
X018990Y019971D01*
X018905Y019988D01*
D02*
G37*
G36*
X028377Y020100D02*
X027745D01*
Y019606D01*
X028377D01*
Y020100D01*
D02*
G37*
G36*
X030474Y020120D02*
X030197D01*
Y019567D01*
X030474D01*
Y020120D01*
D02*
G37*
%LPD*%
D10*
X032559Y013189D02*
D03*
X037480D02*
D03*
X034718Y020406D02*
D03*
X039206D02*
D03*
D11*
X032933Y012622D02*
D03*
X032559D02*
D03*
X032185D02*
D03*
Y013756D02*
D03*
X032559D02*
D03*
X032933D02*
D03*
X037854Y012622D02*
D03*
X037480D02*
D03*
X037106D02*
D03*
Y013756D02*
D03*
X037480D02*
D03*
X037854D02*
D03*
X034344Y020973D02*
D03*
X034718D02*
D03*
X035092D02*
D03*
Y019839D02*
D03*
X034718D02*
D03*
X034344D02*
D03*
X038832Y020973D02*
D03*
X039206D02*
D03*
X039580D02*
D03*
Y019839D02*
D03*
X039206D02*
D03*
X038832D02*
D03*
D12*
X024154Y013858D02*
D03*
X024744D02*
D03*
X030374Y017244D02*
D03*
X030965D02*
D03*
X029223Y021575D02*
D03*
X029814D02*
D03*
X026280Y020433D02*
D03*
X026870D02*
D03*
X027885Y021575D02*
D03*
X028475D02*
D03*
D13*
X025974Y013858D02*
D03*
X026545D02*
D03*
X029804Y022283D02*
D03*
X029233D02*
D03*
X028466D02*
D03*
X027895D02*
D03*
X038081Y022638D02*
D03*
X037510D02*
D03*
X038061Y021929D02*
D03*
X037530D02*
D03*
X033770Y011654D02*
D03*
X034341D02*
D03*
X033783Y010997D02*
D03*
X034315D02*
D03*
X038730Y011693D02*
D03*
X039301D02*
D03*
X038750Y011024D02*
D03*
X039281D02*
D03*
X033586Y022650D02*
D03*
X033015D02*
D03*
X033567Y021981D02*
D03*
X033035D02*
D03*
D14*
X028456Y019528D02*
D03*
D15*
X029206Y020600D02*
D03*
X028706D02*
D03*
X028206D02*
D03*
X027706D02*
D03*
X029206Y018455D02*
D03*
X028706D02*
D03*
X028206D02*
D03*
X027706D02*
D03*
D16*
X027235Y017539D02*
D03*
Y016949D02*
D03*
X042087Y021319D02*
D03*
Y020728D02*
D03*
Y015807D02*
D03*
Y015217D02*
D03*
Y013051D02*
D03*
Y012461D02*
D03*
Y018563D02*
D03*
Y017972D02*
D03*
D17*
X031220Y019488D02*
D03*
X030118D02*
D03*
X031220Y018189D02*
D03*
X030118D02*
D03*
D18*
X029282Y017205D02*
D03*
X028101D02*
D03*
D19*
X026220Y017441D02*
D03*
Y016260D02*
D03*
D20*
X037470Y021024D02*
D03*
X038041D02*
D03*
X034341Y012638D02*
D03*
X033770D02*
D03*
X039301Y012638D02*
D03*
X038730D02*
D03*
X033022Y020984D02*
D03*
X033593D02*
D03*
D21*
X037992Y020128D02*
D03*
Y019557D02*
D03*
X033780Y013494D02*
D03*
Y014065D02*
D03*
X038701Y013494D02*
D03*
Y014065D02*
D03*
X033504Y020128D02*
D03*
Y019557D02*
D03*
D22*
X024370Y015114D02*
D03*
Y016854D02*
D03*
D23*
Y018376D02*
D03*
Y019656D02*
D03*
D24*
X028740Y015461D02*
D03*
Y013280D02*
D03*
D25*
X026320Y021102D02*
D03*
X026891D02*
D03*
D26*
X041299Y020738D02*
D03*
Y021309D02*
D03*
Y015226D02*
D03*
Y015797D02*
D03*
Y012470D02*
D03*
Y013041D02*
D03*
Y017982D02*
D03*
Y018553D02*
D03*
D27*
X032912Y011793D02*
D03*
X032913Y011398D02*
D03*
X032204Y011793D02*
D03*
X032205Y011398D02*
D03*
X037834Y011793D02*
D03*
X037835Y011398D02*
D03*
X037125Y011793D02*
D03*
X037126Y011398D02*
D03*
X035080Y021907D02*
D03*
X035079Y022303D02*
D03*
X034410Y021907D02*
D03*
X034409Y022303D02*
D03*
X038899Y021907D02*
D03*
X038898Y022303D02*
D03*
X039568Y021917D02*
D03*
X039567Y022313D02*
D03*
D28*
X021535Y018386D02*
D03*
Y015394D02*
D03*
D29*
X040955Y018553D02*
X041152D01*
X040551Y018150D02*
X040955Y018553D01*
X036442Y018150D02*
X040551D01*
X040718Y016378D02*
X041299Y015797D01*
X034384Y016378D02*
X040718D01*
X032185Y014179D02*
X034384Y016378D01*
X039685Y014882D02*
X041299Y013268D01*
X037795Y014882D02*
X039685D01*
X037106Y014193D02*
X037795Y014882D01*
X041299Y013041D02*
Y013268D01*
X042077Y012470D02*
X042087Y012461D01*
X041299Y012470D02*
X042077D01*
X041299Y015226D02*
X042077D01*
X041299Y017982D02*
X042077D01*
X035092Y019500D02*
X036442Y018150D01*
X041299Y020738D02*
X042077D01*
X040994Y021309D02*
X041299D01*
X040866Y021181D02*
X040994Y021309D01*
X040866Y020669D02*
Y021181D01*
X040091Y019894D02*
X040866Y020669D01*
X034718Y021546D02*
X035080Y021907D01*
X028466Y022283D02*
X029194D01*
X029206Y020600D02*
Y022283D01*
X027275Y020433D02*
X027442Y020600D01*
X027706D01*
X028175Y020617D02*
Y020831D01*
X027905Y021102D02*
X028175Y020831D01*
X026891Y021102D02*
X027905D01*
X028706Y020600D02*
Y021010D01*
X028475Y021240D02*
X028706Y021010D01*
X028475Y021240D02*
Y021693D01*
X029804Y021585D02*
Y022283D01*
X027706Y018305D02*
Y018455D01*
X025630Y021102D02*
X026320D01*
X026870Y020433D02*
X027275D01*
X037480Y012147D02*
Y012677D01*
Y012147D02*
X037834Y011793D01*
X037479Y012147D02*
X037480D01*
X037125Y011793D02*
X037479Y012147D01*
X032559Y012188D02*
Y012638D01*
X032204Y011833D02*
X032559Y012188D01*
X032912Y011835D01*
X032205Y011181D02*
Y011437D01*
X032933Y012638D02*
X033770D01*
X037854Y012677D02*
X038691D01*
X032205Y011181D02*
X032323Y011063D01*
X033783D01*
X032913Y011437D02*
X032972Y011378D01*
X033150D01*
X033425Y011654D01*
X039206Y020918D02*
Y021600D01*
X038899Y021907D02*
X039206Y021600D01*
X039260D01*
X039568Y021907D01*
X034410D02*
X034718Y021600D01*
Y020918D02*
Y021546D01*
Y021600D01*
X039567Y022303D02*
Y022559D01*
X039488Y022638D02*
X039567Y022559D01*
X038059Y022638D02*
X039488D01*
X038041Y021024D02*
X038727D01*
X033593Y020984D02*
X034278D01*
X037106Y013701D02*
Y014193D01*
X035092Y019500D02*
Y019894D01*
X033425Y011654D02*
X033770D01*
X033586Y022650D02*
X033599Y022663D01*
X038078Y021936D02*
X038314D01*
X038681Y022303D01*
X038898D01*
X033567Y021981D02*
X033871D01*
X034193Y022303D01*
X034409D01*
X037835Y011398D02*
X038130D01*
X038425Y011693D01*
X038730D01*
X037205Y011063D02*
X038750D01*
X037126Y011142D02*
Y011398D01*
Y011142D02*
X037205Y011063D01*
X033586Y022638D02*
X035000D01*
X035079Y022559D01*
Y022303D02*
Y022559D01*
X032185Y013701D02*
Y014179D01*
X039580Y019894D02*
X040091D01*
X027235Y017500D02*
Y017835D01*
X027706Y018305D01*
X028206Y017309D02*
Y018455D01*
X027137Y016850D02*
X027235Y016949D01*
X024803Y015984D02*
X025669Y016850D01*
X027137D01*
X023898Y015984D02*
X024803D01*
X023504Y015591D02*
X023898Y015984D01*
X023504Y014567D02*
Y015591D01*
X028650Y015551D02*
X028740Y015461D01*
X025984Y015276D02*
X028228D01*
X028307Y015354D01*
Y015630D01*
X024370Y018376D02*
X024833D01*
X025197Y018740D01*
Y020669D01*
X025630Y021102D01*
X025118Y014409D02*
X025984Y015276D01*
X023504Y014567D02*
X023661Y014409D01*
X025118D01*
X019961Y014567D02*
X023210D01*
X019989Y016220D02*
X023239D01*
D30*
X024744Y013858D02*
X025974D01*
X027008D02*
X027677Y013189D01*
X026545Y013858D02*
X027008D01*
X042244Y013504D02*
X044882D01*
X042087Y013346D02*
X042244Y013504D01*
Y021890D02*
X044882D01*
X042087Y021732D02*
X042244Y021890D01*
X042087Y021319D02*
Y021732D01*
Y013051D02*
Y013346D01*
X042244Y019055D02*
X044764D01*
X042087Y018898D02*
X042244Y019055D01*
X042087Y018563D02*
Y018898D01*
X042244Y016299D02*
X044764D01*
X042087Y016142D02*
X042244Y016299D01*
X042087Y015807D02*
Y016142D01*
X039301Y012638D02*
Y013199D01*
X028731Y019803D02*
X029252D01*
X028731Y019252D02*
X029291D01*
X027638Y019803D02*
X028180D01*
X035197Y021457D02*
X035236Y021417D01*
X032008Y012165D02*
Y012185D01*
Y012165D02*
X032185Y012343D01*
X034718Y020406D02*
X035591D01*
Y020630D01*
Y020197D02*
Y020406D01*
X037106Y012303D02*
Y012677D01*
X032185Y012343D02*
Y012677D01*
X039580Y020918D02*
Y021313D01*
X035092Y020918D02*
Y021352D01*
X037008Y012205D02*
X037106Y012303D01*
X035092Y021352D02*
X035197Y021457D01*
X039580Y021313D02*
X039724Y021457D01*
X039301Y011043D02*
Y011693D01*
X039321Y011024D02*
X039843D01*
X039301Y011043D02*
X039321Y011024D01*
X034341Y011654D02*
X034843D01*
X032480Y022008D02*
X033008D01*
X037008Y021929D02*
X037501D01*
X027520Y019291D02*
X028219D01*
D31*
X029804Y022283D02*
X031102D01*
D32*
X043366Y021024D02*
D03*
Y012756D02*
D03*
Y015512D02*
D03*
Y018268D02*
D03*
D33*
X043858Y021024D02*
D03*
Y012756D02*
D03*
Y015512D02*
D03*
Y018268D02*
D03*
D34*
X016693Y022205D02*
D03*
Y011575D02*
D03*
D35*
X018432Y014390D02*
D03*
Y019490D02*
D03*
D36*
X039961Y020906D02*
D03*
Y020591D02*
D03*
Y020276D02*
D03*
X040315Y020591D02*
D03*
X028889Y019744D02*
D03*
X028456D02*
D03*
Y019311D02*
D03*
X028023Y019744D02*
D03*
Y019311D02*
D03*
X030315Y023465D02*
D03*
Y023110D02*
D03*
Y022756D02*
D03*
X026969Y012717D02*
D03*
Y012323D02*
D03*
Y011929D02*
D03*
Y011535D02*
D03*
Y011142D02*
D03*
Y010748D02*
D03*
Y010354D02*
D03*
X034803Y013425D02*
D03*
Y013110D02*
D03*
X034882Y011614D02*
D03*
X034843Y011024D02*
D03*
X039843D02*
D03*
X039331Y013228D02*
D03*
X032480Y022008D02*
D03*
Y022598D02*
D03*
X037677Y018661D02*
D03*
X037165D02*
D03*
X036614D02*
D03*
X031811Y013425D02*
D03*
Y013110D02*
D03*
Y012795D02*
D03*
Y012441D02*
D03*
X032362Y013189D02*
D03*
X032717D02*
D03*
X037283D02*
D03*
X037638D02*
D03*
X034528Y020394D02*
D03*
X034921Y020406D02*
D03*
X039016Y020394D02*
D03*
X039409D02*
D03*
X038465Y020512D02*
D03*
Y020197D02*
D03*
X033976Y020551D02*
D03*
Y020157D02*
D03*
X034803Y013740D02*
D03*
X034488D02*
D03*
Y013425D02*
D03*
Y013110D02*
D03*
X036732Y012835D02*
D03*
Y013150D02*
D03*
Y013465D02*
D03*
X035472Y020091D02*
D03*
Y020406D02*
D03*
Y020721D02*
D03*
X035748Y020079D02*
D03*
Y020394D02*
D03*
Y020709D02*
D03*
X032323Y019882D02*
D03*
Y020197D02*
D03*
Y020512D02*
D03*
X032677Y019882D02*
D03*
Y020197D02*
D03*
Y020512D02*
D03*
X040315Y020906D02*
D03*
Y021220D02*
D03*
X036417Y012835D02*
D03*
Y013150D02*
D03*
Y013465D02*
D03*
X029961Y014055D02*
D03*
Y014370D02*
D03*
Y014685D02*
D03*
X030354Y014055D02*
D03*
Y014370D02*
D03*
Y014685D02*
D03*
X027244Y021693D02*
D03*
Y022008D02*
D03*
Y022323D02*
D03*
X028889Y019311D02*
D03*
X027165Y018543D02*
D03*
D37*
X025866Y018661D02*
D03*
Y019173D02*
D03*
X026378Y018150D02*
D03*
X025866D02*
D03*
Y019646D02*
D03*
X030197Y020945D02*
D03*
Y020630D02*
D03*
Y020315D02*
D03*
X026890Y018150D02*
D03*
X019567Y014606D02*
D03*
Y014882D02*
D03*
Y015157D02*
D03*
Y015433D02*
D03*
Y015709D02*
D03*
Y015984D02*
D03*
Y016260D02*
D03*
X024882Y020472D02*
D03*
Y020748D02*
D03*
X025327Y017126D02*
D03*
X025315Y017441D02*
D03*
Y017756D02*
D03*
D38*
X039724Y021457D02*
D03*
X035236Y021417D02*
D03*
X037008Y012205D02*
D03*
X032008Y012185D02*
D03*
X037008Y021929D02*
D03*
Y022638D02*
D03*
X040000Y022283D02*
D03*
M02*
